<svg width="593" height="453" viewBox="0 0 593 453" fill="none" xmlns="http://www.w3.org/2000/svg">
<path fill-rule="evenodd" clip-rule="evenodd" d="M592.594 121.204C549.022 121.204 505.877 129.786 465.622 146.46C425.366 163.134 388.79 187.574 357.98 218.384C327.17 249.194 302.73 285.771 286.056 326.026C269.381 366.281 260.799 409.426 260.799 452.998L139.596 452.998C139.596 393.51 151.313 334.604 174.078 279.643C196.843 224.683 230.211 174.745 272.276 132.68C314.341 90.6153 364.279 57.2477 419.239 34.4824C474.199 11.7171 533.105 0 592.594 0V121.204Z" fill="white" fill-opacity="0.1"/>
<path fill-rule="evenodd" clip-rule="evenodd" d="M71.924 326.028C55.2498 285.772 30.81 249.196 0 218.386L85.7038 132.682C127.769 174.747 161.136 224.685 183.902 279.645C206.667 334.605 218.384 393.511 218.384 453H97.1804C97.1804 409.428 88.5983 366.283 71.924 326.028Z" fill="white" fill-opacity="0.1"/>
</svg>
