<svg width="145" height="47" viewBox="0 0 145 47" fill="none" xmlns="http://www.w3.org/2000/svg">
<path fill-rule="evenodd" clip-rule="evenodd" d="M25.8106 13.3294C23.9128 13.3294 22.0336 13.7032 20.2803 14.4294C18.527 15.1557 16.9339 16.2202 15.592 17.5621C14.2501 18.904 13.1856 20.4971 12.4593 22.2504C11.7331 24.0037 11.3593 25.8829 11.3593 27.7807L6.08032 27.7807C6.08032 25.1896 6.59066 22.624 7.5822 20.2302C8.57373 17.8364 10.0271 15.6614 11.8592 13.8293C13.6913 11.9971 15.8663 10.5438 18.2601 9.55229C20.6539 8.56075 23.2195 8.05042 25.8106 8.05042V13.3294Z" fill="#45C907"/>
<path fill-rule="evenodd" clip-rule="evenodd" d="M3.13264 22.2504C2.40639 20.4971 1.34192 18.904 0 17.5621L3.73281 13.8293C5.56493 15.6614 7.01825 17.8365 8.00979 20.2302C9.00133 22.624 9.51166 25.1897 9.51166 27.7807H4.23267C4.23267 25.8829 3.85888 24.0037 3.13264 22.2504Z" fill="#45C907"/>
<mask id="path-3-outside-1_26_3073" maskUnits="userSpaceOnUse" x="14.6587" y="7" width="130" height="32" fill="black">
<rect fill="white" x="14.6587" y="7" width="130" height="32"/>
<path d="M26.3167 37.5696C24.2281 37.5696 22.3927 37.1456 20.8105 36.2975C19.2282 35.4494 17.9941 34.2659 17.108 32.7469C16.222 31.228 15.7789 29.4495 15.7789 27.4116C15.7789 25.9306 16.0321 24.5699 16.5384 23.3294C17.0574 22.0889 17.7789 21.0193 18.7029 20.1206C19.6396 19.2092 20.7345 18.5067 21.9877 18.013C23.2535 17.5067 24.6395 17.2535 26.1458 17.2535C27.804 17.2535 29.2723 17.5447 30.5508 18.127C31.8419 18.7092 32.9115 19.5257 33.7596 20.5763C34.6077 21.6142 35.1963 22.8357 35.5254 24.2408C35.8671 25.6458 35.8988 27.1711 35.6203 28.8166H20.9244C20.9244 29.7027 21.1522 30.4748 21.6079 31.133C22.0763 31.7912 22.7282 32.3102 23.5636 32.69C24.4117 33.057 25.399 33.2406 26.5255 33.2406C27.6395 33.2406 28.7027 33.0887 29.7154 32.7849C30.728 32.4811 31.6837 32.0191 32.5824 31.3988L34.4241 35.1962C33.8165 35.6646 33.0571 36.0823 32.1457 36.4494C31.2343 36.8038 30.266 37.0759 29.2407 37.2658C28.228 37.4683 27.2534 37.5696 26.3167 37.5696ZM21.2472 25.0002H30.304C30.266 23.8737 29.8673 22.9813 29.1078 22.3231C28.361 21.6649 27.3293 21.3357 26.0129 21.3357C24.6965 21.3357 23.6016 21.6649 22.7282 22.3231C21.8674 22.9813 21.3738 23.8737 21.2472 25.0002ZM46.3023 37.5696C44.4542 37.5696 42.8087 37.1456 41.3656 36.2975C39.9353 35.4367 38.8024 34.2406 37.967 32.7089C37.1442 31.1773 36.7328 29.4115 36.7328 27.4116C36.7328 25.9812 36.967 24.6521 37.4353 23.4243C37.9163 22.1965 38.5872 21.1206 39.448 20.1965C40.3087 19.2725 41.3277 18.551 42.5049 18.032C43.6821 17.513 44.9795 17.2535 46.3972 17.2535C47.9541 17.2535 49.3338 17.5637 50.5364 18.1839C51.7515 18.7915 52.7958 19.6839 53.6692 20.8611L52.4161 22.1332V9.65876H57.9603V37H53.1376V32.1393L53.897 33.3925C53.3021 34.6203 52.3591 35.6266 51.068 36.4114C49.7769 37.1835 48.1883 37.5696 46.3023 37.5696ZM47.3276 32.7659C48.3022 32.7659 49.1756 32.5507 49.9478 32.1203C50.7199 31.6773 51.3275 31.0571 51.7705 30.2596C52.2135 29.4622 52.4351 28.5128 52.4351 27.4116C52.4351 26.3103 52.2135 25.361 51.7705 24.5635C51.3401 23.7661 50.7389 23.1522 49.9667 22.7218C49.1946 22.2788 48.3149 22.0573 47.3276 22.0573C46.3402 22.0573 45.4605 22.2788 44.6884 22.7218C43.9162 23.1522 43.3086 23.7661 42.8656 24.5635C42.4226 25.361 42.2011 26.3103 42.2011 27.4116C42.2011 28.5128 42.4226 29.4622 42.8656 30.2596C43.3086 31.0571 43.9162 31.6773 44.6884 32.1203C45.4605 32.5507 46.3402 32.7659 47.3276 32.7659ZM61.8214 37V17.8232H67.3656V37H61.8214ZM64.5935 14.7852C63.6695 14.7852 62.872 14.5004 62.2012 13.9308C61.5303 13.3486 61.1949 12.5764 61.1949 11.6144C61.1949 10.6398 61.5303 9.86762 62.2012 9.29801C62.872 8.71574 63.6695 8.42461 64.5935 8.42461C65.5176 8.42461 66.315 8.71574 66.9859 9.29801C67.6568 9.86762 67.9922 10.6398 67.9922 11.6144C67.9922 12.5764 67.6568 13.3486 66.9859 13.9308C66.315 14.5004 65.5176 14.7852 64.5935 14.7852ZM79.5585 37.5696C77.5079 37.5696 75.8877 36.9937 74.6979 35.8418C73.5207 34.6773 72.9321 32.9241 72.9321 30.5824V12.2979H78.4763V17.8232H83.242V22.2661H78.4763V29.5761C78.4763 30.7027 78.7104 31.4938 79.1788 31.9495C79.6471 32.4052 80.2737 32.633 81.0585 32.633C81.4636 32.633 81.856 32.5887 82.2357 32.5001C82.6281 32.3988 82.9888 32.2596 83.318 32.0824L84.0964 36.4494C83.5268 36.7658 82.8433 37.0316 82.0458 37.2468C81.261 37.462 80.4319 37.5696 79.5585 37.5696ZM69.0398 22.2661V17.8232H73.4827V22.2661H69.0398ZM86.5223 37V9.65876H92.0665V37H86.5223ZM101.297 37.5696C100.006 37.5696 98.8544 37.3228 97.8418 36.8291C96.8292 36.3355 96.0317 35.6329 95.4494 34.7216C94.8672 33.7975 94.576 32.6963 94.576 31.4178C94.576 30.3292 94.8482 29.3609 95.3925 28.5128C95.9368 27.6647 96.7595 26.9686 97.8608 26.4243C98.9747 25.8673 100.38 25.4939 102.076 25.304C103.785 25.1015 105.797 25.1142 108.114 25.342L108.171 28.8736C106.791 28.6457 105.569 28.5381 104.506 28.5508C103.456 28.5635 102.57 28.671 101.848 28.8736C101.139 29.0761 100.601 29.3736 100.234 29.766C99.8671 30.1457 99.6835 30.6077 99.6835 31.152C99.6835 31.8988 99.962 32.4748 100.519 32.8798C101.076 33.2722 101.829 33.4684 102.778 33.4684C103.601 33.4684 104.342 33.3229 105 33.0317C105.658 32.7406 106.183 32.3165 106.576 31.7596C106.968 31.2026 107.164 30.5254 107.164 29.728V25.1331C107.164 24.3863 107.006 23.7344 106.69 23.1775C106.386 22.6079 105.905 22.1712 105.247 21.8674C104.588 21.5509 103.728 21.3927 102.664 21.3927C101.677 21.3927 100.69 21.5446 99.7025 21.8484C98.7279 22.1395 97.8355 22.5889 97.0254 23.1965L95.5634 19.3231C96.7912 18.5383 98.095 17.9687 99.4747 17.6143C100.854 17.2472 102.202 17.0637 103.519 17.0637C105.316 17.0637 106.886 17.3485 108.228 17.9181C109.569 18.4877 110.607 19.3674 111.342 20.5573C112.088 21.7345 112.462 23.2344 112.462 25.0572V37H107.639V34.8924C107.006 35.7532 106.139 36.4177 105.038 36.8861C103.937 37.3418 102.69 37.5696 101.297 37.5696ZM119.223 37L113.394 17.8232H118.805L122.223 30.6204L126.096 17.8232H131.28L134.982 30.6204L138.4 17.8232H143.583L137.754 37H132.191L128.583 24.6585L124.786 37H119.223Z"/>
</mask>
<path d="M26.3167 37.5696C24.2281 37.5696 22.3927 37.1456 20.8105 36.2975C19.2282 35.4494 17.9941 34.2659 17.108 32.7469C16.222 31.228 15.7789 29.4495 15.7789 27.4116C15.7789 25.9306 16.0321 24.5699 16.5384 23.3294C17.0574 22.0889 17.7789 21.0193 18.7029 20.1206C19.6396 19.2092 20.7345 18.5067 21.9877 18.013C23.2535 17.5067 24.6395 17.2535 26.1458 17.2535C27.804 17.2535 29.2723 17.5447 30.5508 18.127C31.8419 18.7092 32.9115 19.5257 33.7596 20.5763C34.6077 21.6142 35.1963 22.8357 35.5254 24.2408C35.8671 25.6458 35.8988 27.1711 35.6203 28.8166H20.9244C20.9244 29.7027 21.1522 30.4748 21.6079 31.133C22.0763 31.7912 22.7282 32.3102 23.5636 32.69C24.4117 33.057 25.399 33.2406 26.5255 33.2406C27.6395 33.2406 28.7027 33.0887 29.7154 32.7849C30.728 32.4811 31.6837 32.0191 32.5824 31.3988L34.4241 35.1962C33.8165 35.6646 33.0571 36.0823 32.1457 36.4494C31.2343 36.8038 30.266 37.0759 29.2407 37.2658C28.228 37.4683 27.2534 37.5696 26.3167 37.5696ZM21.2472 25.0002H30.304C30.266 23.8737 29.8673 22.9813 29.1078 22.3231C28.361 21.6649 27.3293 21.3357 26.0129 21.3357C24.6965 21.3357 23.6016 21.6649 22.7282 22.3231C21.8674 22.9813 21.3738 23.8737 21.2472 25.0002ZM46.3023 37.5696C44.4542 37.5696 42.8087 37.1456 41.3656 36.2975C39.9353 35.4367 38.8024 34.2406 37.967 32.7089C37.1442 31.1773 36.7328 29.4115 36.7328 27.4116C36.7328 25.9812 36.967 24.6521 37.4353 23.4243C37.9163 22.1965 38.5872 21.1206 39.448 20.1965C40.3087 19.2725 41.3277 18.551 42.5049 18.032C43.6821 17.513 44.9795 17.2535 46.3972 17.2535C47.9541 17.2535 49.3338 17.5637 50.5364 18.1839C51.7515 18.7915 52.7958 19.6839 53.6692 20.8611L52.4161 22.1332V9.65876H57.9603V37H53.1376V32.1393L53.897 33.3925C53.3021 34.6203 52.3591 35.6266 51.068 36.4114C49.7769 37.1835 48.1883 37.5696 46.3023 37.5696ZM47.3276 32.7659C48.3022 32.7659 49.1756 32.5507 49.9478 32.1203C50.7199 31.6773 51.3275 31.0571 51.7705 30.2596C52.2135 29.4622 52.4351 28.5128 52.4351 27.4116C52.4351 26.3103 52.2135 25.361 51.7705 24.5635C51.3401 23.7661 50.7389 23.1522 49.9667 22.7218C49.1946 22.2788 48.3149 22.0573 47.3276 22.0573C46.3402 22.0573 45.4605 22.2788 44.6884 22.7218C43.9162 23.1522 43.3086 23.7661 42.8656 24.5635C42.4226 25.361 42.2011 26.3103 42.2011 27.4116C42.2011 28.5128 42.4226 29.4622 42.8656 30.2596C43.3086 31.0571 43.9162 31.6773 44.6884 32.1203C45.4605 32.5507 46.3402 32.7659 47.3276 32.7659ZM61.8214 37V17.8232H67.3656V37H61.8214ZM64.5935 14.7852C63.6695 14.7852 62.872 14.5004 62.2012 13.9308C61.5303 13.3486 61.1949 12.5764 61.1949 11.6144C61.1949 10.6398 61.5303 9.86762 62.2012 9.29801C62.872 8.71574 63.6695 8.42461 64.5935 8.42461C65.5176 8.42461 66.315 8.71574 66.9859 9.29801C67.6568 9.86762 67.9922 10.6398 67.9922 11.6144C67.9922 12.5764 67.6568 13.3486 66.9859 13.9308C66.315 14.5004 65.5176 14.7852 64.5935 14.7852ZM79.5585 37.5696C77.5079 37.5696 75.8877 36.9937 74.6979 35.8418C73.5207 34.6773 72.9321 32.9241 72.9321 30.5824V12.2979H78.4763V17.8232H83.242V22.2661H78.4763V29.5761C78.4763 30.7027 78.7104 31.4938 79.1788 31.9495C79.6471 32.4052 80.2737 32.633 81.0585 32.633C81.4636 32.633 81.856 32.5887 82.2357 32.5001C82.6281 32.3988 82.9888 32.2596 83.318 32.0824L84.0964 36.4494C83.5268 36.7658 82.8433 37.0316 82.0458 37.2468C81.261 37.462 80.4319 37.5696 79.5585 37.5696ZM69.0398 22.2661V17.8232H73.4827V22.2661H69.0398ZM86.5223 37V9.65876H92.0665V37H86.5223ZM101.297 37.5696C100.006 37.5696 98.8544 37.3228 97.8418 36.8291C96.8292 36.3355 96.0317 35.6329 95.4494 34.7216C94.8672 33.7975 94.576 32.6963 94.576 31.4178C94.576 30.3292 94.8482 29.3609 95.3925 28.5128C95.9368 27.6647 96.7595 26.9686 97.8608 26.4243C98.9747 25.8673 100.38 25.4939 102.076 25.304C103.785 25.1015 105.797 25.1142 108.114 25.342L108.171 28.8736C106.791 28.6457 105.569 28.5381 104.506 28.5508C103.456 28.5635 102.57 28.671 101.848 28.8736C101.139 29.0761 100.601 29.3736 100.234 29.766C99.8671 30.1457 99.6835 30.6077 99.6835 31.152C99.6835 31.8988 99.962 32.4748 100.519 32.8798C101.076 33.2722 101.829 33.4684 102.778 33.4684C103.601 33.4684 104.342 33.3229 105 33.0317C105.658 32.7406 106.183 32.3165 106.576 31.7596C106.968 31.2026 107.164 30.5254 107.164 29.728V25.1331C107.164 24.3863 107.006 23.7344 106.69 23.1775C106.386 22.6079 105.905 22.1712 105.247 21.8674C104.588 21.5509 103.728 21.3927 102.664 21.3927C101.677 21.3927 100.69 21.5446 99.7025 21.8484C98.7279 22.1395 97.8355 22.5889 97.0254 23.1965L95.5634 19.3231C96.7912 18.5383 98.095 17.9687 99.4747 17.6143C100.854 17.2472 102.202 17.0637 103.519 17.0637C105.316 17.0637 106.886 17.3485 108.228 17.9181C109.569 18.4877 110.607 19.3674 111.342 20.5573C112.088 21.7345 112.462 23.2344 112.462 25.0572V37H107.639V34.8924C107.006 35.7532 106.139 36.4177 105.038 36.8861C103.937 37.3418 102.69 37.5696 101.297 37.5696ZM119.223 37L113.394 17.8232H118.805L122.223 30.6204L126.096 17.8232H131.28L134.982 30.6204L138.4 17.8232H143.583L137.754 37H132.191L128.583 24.6585L124.786 37H119.223Z" fill="#EFEFEF"/>
<path d="M20.8105 36.2975L20.5178 36.8435L20.8105 36.2975ZM17.108 32.7469L16.5729 33.0591L17.108 32.7469ZM16.5384 23.3294L15.9668 23.0903L15.9648 23.0953L16.5384 23.3294ZM18.7029 20.1206L19.1349 20.5647L19.135 20.5646L18.7029 20.1206ZM21.9877 18.013L22.2147 18.5895L22.2178 18.5883L21.9877 18.013ZM30.5508 18.127L30.294 18.6908L30.2961 18.6917L30.5508 18.127ZM33.7596 20.5763L33.2775 20.9654L33.2798 20.9683L33.7596 20.5763ZM35.5254 24.2408L34.9221 24.3821L34.9234 24.3872L35.5254 24.2408ZM35.6203 28.8166V29.4362H36.1438L36.2312 28.92L35.6203 28.8166ZM20.9244 28.8166V28.1971H20.3048V28.8166H20.9244ZM21.6079 31.133L21.0985 31.4857L21.1031 31.4922L21.6079 31.133ZM23.5636 32.69L23.3072 33.2541L23.3175 33.2585L23.5636 32.69ZM29.7154 32.7849L29.5373 32.1915L29.7154 32.7849ZM32.5824 31.3988L33.1398 31.1285L32.8247 30.4788L32.2305 30.8889L32.5824 31.3988ZM34.4241 35.1962L34.8024 35.6869L35.2015 35.3793L34.9816 34.9259L34.4241 35.1962ZM32.1457 36.4494L32.3703 37.0268L32.3772 37.0241L32.1457 36.4494ZM29.2407 37.2658L29.1279 36.6566L29.1192 36.6583L29.2407 37.2658ZM21.2472 25.0002L20.6315 24.9311L20.5541 25.6198H21.2472V25.0002ZM30.304 25.0002V25.6198H30.9447L30.9232 24.9794L30.304 25.0002ZM29.1078 22.3231L28.6981 22.7879L28.702 22.7913L29.1078 22.3231ZM22.7282 22.3231L22.3553 21.8283L22.3518 21.8309L22.7282 22.3231ZM26.3167 36.9501C24.3135 36.9501 22.5817 36.5439 21.1032 35.7514L20.5178 36.8435C22.2037 37.7472 24.1428 38.1892 26.3167 38.1892V36.9501ZM21.1032 35.7514C19.6196 34.9562 18.4703 33.8527 17.6432 32.4347L16.5729 33.0591C17.5178 34.6791 18.8369 35.9426 20.5178 36.8435L21.1032 35.7514ZM17.6432 32.4347C16.8206 31.0247 16.3985 29.3575 16.3985 27.4116H15.1594C15.1594 29.5416 15.6233 31.4312 16.5729 33.0591L17.6432 32.4347ZM16.3985 27.4116C16.3985 26.0024 16.6391 24.7222 17.112 23.5635L15.9648 23.0953C15.4251 24.4175 15.1594 25.8588 15.1594 27.4116H16.3985ZM17.1099 23.5685C17.5981 22.4017 18.2733 21.4027 19.1349 20.5647L18.271 19.6765C17.2845 20.6359 16.5166 21.7761 15.9669 23.0903L17.1099 23.5685ZM19.135 20.5646C20.011 19.7123 21.0356 19.054 22.2147 18.5895L21.7606 17.4366C20.4334 17.9594 19.2682 18.7061 18.2709 19.6765L19.135 20.5646ZM22.2178 18.5883C23.4031 18.1141 24.7101 17.8731 26.1458 17.8731V16.634C24.569 16.634 23.1039 16.8993 21.7576 17.4378L22.2178 18.5883ZM26.1458 17.8731C27.7312 17.8731 29.1094 18.1513 30.294 18.6908L30.8076 17.5631C29.4353 16.9381 27.8768 16.634 26.1458 16.634V17.8731ZM30.2961 18.6917C31.5032 19.2361 32.4934 19.9941 33.2775 20.9654L34.2417 20.1871C33.3296 19.0572 32.1806 18.1823 30.8055 17.5622L30.2961 18.6917ZM33.2798 20.9683C34.0637 21.9276 34.6129 23.0617 34.9222 24.382L36.1286 24.0995C35.7796 22.6097 35.1516 21.3008 34.2393 20.1843L33.2798 20.9683ZM34.9234 24.3872C35.2424 25.6988 35.276 27.138 35.0094 28.7132L36.2312 28.92C36.5215 27.2041 36.4919 25.5928 36.1274 24.0943L34.9234 24.3872ZM35.6203 28.1971H20.9244V29.4362H35.6203V28.1971ZM20.3048 28.8166C20.3048 29.8146 20.5635 30.7129 21.0985 31.4857L22.1173 30.7804C21.741 30.2367 21.5439 29.5907 21.5439 28.8166H20.3048ZM21.1031 31.4922C21.643 32.251 22.3861 32.8353 23.3072 33.254L23.82 32.1259C23.0702 31.7851 22.5095 31.3315 22.1127 30.7738L21.1031 31.4922ZM23.3175 33.2585C24.2583 33.6658 25.3324 33.8601 26.5255 33.8601V32.621C25.4655 32.621 24.565 32.4483 23.8097 32.1214L23.3175 33.2585ZM26.5255 33.8601C27.6965 33.8601 28.82 33.7003 29.8934 33.3783L29.5373 32.1915C28.5855 32.477 27.5824 32.621 26.5255 32.621V33.8601ZM29.8934 33.3783C30.97 33.0553 31.9841 32.5645 32.9343 31.9087L32.2305 30.8889C31.3832 31.4737 30.486 31.9069 29.5373 32.1915L29.8934 33.3783ZM32.0249 31.6692L33.8667 35.4666L34.9816 34.9259L33.1398 31.1285L32.0249 31.6692ZM34.0459 34.7055C33.4937 35.1312 32.787 35.5232 31.9142 35.8747L32.3772 37.0241C33.3271 36.6414 34.1394 36.1979 34.8024 35.6869L34.0459 34.7055ZM31.9211 35.872C31.0482 36.2114 30.1175 36.4734 29.1279 36.6566L29.3535 37.875C30.4144 37.6785 31.4204 37.3962 32.3702 37.0268L31.9211 35.872ZM29.1192 36.6583C28.1425 36.8536 27.2087 36.9501 26.3167 36.9501V38.1892C27.2981 38.1892 28.3136 38.0831 29.3622 37.8733L29.1192 36.6583ZM21.2472 25.6198H30.304V24.3807H21.2472V25.6198ZM30.9232 24.9794C30.8802 23.7037 30.4198 22.6403 29.5135 21.8549L28.702 22.7913C29.3147 23.3222 29.6518 24.0437 29.6848 25.0211L30.9232 24.9794ZM29.5174 21.8583C28.6252 21.0719 27.4307 20.7162 26.0129 20.7162V21.9553C27.228 21.9553 28.0968 22.2578 28.6981 22.7879L29.5174 21.8583ZM26.0129 20.7162C24.5901 20.7162 23.3566 21.0736 22.3553 21.8283L23.101 22.8178C23.8465 22.2561 24.8028 21.9553 26.0129 21.9553V20.7162ZM22.3518 21.8309C21.3502 22.5968 20.7759 23.6455 20.6315 24.9311L21.8628 25.0694C21.9716 24.1019 22.3846 23.3657 23.1045 22.8152L22.3518 21.8309ZM41.3656 36.2975L41.0462 36.8284L41.0517 36.8316L41.3656 36.2975ZM37.967 32.7089L37.4212 33.0021L37.4231 33.0056L37.967 32.7089ZM37.4353 23.4243L36.8585 23.1983L36.8565 23.2035L37.4353 23.4243ZM39.448 20.1965L39.9013 20.6188L39.448 20.1965ZM42.5049 18.032L42.2549 17.4651L42.5049 18.032ZM50.5364 18.1839L50.2523 18.7346L50.2593 18.7381L50.5364 18.1839ZM53.6692 20.8611L54.1106 21.2959L54.4828 20.9179L54.1668 20.4919L53.6692 20.8611ZM52.4161 22.1332H51.7965V23.645L52.8574 22.568L52.4161 22.1332ZM52.4161 9.65876V9.03921H51.7965V9.65876H52.4161ZM57.9603 9.65876H58.5798V9.03921H57.9603V9.65876ZM57.9603 37V37.6195H58.5798V37H57.9603ZM53.1376 37H52.518V37.6195H53.1376V37ZM53.1376 32.1393L53.6674 31.8182L52.518 29.9217V32.1393H53.1376ZM53.897 33.3925L54.4546 33.6626L54.6015 33.3595L54.4269 33.0714L53.897 33.3925ZM51.068 36.4114L51.386 36.9431L51.3898 36.9408L51.068 36.4114ZM49.9478 32.1203L50.2494 32.6616L50.2561 32.6577L49.9478 32.1203ZM51.7705 30.2596L51.2289 29.9587L51.7705 30.2596ZM51.7705 24.5635L51.2253 24.8578L51.2289 24.8644L51.7705 24.5635ZM49.9667 22.7218L49.6584 23.2592L49.6651 23.263L49.9667 22.7218ZM44.6884 22.7218L44.99 23.263L44.9967 23.2592L44.6884 22.7218ZM42.8656 24.5635L43.4072 24.8644H43.4072L42.8656 24.5635ZM42.8656 30.2596L43.4072 29.9587H43.4072L42.8656 30.2596ZM44.6884 32.1203L44.38 32.6578L44.3867 32.6615L44.6884 32.1203ZM46.3023 36.9501C44.5528 36.9501 43.0177 36.5498 41.6796 35.7634L41.0517 36.8316C42.5996 37.7413 44.3556 38.1892 46.3023 38.1892V36.9501ZM41.6851 35.7666C40.3534 34.9652 39.2961 33.8518 38.5109 32.4123L37.4231 33.0056C38.3087 34.6293 39.5172 35.9082 41.0462 36.8283L41.6851 35.7666ZM38.5128 32.4158C37.7453 30.987 37.3524 29.3247 37.3524 27.4116H36.1133C36.1133 29.4984 36.5432 31.3676 37.4212 33.0021L38.5128 32.4158ZM37.3524 27.4116C37.3524 26.05 37.575 24.7964 38.0142 23.6451L36.8565 23.2035C36.359 24.5078 36.1133 25.9125 36.1133 27.4116H37.3524ZM38.0122 23.6503C38.466 22.4918 39.0961 21.4833 39.9013 20.6188L38.9946 19.7742C38.0784 20.7579 37.3667 21.9011 36.8585 23.1983L38.0122 23.6503ZM39.9013 20.6188C40.7037 19.7575 41.653 19.0846 42.7548 18.5989L42.2549 17.4651C41.0023 18.0173 39.9138 18.7875 38.9946 19.7742L39.9013 20.6188ZM42.7548 18.5989C43.8455 18.1181 45.0567 17.8731 46.3972 17.8731V16.634C44.9023 16.634 43.5186 16.908 42.2549 17.4651L42.7548 18.5989ZM46.3972 17.8731C47.8703 17.8731 49.1501 18.166 50.2523 18.7345L50.8204 17.6333C49.5176 16.9614 48.038 16.634 46.3972 16.634V17.8731ZM50.2593 18.7381C51.3807 19.2988 52.3515 20.1249 53.1716 21.2302L54.1668 20.4919C53.2401 19.2429 52.1223 18.2842 50.8134 17.6298L50.2593 18.7381ZM53.2278 20.4263L51.9747 21.6984L52.8574 22.568L54.1106 21.2959L53.2278 20.4263ZM53.0356 22.1332V9.65876H51.7965V22.1332H53.0356ZM52.4161 10.2783H57.9603V9.03921H52.4161V10.2783ZM57.3407 9.65876V37H58.5798V9.65876H57.3407ZM57.9603 36.3805H53.1376V37.6195H57.9603V36.3805ZM53.7571 37V32.1393H52.518V37H53.7571ZM52.6077 32.4604L53.3672 33.7136L54.4269 33.0714L53.6674 31.8182L52.6077 32.4604ZM53.3395 33.1223C52.8021 34.2315 51.9467 35.1522 50.7462 35.882L51.3898 36.9408C52.7715 36.101 53.8022 35.0091 54.4546 33.6626L53.3395 33.1223ZM50.75 35.8797C49.5766 36.5814 48.1044 36.9501 46.3023 36.9501V38.1892C48.2722 38.1892 49.9772 37.7856 51.386 36.9431L50.75 35.8797ZM47.3276 33.3855C48.3967 33.3855 49.3758 33.1484 50.2494 32.6615L49.6461 31.5792C48.9754 31.953 48.2077 32.1464 47.3276 32.1464V33.3855ZM50.2561 32.6577C51.1286 32.1571 51.8157 31.454 52.3121 30.5605L51.2289 29.9587C50.8392 30.6602 50.3112 31.1975 49.6394 31.583L50.2561 32.6577ZM52.3121 30.5605C52.8159 29.6537 53.0546 28.5964 53.0546 27.4116H51.8155C51.8155 28.4293 51.6112 29.2706 51.2289 29.9587L52.3121 30.5605ZM53.0546 27.4116C53.0546 26.2268 52.8159 25.1694 52.3121 24.2627L51.2289 24.8644C51.6112 25.5525 51.8155 26.3939 51.8155 27.4116H53.0546ZM52.3157 24.2693C51.8308 23.3708 51.1463 22.6699 50.2684 22.1806L49.6651 23.263C50.3315 23.6344 50.8495 24.1614 51.2253 24.8578L52.3157 24.2693ZM50.2751 22.1844C49.3991 21.6818 48.411 21.4377 47.3276 21.4377V22.6768C48.2188 22.6768 48.9901 22.8757 49.6584 23.2592L50.2751 22.1844ZM47.3276 21.4377C46.2441 21.4377 45.256 21.6818 44.38 22.1844L44.9967 23.2592C45.665 22.8757 46.4363 22.6768 47.3276 22.6768V21.4377ZM44.3867 22.1806C43.5105 22.6691 42.8212 23.3677 42.324 24.2627L43.4072 24.8644C43.7961 24.1644 44.322 23.6353 44.99 23.263L44.3867 22.1806ZM42.324 24.2627C41.8203 25.1694 41.5815 26.2268 41.5815 27.4116H42.8206C42.8206 26.3939 43.0249 25.5525 43.4072 24.8644L42.324 24.2627ZM41.5815 27.4116C41.5815 28.5964 41.8203 29.6537 42.324 30.5605L43.4072 29.9587C43.0249 29.2706 42.8206 28.4293 42.8206 27.4116H41.5815ZM42.324 30.5605C42.8204 31.454 43.5076 32.1571 44.38 32.6577L44.9967 31.583C44.3249 31.1975 43.7969 30.6602 43.4072 29.9587L42.324 30.5605ZM44.3867 32.6615C45.2615 33.1491 46.2472 33.3855 47.3276 33.3855V32.1464C46.4332 32.1464 45.6595 31.9524 44.99 31.5792L44.3867 32.6615ZM61.8214 37H61.2019V37.6195H61.8214V37ZM61.8214 17.8232V17.2036H61.2019V17.8232H61.8214ZM67.3656 17.8232H67.9852V17.2036H67.3656V17.8232ZM67.3656 37V37.6195H67.9852V37H67.3656ZM62.2012 13.9308L61.7951 14.3988L61.8002 14.4031L62.2012 13.9308ZM62.2012 9.29801L62.6022 9.77031L62.6073 9.7659L62.2012 9.29801ZM66.9859 9.29801L66.5798 9.76593L66.5849 9.77028L66.9859 9.29801ZM66.9859 13.9308L67.3869 14.4031L67.392 14.3987L66.9859 13.9308ZM62.441 37V17.8232H61.2019V37H62.441ZM61.8214 18.4427H67.3656V17.2036H61.8214V18.4427ZM66.7461 17.8232V37H67.9852V17.8232H66.7461ZM67.3656 36.3805H61.8214V37.6195H67.3656V36.3805ZM64.5935 14.1657C63.8084 14.1657 63.1551 13.928 62.6022 13.4586L61.8002 14.4031C62.589 15.0728 63.5306 15.4048 64.5935 15.4048V14.1657ZM62.6073 13.4629C62.0842 13.0089 61.8144 12.4137 61.8144 11.6144H60.5753C60.5753 12.7391 60.9764 13.6882 61.7951 14.3987L62.6073 13.4629ZM61.8144 11.6144C61.8144 10.7996 62.0859 10.2086 62.6022 9.77028L61.8002 8.82573C60.9747 9.5266 60.5753 10.4799 60.5753 11.6144H61.8144ZM62.6073 9.7659C63.1606 9.28565 63.8122 9.04416 64.5935 9.04416V7.80506C63.5268 7.80506 62.5835 8.14583 61.7951 8.83011L62.6073 9.7659ZM64.5935 9.04416C65.3749 9.04416 66.0265 9.28565 66.5798 9.7659L67.392 8.83011C66.6036 8.14583 65.6602 7.80506 64.5935 7.80506V9.04416ZM66.5849 9.77028C67.1012 10.2086 67.3727 10.7996 67.3727 11.6144H68.6118C68.6118 10.4799 68.2124 9.5266 67.3869 8.82573L66.5849 9.77028ZM67.3727 11.6144C67.3727 12.4137 67.1029 13.0089 66.5798 13.4629L67.392 14.3987C68.2107 13.6882 68.6118 12.7391 68.6118 11.6144H67.3727ZM66.5849 13.4586C66.0319 13.928 65.3786 14.1657 64.5935 14.1657V15.4048C65.6565 15.4048 66.5981 15.0728 67.3869 14.4031L66.5849 13.4586ZM74.6979 35.8418L74.2621 36.2823L74.2669 36.2869L74.6979 35.8418ZM72.9321 12.2979V11.6784H72.3125V12.2979H72.9321ZM78.4763 12.2979H79.0958V11.6784H78.4763V12.2979ZM78.4763 17.8232H77.8567V18.4427H78.4763V17.8232ZM83.242 17.8232H83.8616V17.2036H83.242V17.8232ZM83.242 22.2661V22.8857H83.8616V22.2661H83.242ZM78.4763 22.2661V21.6466H77.8567V22.2661H78.4763ZM79.1788 31.9495L78.7467 32.3935L79.1788 31.9495ZM82.2357 32.5001L82.3765 33.1034L82.3835 33.1018L82.3905 33.1L82.2357 32.5001ZM83.318 32.0824L83.9279 31.9736L83.7777 31.1312L83.0242 31.5369L83.318 32.0824ZM84.0964 36.4494L84.3973 36.991L84.784 36.7761L84.7064 36.3407L84.0964 36.4494ZM82.0458 37.2468L81.8844 36.6487L81.882 36.6493L82.0458 37.2468ZM69.0397 22.2661H68.4202V22.8857H69.0397V22.2661ZM69.0397 17.8232V17.2036H68.4202V17.8232H69.0397ZM73.4827 17.8232H74.1022V17.2036H73.4827V17.8232ZM73.4827 22.2661V22.8857H74.1022V22.2661H73.4827ZM79.5585 36.9501C77.6284 36.9501 76.177 36.4114 75.1288 35.3967L74.2669 36.2869C75.5984 37.5759 77.3875 38.1892 79.5585 38.1892V36.9501ZM75.1336 35.4013C74.1156 34.3943 73.5516 32.8281 73.5516 30.5824H72.3125C72.3125 33.0202 72.9258 34.9602 74.2622 36.2822L75.1336 35.4013ZM73.5516 30.5824V12.2979H72.3125V30.5824H73.5516ZM72.9321 12.9175H78.4763V11.6784H72.9321V12.9175ZM77.8567 12.2979V17.8232H79.0958V12.2979H77.8567ZM78.4763 18.4427H83.242V17.2036H78.4763V18.4427ZM82.6225 17.8232V22.2661H83.8616V17.8232H82.6225ZM83.242 21.6466H78.4763V22.8857H83.242V21.6466ZM77.8567 22.2661V29.5761H79.0958V22.2661H77.8567ZM77.8567 29.5761C77.8567 30.7567 78.0963 31.7607 78.7467 32.3935L79.6108 31.5054C79.3246 31.2269 79.0958 30.6487 79.0958 29.5761H77.8567ZM78.7467 32.3935C79.3534 32.9837 80.1469 33.2525 81.0585 33.2525V32.0134C80.4005 32.0134 79.9409 31.8266 79.6108 31.5054L78.7467 32.3935ZM81.0585 33.2525C81.5091 33.2525 81.9488 33.2032 82.3765 33.1034L82.0949 31.8967C81.7631 31.9742 81.418 32.0134 81.0585 32.0134V33.2525ZM82.3905 33.1C82.8272 32.9873 83.2351 32.8306 83.6117 32.6279L83.0242 31.5369C82.7426 31.6885 82.429 31.8104 82.0809 31.9002L82.3905 33.1ZM82.708 32.1911L83.4865 36.5581L84.7064 36.3407L83.9279 31.9736L82.708 32.1911ZM83.7955 35.9078C83.2798 36.1943 82.6455 36.4433 81.8844 36.6487L82.2072 37.845C83.041 37.62 83.7738 37.3374 84.3973 36.991L83.7955 35.9078ZM81.882 36.6493C81.1543 36.8489 80.3806 36.9501 79.5585 36.9501V38.1892C80.4832 38.1892 81.3677 38.0752 82.2097 37.8443L81.882 36.6493ZM69.6593 22.2661V17.8232H68.4202V22.2661H69.6593ZM69.0397 18.4427H73.4827V17.2036H69.0397V18.4427ZM72.8632 17.8232V22.2661H74.1022V17.8232H72.8632ZM73.4827 21.6466H69.0397V22.8857H73.4827V21.6466ZM86.5223 37H85.9027V37.6195H86.5223V37ZM86.5223 9.65876V9.03921H85.9027V9.65876H86.5223ZM92.0665 9.65876H92.686V9.03921H92.0665V9.65876ZM92.0665 37V37.6195H92.686V37H92.0665ZM87.1418 37V9.65876H85.9027V37H87.1418ZM86.5223 10.2783H92.0665V9.03921H86.5223V10.2783ZM91.4469 9.65876V37H92.686V9.65876H91.4469ZM92.0665 36.3805H86.5223V37.6195H92.0665V36.3805ZM97.8418 36.8291L98.1133 36.2722L97.8418 36.8291ZM95.4494 34.7216L94.9253 35.0519L94.9273 35.0551L95.4494 34.7216ZM95.3925 28.5128L94.8711 28.1782L95.3925 28.5128ZM97.8608 26.4243L98.1353 26.9797L98.1379 26.9784L97.8608 26.4243ZM102.076 25.304L102.145 25.9197L102.149 25.9193L102.076 25.304ZM108.114 25.342L108.733 25.332L108.724 24.7795L108.174 24.7254L108.114 25.342ZM108.171 28.8736L108.07 29.4848L108.802 29.6058L108.79 28.8636L108.171 28.8736ZM104.506 28.5508L104.499 27.9313H104.499L104.506 28.5508ZM101.848 28.8736L101.681 28.2771L101.678 28.2779L101.848 28.8736ZM100.234 29.766L100.68 30.1966L100.687 30.1892L100.234 29.766ZM100.519 32.8798L100.155 33.3809L100.162 33.3863L100.519 32.8798ZM105 33.0317L104.749 32.4651L105 33.0317ZM106.576 31.7596L106.069 31.4028L106.576 31.7596ZM106.69 23.1775L106.143 23.469L106.147 23.4763L106.151 23.4835L106.69 23.1775ZM105.247 21.8674L104.978 22.4258L104.987 22.4299L105.247 21.8674ZM99.7025 21.8484L99.8798 22.442L99.8847 22.4405L99.7025 21.8484ZM97.0254 23.1965L96.4457 23.4153L96.7371 24.1871L97.3971 23.6921L97.0254 23.1965ZM95.5634 19.3231L95.2297 18.8011L94.8063 19.0718L94.9837 19.5419L95.5634 19.3231ZM99.4747 17.6143L99.6288 18.2144L99.634 18.213L99.4747 17.6143ZM108.228 17.9181L107.986 18.4884L108.228 17.9181ZM111.342 20.5573L110.814 20.8826L110.818 20.8892L111.342 20.5573ZM112.462 37V37.6195H113.081V37H112.462ZM107.639 37H107.02V37.6195H107.639V37ZM107.639 34.8924H108.259V33.004L107.14 34.5254L107.639 34.8924ZM105.038 36.8861L105.275 37.4586L105.28 37.4562L105.038 36.8861ZM101.297 36.9501C100.087 36.9501 99.0298 36.719 98.1133 36.2722L97.5703 37.386C98.6791 37.9265 99.926 38.1892 101.297 38.1892V36.9501ZM98.1133 36.2722C97.1987 35.8263 96.4898 35.1992 95.9715 34.388L94.9273 35.0551C95.5736 36.0667 96.4596 36.8446 97.5703 37.386L98.1133 36.2722ZM95.9736 34.3913C95.4636 33.582 95.1956 32.5997 95.1956 31.4178H93.9565C93.9565 32.7929 94.2707 34.0131 94.9253 35.0519L95.9736 34.3913ZM95.1956 31.4178C95.1956 30.438 95.4388 29.5877 95.9139 28.8475L94.8711 28.1782C94.2575 29.1342 93.9565 30.2205 93.9565 31.4178H95.1956ZM95.9139 28.8475C96.3854 28.1128 97.1128 27.485 98.1353 26.9797L97.5863 25.8688C96.4063 26.4521 95.4881 27.2167 94.8711 28.1782L95.9139 28.8475ZM98.1379 26.9784C99.1673 26.4637 100.496 26.1043 102.145 25.9197L102.007 24.6883C100.263 24.8835 98.7821 25.2709 97.5837 25.8701L98.1379 26.9784ZM102.149 25.9193C103.801 25.7235 105.767 25.7337 108.053 25.9586L108.174 24.7254C105.828 24.4946 103.769 24.4795 102.003 24.6888L102.149 25.9193ZM107.494 25.352L107.551 28.8836L108.79 28.8636L108.733 25.332L107.494 25.352ZM108.272 28.2623C106.867 28.0303 105.608 27.9181 104.499 27.9313L104.514 29.1703C105.531 29.1582 106.715 29.2612 108.07 29.4848L108.272 28.2623ZM104.499 27.9313C103.414 27.9444 102.47 28.0554 101.681 28.2771L102.015 29.4701C102.669 29.2867 103.497 29.1825 104.514 29.1703L104.499 27.9313ZM101.678 28.2779C100.9 28.5002 100.249 28.8433 99.7817 29.3427L100.687 30.1892C100.954 29.9039 101.379 29.652 102.018 29.4693L101.678 28.2779ZM99.7887 29.3354C99.3062 29.8345 99.064 30.4525 99.064 31.152H100.303C100.303 30.7629 100.428 30.4569 100.68 30.1966L99.7887 29.3354ZM99.064 31.152C99.064 32.0775 99.4221 32.8482 100.155 33.3809L100.883 32.3788C100.502 32.1013 100.303 31.7201 100.303 31.152H99.064ZM100.162 33.3863C100.857 33.8761 101.75 34.088 102.778 34.088V32.8489C101.908 32.8489 101.294 32.6683 100.876 32.3734L100.162 33.3863ZM102.778 34.088C103.675 34.088 104.503 33.929 105.25 33.5983L104.749 32.4651C104.181 32.7167 103.527 32.8489 102.778 32.8489V34.088ZM105.25 33.5983C106.005 33.2644 106.621 32.7705 107.082 32.1164L106.069 31.4028C105.745 31.8626 105.311 32.2168 104.749 32.4651L105.25 33.5983ZM107.082 32.1164C107.56 31.4381 107.784 30.6308 107.784 29.728H106.545C106.545 30.4201 106.376 30.9672 106.069 31.4028L107.082 32.1164ZM107.784 29.728V25.1331H106.545V29.728H107.784ZM107.784 25.1331C107.784 24.297 107.606 23.5361 107.228 22.8714L106.151 23.4835C106.406 23.9327 106.545 24.4757 106.545 25.1331H107.784ZM107.236 22.8859C106.861 22.1826 106.271 21.6579 105.506 21.3049L104.987 22.4299C105.538 22.6844 105.911 23.0332 106.143 23.469L107.236 22.8859ZM105.515 21.309C104.744 20.9382 103.782 20.7732 102.664 20.7732V22.0123C103.674 22.0123 104.433 22.1637 104.978 22.4258L105.515 21.309ZM102.664 20.7732C101.613 20.7732 100.564 20.9351 99.5203 21.2562L99.8847 22.4405C100.816 22.1541 101.742 22.0123 102.664 22.0123V20.7732ZM99.5252 21.2548C98.4808 21.5667 97.5225 22.0492 96.6536 22.7008L97.3971 23.6921C98.1484 23.1286 98.9749 22.7123 99.8798 22.442L99.5252 21.2548ZM97.605 22.9777L96.143 19.1043L94.9837 19.5419L96.4457 23.4153L97.605 22.9777ZM95.897 19.8452C97.0708 19.0949 98.3142 18.5521 99.6288 18.2144L99.3205 17.0142C97.8757 17.3854 96.5116 17.9818 95.2297 18.8011L95.897 19.8452ZM99.634 18.213C100.966 17.8586 102.261 17.6832 103.519 17.6832V16.4441C102.144 16.4441 100.743 16.6358 99.3154 17.0156L99.634 18.213ZM103.519 17.6832C105.252 17.6832 106.736 17.9579 107.986 18.4884L108.47 17.3478C107.036 16.7391 105.381 16.4441 103.519 16.4441V17.6832ZM107.986 18.4884C109.215 19.0101 110.15 19.8068 110.814 20.8826L111.869 20.232C111.064 18.928 109.924 17.9653 108.47 17.3478L107.986 18.4884ZM110.818 20.8892C111.486 21.9409 111.842 23.3165 111.842 25.0572H113.081C113.081 23.1524 112.691 21.528 111.865 20.2254L110.818 20.8892ZM111.842 25.0572V37H113.081V25.0572H111.842ZM112.462 36.3805H107.639V37.6195H112.462V36.3805ZM108.259 37V34.8924H107.02V37H108.259ZM107.14 34.5254C106.58 35.2863 105.807 35.8857 104.795 36.3159L105.28 37.4562C106.471 36.9497 107.432 36.2201 108.138 35.2595L107.14 34.5254ZM104.801 36.3136C103.786 36.7334 102.622 36.9501 101.297 36.9501V38.1892C102.758 38.1892 104.087 37.9501 105.275 37.4585L104.801 36.3136ZM119.223 37L118.63 37.1802L118.764 37.6195H119.223V37ZM113.394 17.8232V17.2036H112.558L112.801 18.0033L113.394 17.8232ZM118.805 17.8232L119.404 17.6633L119.281 17.2036H118.805V17.8232ZM122.223 30.6204L121.624 30.7802L122.186 32.8821L122.816 30.7999L122.223 30.6204ZM126.096 17.8232V17.2036H125.636L125.503 17.6437L126.096 17.8232ZM131.28 17.8232L131.875 17.651L131.745 17.2036H131.28V17.8232ZM134.982 30.6204L134.387 30.7926L135.006 32.9321L135.581 30.7802L134.982 30.6204ZM138.4 17.8232V17.2036H137.924L137.801 17.6633L138.4 17.8232ZM143.583 17.8232L144.176 18.0033L144.419 17.2036H143.583V17.8232ZM137.754 37V37.6195H138.213L138.347 37.1802L137.754 37ZM132.191 37L131.596 37.1738L131.727 37.6195H132.191V37ZM128.583 24.6585L129.178 24.4846L128.599 22.5023L127.991 24.4763L128.583 24.6585ZM124.786 37V37.6195H125.244L125.378 37.1822L124.786 37ZM119.816 36.8198L113.987 17.643L112.801 18.0033L118.63 37.1802L119.816 36.8198ZM113.394 18.4427H118.805V17.2036H113.394V18.4427ZM118.207 17.983L121.624 30.7802L122.821 30.4605L119.404 17.6633L118.207 17.983ZM122.816 30.7999L126.689 18.0026L125.503 17.6437L121.63 30.4409L122.816 30.7999ZM126.096 18.4427H131.28V17.2036H126.096V18.4427ZM130.684 17.9953L134.387 30.7926L135.577 30.4482L131.875 17.651L130.684 17.9953ZM135.581 30.7802L138.998 17.983L137.801 17.6633L134.384 30.4605L135.581 30.7802ZM138.4 18.4427H143.583V17.2036H138.4V18.4427ZM142.99 17.643L137.161 36.8198L138.347 37.1802L144.176 18.0033L142.99 17.643ZM137.754 36.3805H132.191V37.6195H137.754V36.3805ZM132.786 36.8262L129.178 24.4846L127.989 24.8323L131.596 37.1738L132.786 36.8262ZM127.991 24.4763L124.194 36.8178L125.378 37.1822L129.176 24.8407L127.991 24.4763ZM124.786 36.3805H119.223V37.6195H124.786V36.3805Z" fill="#EFEFEF" mask="url(#path-3-outside-1_26_3073)"/>
</svg>
