<svg width="231" height="75" viewBox="0 0 231 75" fill="none" xmlns="http://www.w3.org/2000/svg">
<path fill-rule="evenodd" clip-rule="evenodd" d="M41.1871 21.2704C38.1587 21.2704 35.16 21.8668 32.3622 23.0257C29.5644 24.1846 27.0222 25.8833 24.8808 28.0246C22.7395 30.166 21.0408 32.7082 19.8819 35.506C18.723 38.3038 18.1266 41.3025 18.1266 44.3309L9.70264 44.3309C9.70264 40.1963 10.517 36.1022 12.0992 32.2823C13.6815 28.4624 16.0006 24.9916 18.9242 22.068C21.8478 19.1444 25.3186 16.8253 29.1385 15.243C32.9584 13.6608 37.0525 12.8464 41.1871 12.8464V21.2704Z" fill="#45C907"/>
<path fill-rule="evenodd" clip-rule="evenodd" d="M4.99889 35.506C3.83999 32.7081 2.14136 30.166 0 28.0246L5.95661 22.068C8.88021 24.9916 11.1993 28.4624 12.7816 32.2823C14.3638 36.1021 15.1782 40.1962 15.1782 44.3308H6.75426C6.75426 41.3025 6.15778 38.3038 4.99889 35.506Z" fill="#45C907"/>
<mask id="path-3-outside-1_26_460" maskUnits="userSpaceOnUse" x="23.3916" y="12" width="209" height="49" fill="black">
<rect fill="white" x="23.3916" y="12" width="209" height="49"/>
<path d="M42.1415 59.9161C38.7824 59.9161 35.8305 59.2341 33.2857 57.8701C30.7409 56.5061 28.756 54.6026 27.3309 52.1596C25.9058 49.7167 25.1933 46.8563 25.1933 43.5787C25.1933 41.1968 25.6005 39.0083 26.4148 37.0132C27.2495 35.0181 28.4099 33.2978 29.896 31.8524C31.4025 30.3866 33.1635 29.2567 35.179 28.4627C37.2148 27.6484 39.444 27.2412 41.8667 27.2412C44.5336 27.2412 46.8951 27.7095 48.9513 28.6459C51.0278 29.5824 52.7481 30.8955 54.1121 32.5852C55.4761 34.2546 56.4228 36.2192 56.9521 38.4789C57.5018 40.7387 57.5526 43.1919 57.1048 45.8384H33.4689C33.4689 47.2635 33.8354 48.5054 34.5682 49.564C35.3215 50.6226 36.3699 51.4573 37.7136 52.068C39.0776 52.6584 40.6655 52.9536 42.4774 52.9536C44.2689 52.9536 45.979 52.7093 47.6077 52.2207C49.2363 51.7321 50.7734 50.9891 52.2188 49.9915L55.1809 56.099C54.2037 56.8522 52.9822 57.524 51.5164 58.1144C50.0507 58.6844 48.4933 59.1221 46.8442 59.4275C45.2156 59.7533 43.648 59.9161 42.1415 59.9161ZM33.988 39.7004H48.5543C48.4933 37.8886 47.852 36.4533 46.6305 35.3947C45.4293 34.3361 43.7702 33.8067 41.6529 33.8067C39.5356 33.8067 37.7747 34.3361 36.3699 35.3947C34.9856 36.4533 34.1916 37.8886 33.988 39.7004ZM74.2848 59.9161C71.3126 59.9161 68.666 59.2341 66.3452 57.8701C64.0447 56.4858 62.2226 54.5619 60.879 52.0986C59.5557 49.6352 58.8941 46.7953 58.8941 43.5787C58.8941 41.2782 59.2707 39.1406 60.0239 37.1658C60.7975 35.1911 61.8765 33.4606 63.2609 31.9745C64.6452 30.4884 66.2841 29.3279 68.1774 28.4933C70.0707 27.6586 72.1574 27.2412 74.4375 27.2412C76.9416 27.2412 79.1606 27.74 81.0947 28.7375C83.0491 29.7147 84.7286 31.15 86.1333 33.0433L84.1179 35.0893V15.0263H93.0347V59H85.2783V51.1825L86.4998 53.1979C85.5429 55.1727 84.0262 56.7911 81.9497 58.0533C79.8732 59.2952 77.3182 59.9161 74.2848 59.9161ZM75.9339 52.1902C77.5014 52.1902 78.9062 51.8441 80.148 51.1519C81.3899 50.4394 82.3671 49.4418 83.0796 48.1593C83.7921 46.8767 84.1484 45.3498 84.1484 43.5787C84.1484 41.8075 83.7921 40.2806 83.0796 38.9981C82.3874 37.7155 81.4204 36.7281 80.1785 36.036C78.9367 35.3234 77.5218 34.9672 75.9339 34.9672C74.3459 34.9672 72.931 35.3234 71.6892 36.036C70.4473 36.7281 69.4701 37.7155 68.7576 38.9981C68.0451 40.2806 67.6888 41.8075 67.6888 43.5787C67.6888 45.3498 68.0451 46.8767 68.7576 48.1593C69.4701 49.4418 70.4473 50.4394 71.6892 51.1519C72.931 51.8441 74.3459 52.1902 75.9339 52.1902ZM99.2448 59V28.1573H108.162V59H99.2448ZM103.703 23.2714C102.217 23.2714 100.935 22.8133 99.8555 21.8972C98.7765 20.9607 98.2371 19.7189 98.2371 18.1716C98.2371 16.6041 98.7765 15.3622 99.8555 14.4461C100.935 13.5096 102.217 13.0414 103.703 13.0414C105.189 13.0414 106.472 13.5096 107.551 14.4461C108.63 15.3622 109.169 16.6041 109.169 18.1716C109.169 19.7189 108.63 20.9607 107.551 21.8972C106.472 22.8133 105.189 23.2714 103.703 23.2714ZM127.772 59.9161C124.474 59.9161 121.868 58.9898 119.954 57.1372C118.061 55.2643 117.114 52.4447 117.114 48.6784V19.271H126.031V28.1573H133.696V35.3031H126.031V47.0599C126.031 48.8718 126.408 50.1442 127.161 50.8771C127.914 51.61 128.922 51.9764 130.184 51.9764C130.836 51.9764 131.467 51.9052 132.078 51.7627C132.709 51.5998 133.289 51.3759 133.818 51.0908L135.07 58.1144C134.154 58.6234 133.055 59.0509 131.772 59.397C130.51 59.7431 129.177 59.9161 127.772 59.9161ZM110.854 35.3031V28.1573H118V35.3031H110.854ZM138.972 59V15.0263H147.889V59H138.972ZM162.735 59.9161C160.659 59.9161 158.806 59.5191 157.177 58.7252C155.549 57.9312 154.266 56.8013 153.33 55.3355C152.393 53.8494 151.925 52.0782 151.925 50.022C151.925 48.2712 152.363 46.7138 153.238 45.3498C154.113 43.9858 155.437 42.8661 157.208 41.9907C158.999 41.095 161.259 40.4944 163.987 40.189C166.736 39.8633 169.972 39.8837 173.698 40.2501L173.79 45.93C171.571 45.5636 169.606 45.3905 167.896 45.4109C166.206 45.4313 164.781 45.6043 163.621 45.93C162.481 46.2558 161.615 46.7342 161.025 47.3653C160.435 47.976 160.139 48.7191 160.139 49.5945C160.139 50.7956 160.587 51.7219 161.483 52.3734C162.379 53.0045 163.59 53.3201 165.117 53.3201C166.44 53.3201 167.631 53.0859 168.69 52.6177C169.749 52.1495 170.593 51.4675 171.225 50.5717C171.856 49.6759 172.171 48.5868 172.171 47.3042V39.9142C172.171 38.7131 171.917 37.6646 171.408 36.7689C170.919 35.8527 170.146 35.1504 169.087 34.6618C168.028 34.1528 166.644 33.8984 164.934 33.8984C163.346 33.8984 161.758 34.1426 160.17 34.6312C158.602 35.0995 157.167 35.8222 155.864 36.7994L153.513 30.5698C155.488 29.3076 157.585 28.3915 159.804 27.8214C162.023 27.231 164.191 26.9358 166.308 26.9358C169.199 26.9358 171.723 27.3939 173.881 28.31C176.039 29.2261 177.709 30.641 178.889 32.5547C180.09 34.448 180.691 36.8605 180.691 39.792V59H172.935V55.6104C171.917 56.9947 170.522 58.0635 168.751 58.8168C166.98 59.5497 164.975 59.9161 162.735 59.9161ZM191.565 59L182.19 28.1573H190.893L196.39 48.7395L202.62 28.1573H210.956L216.911 48.7395L222.408 28.1573H230.745L221.37 59H212.422L206.62 39.1508L200.513 59H191.565Z"/>
</mask>
<path d="M42.1415 59.9161C38.7824 59.9161 35.8305 59.2341 33.2857 57.8701C30.7409 56.5061 28.756 54.6026 27.3309 52.1596C25.9058 49.7167 25.1933 46.8563 25.1933 43.5787C25.1933 41.1968 25.6005 39.0083 26.4148 37.0132C27.2495 35.0181 28.4099 33.2978 29.896 31.8524C31.4025 30.3866 33.1635 29.2567 35.179 28.4627C37.2148 27.6484 39.444 27.2412 41.8667 27.2412C44.5336 27.2412 46.8951 27.7095 48.9513 28.6459C51.0278 29.5824 52.7481 30.8955 54.1121 32.5852C55.4761 34.2546 56.4228 36.2192 56.9521 38.4789C57.5018 40.7387 57.5526 43.1919 57.1048 45.8384H33.4689C33.4689 47.2635 33.8354 48.5054 34.5682 49.564C35.3215 50.6226 36.3699 51.4573 37.7136 52.068C39.0776 52.6584 40.6655 52.9536 42.4774 52.9536C44.2689 52.9536 45.979 52.7093 47.6077 52.2207C49.2363 51.7321 50.7734 50.9891 52.2188 49.9915L55.1809 56.099C54.2037 56.8522 52.9822 57.524 51.5164 58.1144C50.0507 58.6844 48.4933 59.1221 46.8442 59.4275C45.2156 59.7533 43.648 59.9161 42.1415 59.9161ZM33.988 39.7004H48.5543C48.4933 37.8886 47.852 36.4533 46.6305 35.3947C45.4293 34.3361 43.7702 33.8067 41.6529 33.8067C39.5356 33.8067 37.7747 34.3361 36.3699 35.3947C34.9856 36.4533 34.1916 37.8886 33.988 39.7004ZM74.2848 59.9161C71.3126 59.9161 68.666 59.2341 66.3452 57.8701C64.0447 56.4858 62.2226 54.5619 60.879 52.0986C59.5557 49.6352 58.8941 46.7953 58.8941 43.5787C58.8941 41.2782 59.2707 39.1406 60.0239 37.1658C60.7975 35.1911 61.8765 33.4606 63.2609 31.9745C64.6452 30.4884 66.2841 29.3279 68.1774 28.4933C70.0707 27.6586 72.1574 27.2412 74.4375 27.2412C76.9416 27.2412 79.1606 27.74 81.0947 28.7375C83.0491 29.7147 84.7286 31.15 86.1333 33.0433L84.1179 35.0893V15.0263H93.0347V59H85.2783V51.1825L86.4998 53.1979C85.5429 55.1727 84.0262 56.7911 81.9497 58.0533C79.8732 59.2952 77.3182 59.9161 74.2848 59.9161ZM75.9339 52.1902C77.5014 52.1902 78.9062 51.8441 80.148 51.1519C81.3899 50.4394 82.3671 49.4418 83.0796 48.1593C83.7921 46.8767 84.1484 45.3498 84.1484 43.5787C84.1484 41.8075 83.7921 40.2806 83.0796 38.9981C82.3874 37.7155 81.4204 36.7281 80.1785 36.036C78.9367 35.3234 77.5218 34.9672 75.9339 34.9672C74.3459 34.9672 72.931 35.3234 71.6892 36.036C70.4473 36.7281 69.4701 37.7155 68.7576 38.9981C68.0451 40.2806 67.6888 41.8075 67.6888 43.5787C67.6888 45.3498 68.0451 46.8767 68.7576 48.1593C69.4701 49.4418 70.4473 50.4394 71.6892 51.1519C72.931 51.8441 74.3459 52.1902 75.9339 52.1902ZM99.2448 59V28.1573H108.162V59H99.2448ZM103.703 23.2714C102.217 23.2714 100.935 22.8133 99.8555 21.8972C98.7765 20.9607 98.2371 19.7189 98.2371 18.1716C98.2371 16.6041 98.7765 15.3622 99.8555 14.4461C100.935 13.5096 102.217 13.0414 103.703 13.0414C105.189 13.0414 106.472 13.5096 107.551 14.4461C108.63 15.3622 109.169 16.6041 109.169 18.1716C109.169 19.7189 108.63 20.9607 107.551 21.8972C106.472 22.8133 105.189 23.2714 103.703 23.2714ZM127.772 59.9161C124.474 59.9161 121.868 58.9898 119.954 57.1372C118.061 55.2643 117.114 52.4447 117.114 48.6784V19.271H126.031V28.1573H133.696V35.3031H126.031V47.0599C126.031 48.8718 126.408 50.1442 127.161 50.8771C127.914 51.61 128.922 51.9764 130.184 51.9764C130.836 51.9764 131.467 51.9052 132.078 51.7627C132.709 51.5998 133.289 51.3759 133.818 51.0908L135.07 58.1144C134.154 58.6234 133.055 59.0509 131.772 59.397C130.51 59.7431 129.177 59.9161 127.772 59.9161ZM110.854 35.3031V28.1573H118V35.3031H110.854ZM138.972 59V15.0263H147.889V59H138.972ZM162.735 59.9161C160.659 59.9161 158.806 59.5191 157.177 58.7252C155.549 57.9312 154.266 56.8013 153.33 55.3355C152.393 53.8494 151.925 52.0782 151.925 50.022C151.925 48.2712 152.363 46.7138 153.238 45.3498C154.113 43.9858 155.437 42.8661 157.208 41.9907C158.999 41.095 161.259 40.4944 163.987 40.189C166.736 39.8633 169.972 39.8837 173.698 40.2501L173.79 45.93C171.571 45.5636 169.606 45.3905 167.896 45.4109C166.206 45.4313 164.781 45.6043 163.621 45.93C162.481 46.2558 161.615 46.7342 161.025 47.3653C160.435 47.976 160.139 48.7191 160.139 49.5945C160.139 50.7956 160.587 51.7219 161.483 52.3734C162.379 53.0045 163.59 53.3201 165.117 53.3201C166.44 53.3201 167.631 53.0859 168.69 52.6177C169.749 52.1495 170.593 51.4675 171.225 50.5717C171.856 49.6759 172.171 48.5868 172.171 47.3042V39.9142C172.171 38.7131 171.917 37.6646 171.408 36.7689C170.919 35.8527 170.146 35.1504 169.087 34.6618C168.028 34.1528 166.644 33.8984 164.934 33.8984C163.346 33.8984 161.758 34.1426 160.17 34.6312C158.602 35.0995 157.167 35.8222 155.864 36.7994L153.513 30.5698C155.488 29.3076 157.585 28.3915 159.804 27.8214C162.023 27.231 164.191 26.9358 166.308 26.9358C169.199 26.9358 171.723 27.3939 173.881 28.31C176.039 29.2261 177.709 30.641 178.889 32.5547C180.09 34.448 180.691 36.8605 180.691 39.792V59H172.935V55.6104C171.917 56.9947 170.522 58.0635 168.751 58.8168C166.98 59.5497 164.975 59.9161 162.735 59.9161ZM191.565 59L182.19 28.1573H190.893L196.39 48.7395L202.62 28.1573H210.956L216.911 48.7395L222.408 28.1573H230.745L221.37 59H212.422L206.62 39.1508L200.513 59H191.565Z" fill="black"/>
<path d="M33.2857 57.8701L32.8149 58.7484L32.8149 58.7484L33.2857 57.8701ZM27.3309 52.1596L26.4702 52.6617L27.3309 52.1596ZM26.4148 37.0132L25.4955 36.6286L25.4922 36.6366L26.4148 37.0132ZM29.896 31.8524L30.5908 32.5667L30.5909 32.5665L29.896 31.8524ZM35.179 28.4627L35.5442 29.3898L35.5491 29.3879L35.179 28.4627ZM48.9513 28.6459L48.5383 29.5528L48.5417 29.5543L48.9513 28.6459ZM54.1121 32.5852L53.3368 33.2111L53.3405 33.2157L54.1121 32.5852ZM56.9521 38.4789L55.9819 38.7062L55.9839 38.7145L56.9521 38.4789ZM57.1048 45.8384V46.8349H57.9467L58.0872 46.0047L57.1048 45.8384ZM33.4689 45.8384V44.842H32.4725V45.8384H33.4689ZM34.5682 49.564L33.7489 50.1312L33.7564 50.1417L34.5682 49.564ZM37.7136 52.068L37.3013 52.9752L37.3095 52.9789L37.3178 52.9825L37.7136 52.068ZM47.6077 52.2207L47.3213 51.2663L47.3213 51.2663L47.6077 52.2207ZM52.2188 49.9915L53.1154 49.5567L52.6086 48.5118L51.6528 49.1714L52.2188 49.9915ZM55.1809 56.099L55.7892 56.8881L56.4311 56.3934L56.0775 55.6641L55.1809 56.099ZM51.5164 58.1144L51.8776 59.0432L51.8887 59.0387L51.5164 58.1144ZM46.8442 59.4275L46.6628 58.4477L46.6558 58.449L46.6488 58.4504L46.8442 59.4275ZM33.988 39.7004L32.9978 39.5892L32.8734 40.6969H33.988V39.7004ZM48.5543 39.7004V40.6969H49.5849L49.5502 39.6669L48.5543 39.7004ZM46.6305 35.3947L45.9716 36.1422L45.9779 36.1477L46.6305 35.3947ZM36.3699 35.3947L35.7702 34.5989L35.7647 34.6031L36.3699 35.3947ZM42.1415 58.9197C38.9197 58.9197 36.1344 58.2665 33.7564 56.9919L32.8149 58.7484C35.5265 60.2018 38.6451 60.9126 42.1415 60.9126V58.9197ZM33.7564 56.9919C31.3703 55.7129 29.5219 53.9381 28.1916 51.6576L26.4702 52.6617C27.9901 55.2672 30.1115 57.2993 32.8149 58.7484L33.7564 56.9919ZM28.1916 51.6576C26.8687 49.3898 26.1897 46.7083 26.1897 43.5787H24.1969C24.1969 47.0044 24.943 50.0436 26.4702 52.6617L28.1916 51.6576ZM26.1897 43.5787C26.1897 41.3123 26.5767 39.2533 27.3373 37.3897L25.4922 36.6366C24.6242 38.7632 24.1969 41.0813 24.1969 43.5787H26.1897ZM27.334 37.3977C28.1192 35.5211 29.2051 33.9144 30.5908 32.5667L29.2013 31.138C27.6147 32.6812 26.3798 34.515 25.4956 36.6286L27.334 37.3977ZM30.5909 32.5665C31.9998 31.1957 33.6478 30.1369 35.5442 29.3898L34.8138 27.5356C32.6792 28.3765 30.8053 29.5774 29.2012 31.1382L30.5909 32.5665ZM35.5491 29.3879C37.4554 28.6253 39.5575 28.2377 41.8667 28.2377V26.2448C39.3306 26.2448 36.9742 26.6714 34.8089 27.5375L35.5491 29.3879ZM41.8667 28.2377C44.4165 28.2377 46.6331 28.685 48.5383 29.5528L49.3643 27.7391C47.1572 26.7339 44.6507 26.2448 41.8667 26.2448V28.2377ZM48.5417 29.5543C50.483 30.4298 52.0757 31.6489 53.3368 33.2111L54.8875 31.9594C53.4205 30.1421 51.5727 28.735 49.361 27.7376L48.5417 29.5543ZM53.3405 33.2157C54.6012 34.7587 55.4845 36.5827 55.9819 38.7062L57.9223 38.2517C57.361 35.8557 56.351 33.7505 54.8837 31.9548L53.3405 33.2157ZM55.9839 38.7145C56.497 40.8239 56.551 43.1387 56.1223 45.6722L58.0872 46.0047C58.5543 43.245 58.5065 40.6535 57.9203 38.2434L55.9839 38.7145ZM57.1048 44.842H33.4689V46.8349H57.1048V44.842ZM32.4725 45.8384C32.4725 47.4436 32.8885 48.8882 33.749 50.1312L35.3875 48.9968C34.7822 48.1225 34.4653 47.0834 34.4653 45.8384H32.4725ZM33.7564 50.1417C34.6247 51.362 35.8199 52.3018 37.3013 52.9752L38.1259 51.1609C36.92 50.6128 36.0183 49.8832 35.3801 48.9863L33.7564 50.1417ZM37.3178 52.9825C38.8309 53.6374 40.5585 53.9501 42.4774 53.9501V51.9572C40.7726 51.9572 39.3242 51.6794 38.1094 51.1536L37.3178 52.9825ZM42.4774 53.9501C44.3607 53.9501 46.1676 53.6931 47.894 53.1751L47.3213 51.2663C45.7904 51.7256 44.1772 51.9572 42.4774 51.9572V53.9501ZM47.894 53.1751C49.6256 52.6557 51.2566 51.8663 52.7848 50.8116L51.6528 49.1714C50.2902 50.1118 48.8471 50.8086 47.3213 51.2663L47.894 53.1751ZM51.3222 50.4263L54.2844 56.5338L56.0775 55.6641L53.1154 49.5567L51.3222 50.4263ZM54.5726 55.3098C53.6844 55.9944 52.5479 56.6248 51.1442 57.1901L51.8887 59.0387C53.4166 58.4233 54.723 57.71 55.7892 56.8881L54.5726 55.3098ZM51.1553 57.1857C49.7514 57.7317 48.2545 58.153 46.6628 58.4477L47.0257 60.4073C48.732 60.0913 50.3499 59.6372 51.8776 59.0431L51.1553 57.1857ZM46.6488 58.4504C45.078 58.7646 43.5761 58.9197 42.1415 58.9197V60.9126C43.7199 60.9126 45.3531 60.7419 47.0397 60.4046L46.6488 58.4504ZM33.988 40.6969H48.5543V38.704H33.988V40.6969ZM49.5502 39.6669C49.481 37.6151 48.7407 35.905 47.2831 34.6417L45.9779 36.1477C46.9632 37.0016 47.5055 38.162 47.5585 39.734L49.5502 39.6669ZM47.2893 34.6471C45.8543 33.3823 43.9332 32.8103 41.6529 32.8103V34.8032C43.6071 34.8032 45.0044 35.2898 45.9716 36.1422L47.2893 34.6471ZM41.6529 32.8103C39.3646 32.8103 37.3808 33.3852 35.7702 34.5989L36.9697 36.1904C38.1686 35.2869 39.7067 34.8032 41.6529 34.8032V32.8103ZM35.7647 34.6031C34.1538 35.835 33.2302 37.5216 32.9978 39.5892L34.9782 39.8117C35.1531 38.2556 35.8174 37.0716 36.9752 36.1862L35.7647 34.6031ZM66.3452 57.8701L65.8314 58.7239L65.8403 58.7292L66.3452 57.8701ZM60.879 52.0986L60.0012 52.5701L60.0042 52.5757L60.879 52.0986ZM60.0239 37.1658L59.0961 36.8024L59.0929 36.8107L60.0239 37.1658ZM68.1774 28.4933L67.7754 27.5815L67.7754 27.5815L68.1774 28.4933ZM81.0947 28.7375L80.6379 29.6232L80.649 29.6288L81.0947 28.7375ZM86.1333 33.0433L86.8432 33.7426L87.4419 33.1348L86.9336 32.4496L86.1333 33.0433ZM84.1179 35.0893H83.1214V37.5207L84.8277 35.7886L84.1179 35.0893ZM84.1179 15.0263V14.0299H83.1214V15.0263H84.1179ZM93.0347 15.0263H94.0312V14.0299H93.0347V15.0263ZM93.0347 59V59.9964H94.0312V59H93.0347ZM85.2783 59H84.2818V59.9964H85.2783V59ZM85.2783 51.1825L86.1304 50.666L84.2818 47.6158V51.1825H85.2783ZM86.4998 53.1979L87.3965 53.6324L87.6327 53.1448L87.3519 52.6815L86.4998 53.1979ZM81.9497 58.0533L82.4612 58.9085L82.4673 58.9048L81.9497 58.0533ZM80.148 51.1519L80.6332 52.0224L80.6439 52.0162L80.148 51.1519ZM83.0796 48.1593L82.2085 47.6754L82.2085 47.6754L83.0796 48.1593ZM83.0796 38.9981L82.2026 39.4714L82.2085 39.482L83.0796 38.9981ZM80.1785 36.036L79.6826 36.9003L79.6934 36.9063L80.1785 36.036ZM71.6892 36.036L72.1743 36.9064L72.1851 36.9002L71.6892 36.036ZM68.7576 38.9981L69.6286 39.482L69.6286 39.482L68.7576 38.9981ZM68.7576 48.1593L69.6286 47.6754L69.6286 47.6754L68.7576 48.1593ZM71.6892 51.1519L71.1932 52.0163L71.2041 52.0223L71.6892 51.1519ZM74.2848 58.9197C71.4711 58.9197 69.0022 58.2759 66.85 57.0111L65.8403 58.7292C68.3297 60.1923 71.154 60.9126 74.2848 60.9126V58.9197ZM66.8589 57.0163C64.7171 55.7274 63.0166 53.9367 61.7537 51.6214L60.0042 52.5757C61.4286 55.1871 63.3723 57.2441 65.8314 58.7239L66.8589 57.0163ZM61.7568 51.627C60.5224 49.3291 59.8905 46.6556 59.8905 43.5787H57.8976C57.8976 46.9349 58.589 49.9413 60.0012 52.5701L61.7568 51.627ZM59.8905 43.5787C59.8905 41.3888 60.2486 39.3727 60.9549 37.521L59.0929 36.8107C58.2927 38.9085 57.8976 41.1676 57.8976 43.5787H59.8905ZM60.9517 37.5293C61.6816 35.6661 62.6949 34.044 63.99 32.6537L62.5318 31.2953C61.0582 32.8773 59.9135 34.7161 59.0962 36.8024L60.9517 37.5293ZM63.99 32.6537C65.2805 31.2683 66.8074 30.1862 68.5794 29.405L67.7754 27.5815C65.7608 28.4697 64.01 29.7084 62.5318 31.2953L63.99 32.6537ZM68.5794 29.405C70.3336 28.6316 72.2816 28.2377 74.4375 28.2377V26.2448C72.0332 26.2448 69.8078 26.6855 67.7754 27.5815L68.5794 29.405ZM74.4375 28.2377C76.8067 28.2377 78.865 28.7087 80.6379 29.6231L81.5514 27.852C79.4562 26.7713 77.0765 26.2448 74.4375 26.2448V28.2377ZM80.649 29.6288C82.4526 30.5306 84.0141 31.8592 85.3331 33.637L86.9336 32.4496C85.4431 30.4408 83.6455 28.8989 81.5403 27.8463L80.649 29.6288ZM85.4235 32.344L83.408 34.39L84.8277 35.7886L86.8432 33.7426L85.4235 32.344ZM85.1143 35.0893V15.0263H83.1214V35.0893H85.1143ZM84.1179 16.0227H93.0347V14.0299H84.1179V16.0227ZM92.0383 15.0263V59H94.0312V15.0263H92.0383ZM93.0347 58.0036H85.2783V59.9964H93.0347V58.0036ZM86.2747 59V51.1825H84.2818V59H86.2747ZM84.4261 51.6989L85.6476 53.7144L87.3519 52.6815L86.1304 50.666L84.4261 51.6989ZM85.603 52.7634C84.7387 54.5473 83.363 56.0282 81.4321 57.2019L82.4673 58.9048C84.6894 57.5541 86.3472 55.798 87.3965 53.6324L85.603 52.7634ZM81.4383 57.1982C79.551 58.3268 77.1834 58.9197 74.2848 58.9197V60.9126C77.4531 60.9126 80.1953 60.2636 82.4611 58.9085L81.4383 57.1982ZM75.9339 53.1866C77.6534 53.1866 79.2281 52.8054 80.6331 52.0223L79.6629 50.2815C78.5842 50.8828 77.3495 51.1937 75.9339 51.1937V53.1866ZM80.6439 52.0162C82.0471 51.2111 83.1523 50.0802 83.9506 48.6432L82.2085 47.6754C81.5818 48.8035 80.7326 49.6677 79.6521 50.2876L80.6439 52.0162ZM83.9506 48.6432C84.7609 47.1848 85.1448 45.4842 85.1448 43.5787H83.152C83.152 45.2154 82.8234 46.5686 82.2085 47.6754L83.9506 48.6432ZM85.1448 43.5787C85.1448 41.6731 84.7609 39.9726 83.9506 38.5142L82.2085 39.482C82.8234 40.5887 83.152 41.9419 83.152 43.5787H85.1448ZM83.9565 38.5248C83.1766 37.0797 82.0756 35.9526 80.6637 35.1656L79.6934 36.9063C80.7652 37.5037 81.5982 38.3513 82.2027 39.4713L83.9565 38.5248ZM80.6744 35.1717C79.2657 34.3634 77.6764 33.9707 75.9339 33.9707V35.9636C77.3672 35.9636 78.6077 36.2835 79.6826 36.9002L80.6744 35.1717ZM75.9339 33.9707C74.1914 33.9707 72.6021 34.3634 71.1933 35.1717L72.1851 36.9002C73.26 36.2835 74.5005 35.9636 75.9339 35.9636V33.9707ZM71.2041 35.1656C69.7947 35.9511 68.6862 37.0748 67.8866 38.5142L69.6286 39.482C70.2541 38.3562 71.0999 37.5052 72.1743 36.9063L71.2041 35.1656ZM67.8866 38.5142C67.0763 39.9726 66.6924 41.6731 66.6924 43.5787H68.6852C68.6852 41.9419 69.0138 40.5887 69.6286 39.482L67.8866 38.5142ZM66.6924 43.5787C66.6924 45.4842 67.0763 47.1848 67.8866 48.6432L69.6286 47.6754C69.0138 46.5686 68.6852 45.2154 68.6852 43.5787H66.6924ZM67.8866 48.6432C68.6849 50.0802 69.79 51.2111 71.1933 52.0162L72.1851 50.2876C71.1046 49.6677 70.2554 48.8035 69.6286 47.6754L67.8866 48.6432ZM71.2041 52.0223C72.611 52.8065 74.1964 53.1866 75.9339 53.1866V51.1937C74.4955 51.1937 73.2511 50.8817 72.1743 50.2815L71.2041 52.0223ZM99.2448 59H98.2484V59.9964H99.2448V59ZM99.2448 28.1573V27.1609H98.2484V28.1573H99.2448ZM108.162 28.1573H109.158V27.1609H108.162V28.1573ZM108.162 59V59.9964H109.158V59H108.162ZM99.8555 21.8972L99.2024 22.6498L99.2106 22.6568L99.8555 21.8972ZM99.8555 14.4461L100.5 15.2057L100.509 15.1986L99.8555 14.4461ZM107.551 14.4461L106.898 15.1987L106.906 15.2057L107.551 14.4461ZM107.551 21.8972L108.196 22.6568L108.204 22.6497L107.551 21.8972ZM100.241 59V28.1573H98.2484V59H100.241ZM99.2448 29.1538H108.162V27.1609H99.2448V29.1538ZM107.165 28.1573V59H109.158V28.1573H107.165ZM108.162 58.0036H99.2448V59.9964H108.162V58.0036ZM103.703 22.2749C102.441 22.2749 101.39 21.8927 100.5 21.1376L99.2106 22.6568C100.479 23.7339 101.994 24.2678 103.703 24.2678V22.2749ZM100.509 21.1447C99.6674 20.4145 99.2335 19.4572 99.2335 18.1716H97.2406C97.2406 19.9806 97.8857 21.507 99.2024 22.6497L100.509 21.1447ZM99.2335 18.1716C99.2335 16.8612 99.6701 15.9107 100.5 15.2057L99.2106 13.6865C97.883 14.8138 97.2406 16.347 97.2406 18.1716H99.2335ZM100.509 15.1986C101.399 14.4262 102.447 14.0378 103.703 14.0378V12.0449C101.988 12.0449 100.47 12.593 99.2024 13.6936L100.509 15.1986ZM103.703 14.0378C104.96 14.0378 106.008 14.4262 106.898 15.1986L108.204 13.6936C106.936 12.593 105.419 12.0449 103.703 12.0449V14.0378ZM106.906 15.2057C107.736 15.9107 108.173 16.8612 108.173 18.1716H110.166C110.166 16.347 109.523 14.8138 108.196 13.6865L106.906 15.2057ZM108.173 18.1716C108.173 19.4572 107.739 20.4145 106.898 21.1447L108.204 22.6497C109.521 21.507 110.166 19.9806 110.166 18.1716H108.173ZM106.906 21.1376C106.017 21.8927 104.966 22.2749 103.703 22.2749V24.2678C105.413 24.2678 106.927 23.7339 108.196 22.6568L106.906 21.1376ZM119.954 57.1372L119.254 57.8457L119.261 57.8531L119.954 57.1372ZM117.114 19.271V18.2746H116.118V19.271H117.114ZM126.031 19.271H127.028V18.2746H126.031V19.271ZM126.031 28.1573H125.035V29.1538H126.031V28.1573ZM133.696 28.1573H134.693V27.1609H133.696V28.1573ZM133.696 35.3031V36.2995H134.693V35.3031H133.696ZM126.031 35.3031V34.3066H125.035V35.3031H126.031ZM127.161 50.8771L126.466 51.5913L126.466 51.5913L127.161 50.8771ZM132.078 51.7627L132.304 52.733L132.315 52.7304L132.327 52.7275L132.078 51.7627ZM133.818 51.0908L134.799 50.916L134.558 49.561L133.346 50.2135L133.818 51.0908ZM135.07 58.1144L135.554 58.9855L136.176 58.64L136.051 57.9395L135.07 58.1144ZM131.772 59.397L131.513 58.4349L131.509 58.436L131.772 59.397ZM110.854 35.3031H109.858V36.2995H110.854V35.3031ZM110.854 28.1573V27.1609H109.858V28.1573H110.854ZM118 28.1573H118.996V27.1609H118V28.1573ZM118 35.3031V36.2995H118.996V35.3031H118ZM127.772 58.9197C124.668 58.9197 122.333 58.0534 120.647 56.4213L119.261 57.8531C121.403 59.9263 124.28 60.9126 127.772 60.9126V58.9197ZM120.655 56.4288C119.018 54.8092 118.111 52.2902 118.111 48.6784H116.118C116.118 52.5992 117.104 55.7194 119.254 57.8456L120.655 56.4288ZM118.111 48.6784V19.271H116.118V48.6784H118.111ZM117.114 20.2674H126.031V18.2746H117.114V20.2674ZM125.035 19.271V28.1573H127.028V19.271H125.035ZM126.031 29.1538H133.696V27.1609H126.031V29.1538ZM132.7 28.1573V35.3031H134.693V28.1573H132.7ZM133.696 34.3066H126.031V36.2995H133.696V34.3066ZM125.035 35.3031V47.0599H127.028V35.3031H125.035ZM125.035 47.0599C125.035 48.9586 125.42 50.5735 126.466 51.5913L127.856 50.1629C127.396 49.7149 127.028 48.785 127.028 47.0599H125.035ZM126.466 51.5913C127.442 52.5405 128.718 52.9729 130.184 52.9729V50.98C129.126 50.98 128.387 50.6794 127.856 50.1629L126.466 51.5913ZM130.184 52.9729C130.909 52.9729 131.616 52.8935 132.304 52.733L131.851 50.7923C131.318 50.9168 130.763 50.98 130.184 50.98V52.9729ZM132.327 52.7275C133.029 52.5462 133.685 52.2943 134.291 51.9682L133.346 50.2135C132.893 50.4574 132.388 50.6534 131.829 50.7978L132.327 52.7275ZM132.837 51.2657L134.089 58.2893L136.051 57.9395L134.799 50.916L132.837 51.2657ZM134.586 57.2434C133.757 57.7042 132.737 58.1046 131.513 58.435L132.032 60.359C133.373 59.9972 134.551 59.5426 135.554 58.9855L134.586 57.2434ZM131.509 58.436C130.338 58.7569 129.094 58.9197 127.772 58.9197V60.9126C129.259 60.9126 130.682 60.7292 132.036 60.358L131.509 58.436ZM111.851 35.3031V28.1573H109.858V35.3031H111.851ZM110.854 29.1538H118V27.1609H110.854V29.1538ZM117.003 28.1573V35.3031H118.996V28.1573H117.003ZM118 34.3066H110.854V36.2995H118V34.3066ZM138.972 59H137.975V59.9964H138.972V59ZM138.972 15.0263V14.0299H137.975V15.0263H138.972ZM147.889 15.0263H148.885V14.0299H147.889V15.0263ZM147.889 59V59.9964H148.885V59H147.889ZM139.968 59V15.0263H137.975V59H139.968ZM138.972 16.0227H147.889V14.0299H138.972V16.0227ZM146.892 15.0263V59H148.885V15.0263H146.892ZM147.889 58.0036H138.972V59.9964H147.889V58.0036ZM157.177 58.7252L157.614 57.8295L157.177 58.7252ZM153.33 55.3355L152.487 55.8668L152.49 55.872L153.33 55.3355ZM153.238 45.3498L152.399 44.8116L152.399 44.8116L153.238 45.3498ZM157.208 41.9907L157.649 42.884L157.654 42.882L157.208 41.9907ZM163.987 40.189L164.098 41.1793L164.104 41.1785L163.987 40.189ZM173.698 40.2501L174.694 40.234L174.68 39.3454L173.796 39.2585L173.698 40.2501ZM173.79 45.93L173.627 46.9132L174.805 47.1077L174.786 45.914L173.79 45.93ZM167.896 45.4109L167.884 44.4145L167.884 44.4145L167.896 45.4109ZM163.621 45.93L163.351 44.9707L163.347 44.9719L163.621 45.93ZM161.025 47.3653L161.741 48.0578L161.747 48.052L161.753 48.046L161.025 47.3653ZM161.483 52.3734L160.897 53.1793L160.903 53.1837L160.909 53.188L161.483 52.3734ZM171.225 50.5717L170.41 49.9978L170.41 49.9978L171.225 50.5717ZM171.408 36.7689L170.529 37.2378L170.535 37.2495L170.541 37.2611L171.408 36.7689ZM169.087 34.6618L168.655 35.5598L168.662 35.5632L168.669 35.5665L169.087 34.6618ZM160.17 34.6312L160.455 35.586L160.463 35.5836L160.17 34.6312ZM155.864 36.7994L154.932 37.1513L155.401 38.3927L156.462 37.5965L155.864 36.7994ZM153.513 30.5698L152.976 29.7302L152.295 30.1655L152.581 30.9217L153.513 30.5698ZM159.804 27.8214L160.051 28.7866L160.06 28.7844L159.804 27.8214ZM173.881 28.31L173.492 29.2272L173.492 29.2272L173.881 28.31ZM178.889 32.5547L178.041 33.078L178.048 33.0885L178.889 32.5547ZM180.691 59V59.9964H181.688V59H180.691ZM172.935 59H171.938V59.9964H172.935V59ZM172.935 55.6104H173.931V52.5731L172.132 55.0201L172.935 55.6104ZM168.751 58.8168L169.132 59.7375L169.141 59.7337L168.751 58.8168ZM162.735 58.9197C160.788 58.9197 159.088 58.5481 157.614 57.8295L156.741 59.6208C158.524 60.4902 160.529 60.9126 162.735 60.9126V58.9197ZM157.614 57.8295C156.143 57.1124 155.003 56.1037 154.169 54.7991L152.49 55.872C153.529 57.4989 154.954 58.75 156.741 59.6208L157.614 57.8295ZM154.173 54.8043C153.352 53.5027 152.921 51.9228 152.921 50.022H150.929C150.929 52.2336 151.434 54.196 152.487 55.8667L154.173 54.8043ZM152.921 50.022C152.921 48.4461 153.313 47.0785 154.077 45.888L152.399 44.8116C151.413 46.3491 150.929 48.0964 150.929 50.022H152.921ZM154.077 45.888C154.835 44.7064 156.005 43.6968 157.649 42.884L156.766 41.0974C154.869 42.0354 153.392 43.2652 152.399 44.8116L154.077 45.888ZM157.654 42.882C159.309 42.0541 161.446 41.4761 164.098 41.1793L163.876 39.1988C161.072 39.5127 158.69 40.1358 156.762 41.0995L157.654 42.882ZM164.104 41.1785C166.762 40.8636 169.923 40.8801 173.6 41.2418L173.796 39.2585C170.022 38.8873 166.71 38.863 163.87 39.1995L164.104 41.1785ZM172.702 40.2662L172.793 45.9461L174.786 45.914L174.694 40.234L172.702 40.2662ZM173.952 44.9469C171.692 44.5737 169.667 44.3933 167.884 44.4145L167.908 46.4073C169.545 46.3878 171.449 46.5534 173.627 46.9132L173.952 44.9469ZM167.884 44.4145C166.139 44.4356 164.622 44.6141 163.351 44.9707L163.89 46.8894C164.941 46.5945 166.273 46.427 167.908 46.4073L167.884 44.4145ZM163.347 44.9719C162.095 45.3296 161.049 45.8813 160.297 46.6846L161.753 48.046C162.182 47.5871 162.866 47.182 163.894 46.8881L163.347 44.9719ZM160.309 46.6727C159.533 47.4755 159.143 48.4695 159.143 49.5945H161.136C161.136 48.9688 161.337 48.4766 161.741 48.0578L160.309 46.6727ZM159.143 49.5945C159.143 51.0831 159.719 52.3226 160.897 53.1793L162.069 51.5676C161.456 51.1213 161.136 50.5082 161.136 49.5945H159.143ZM160.909 53.188C162.027 53.9758 163.463 54.3165 165.117 54.3165V52.3236C163.717 52.3236 162.73 52.0333 162.057 51.5588L160.909 53.188ZM165.117 54.3165C166.559 54.3165 167.89 54.0609 169.093 53.529L168.287 51.7064C167.372 52.111 166.321 52.3236 165.117 52.3236V54.3165ZM169.093 53.529C170.307 52.992 171.298 52.1975 172.039 51.1456L170.41 49.9978C169.889 50.7374 169.19 51.307 168.287 51.7064L169.093 53.529ZM172.039 51.1456C172.808 50.0546 173.168 48.7562 173.168 47.3042H171.175C171.175 48.4174 170.904 49.2973 170.41 49.9978L172.039 51.1456ZM173.168 47.3042V39.9142H171.175V47.3042H173.168ZM173.168 39.9142C173.168 38.5694 172.882 37.3457 172.274 36.2766L170.541 37.2611C170.952 37.9836 171.175 38.8568 171.175 39.9142H173.168ZM172.287 36.2999C171.684 35.1687 170.735 34.3249 169.504 33.7571L168.669 35.5665C169.556 35.9758 170.155 36.5367 170.529 37.2378L172.287 36.2999ZM169.519 33.7637C168.278 33.1674 166.73 32.9019 164.934 32.9019V34.8948C166.557 34.8948 167.778 35.1383 168.655 35.5598L169.519 33.7637ZM164.934 32.9019C163.242 32.9019 161.555 33.1624 159.877 33.6789L160.463 35.5836C161.96 35.1229 163.45 34.8948 164.934 34.8948V32.9019ZM159.885 33.6765C158.205 34.1782 156.664 34.9541 155.266 36.0022L156.462 37.5965C157.67 36.6903 159 36.0207 160.455 35.586L159.885 33.6765ZM156.796 36.4475L154.445 30.2179L152.581 30.9217L154.932 37.1513L156.796 36.4475ZM154.05 31.4094C155.937 30.2027 157.937 29.3297 160.051 28.7865L159.556 26.8563C157.232 27.4532 155.038 28.4124 152.976 29.7302L154.05 31.4094ZM160.06 28.7844C162.202 28.2144 164.284 27.9323 166.308 27.9323V25.9394C164.097 25.9394 161.843 26.2477 159.547 26.8585L160.06 28.7844ZM166.308 27.9323C169.095 27.9323 171.482 28.3741 173.492 29.2272L174.271 27.3928C171.964 26.4138 169.302 25.9394 166.308 25.9394V27.9323ZM173.492 29.2272C175.468 30.0664 176.974 31.3477 178.041 33.0779L179.737 32.0315C178.443 29.9344 176.61 28.3859 174.271 27.3928L173.492 29.2272ZM178.048 33.0885C179.121 34.78 179.695 36.9924 179.695 39.792H181.688C181.688 36.7285 181.06 34.116 179.731 32.0209L178.048 33.0885ZM179.695 39.792V59H181.688V39.792H179.695ZM180.691 58.0036H172.935V59.9964H180.691V58.0036ZM173.931 59V55.6104H171.938V59H173.931ZM172.132 55.0201C171.232 56.2438 169.988 57.2079 168.361 57.8998L169.141 59.7337C171.056 58.9192 172.601 57.7457 173.737 56.2006L172.132 55.0201ZM168.37 57.8961C166.738 58.5713 164.866 58.9197 162.735 58.9197V60.9126C165.084 60.9126 167.221 60.5281 169.132 59.7375L168.37 57.8961ZM191.565 59L190.612 59.2898L190.827 59.9964H191.565V59ZM182.19 28.1573V27.1609H180.846L181.237 28.4471L182.19 28.1573ZM190.893 28.1573L191.856 27.9002L191.659 27.1609H190.893V28.1573ZM196.39 48.7395L195.427 48.9966L196.33 52.377L197.344 49.0281L196.39 48.7395ZM202.62 28.1573V27.1609H201.88L201.666 27.8687L202.62 28.1573ZM210.956 28.1573L211.914 27.8804L211.705 27.1609H210.956V28.1573ZM216.911 48.7395L215.954 49.0164L216.95 52.4575L217.874 48.9966L216.911 48.7395ZM222.408 28.1573V27.1609H221.643L221.445 27.9002L222.408 28.1573ZM230.745 28.1573L231.698 28.4471L232.089 27.1609H230.745V28.1573ZM221.37 59V59.9964H222.108L222.323 59.2898L221.37 59ZM212.422 59L211.466 59.2796L211.675 59.9964H212.422V59ZM206.62 39.1508L207.577 38.8712L206.645 35.683L205.668 38.8577L206.62 39.1508ZM200.513 59V59.9964H201.249L201.465 59.293L200.513 59ZM192.519 58.7102L183.144 27.8676L181.237 28.4471L190.612 59.2898L192.519 58.7102ZM182.19 29.1538H190.893V27.1609H182.19V29.1538ZM189.931 28.4144L195.427 48.9966L197.353 48.4824L191.856 27.9002L189.931 28.4144ZM197.344 49.0281L203.573 28.446L201.666 27.8687L195.436 48.4508L197.344 49.0281ZM202.62 29.1538H210.956V27.1609H202.62V29.1538ZM209.999 28.4343L215.954 49.0164L217.868 48.4625L211.914 27.8804L209.999 28.4343ZM217.874 48.9966L223.371 28.4144L221.445 27.9002L215.948 48.4824L217.874 48.9966ZM222.408 29.1538H230.745V27.1609H222.408V29.1538ZM229.791 27.8676L220.416 58.7102L222.323 59.2898L231.698 28.4471L229.791 27.8676ZM221.37 58.0036H212.422V59.9964H221.37V58.0036ZM213.379 58.7204L207.577 38.8712L205.664 39.4303L211.466 59.2796L213.379 58.7204ZM205.668 38.8577L199.56 58.707L201.465 59.293L207.572 39.4438L205.668 38.8577ZM200.513 58.0036H191.565V59.9964H200.513V58.0036Z" fill="black" mask="url(#path-3-outside-1_26_460)"/>
</svg>
