<svg width="1632" height="402" viewBox="0 0 1632 402" fill="none" xmlns="http://www.w3.org/2000/svg">
<path fill-rule="evenodd" clip-rule="evenodd" d="M291.188 94.3787C269.778 94.3787 248.577 98.5958 228.797 106.789C209.016 114.982 191.044 126.991 175.904 142.131C160.765 157.27 148.756 175.243 140.563 195.023C132.37 214.803 128.153 236.004 128.153 257.414L68.5964 257.414C68.5964 228.183 74.3539 199.238 85.5402 172.232C96.7264 145.226 113.122 120.688 133.792 100.018C154.461 79.3485 179 62.9526 206.006 51.7663C233.012 40.5801 261.957 34.8226 291.188 34.8226V94.3787Z" fill="white" fill-opacity="0.1"/>
<path fill-rule="evenodd" clip-rule="evenodd" d="M35.3415 195.023C27.1483 175.243 15.1392 157.27 0 142.131L42.1125 100.018C62.782 120.688 79.178 145.226 90.3643 172.232C101.551 199.238 107.308 228.183 107.308 257.414H47.7519C47.7519 236.004 43.5348 214.803 35.3415 195.023Z" fill="white" fill-opacity="0.1"/>
<mask id="path-3-outside-1_26_2833" maskUnits="userSpaceOnUse" x="170.375" y="32" width="1459" height="344" fill="black">
<rect fill="white" x="170.375" y="32" width="1459" height="344"/>
<path d="M296.898 368.426C273.335 368.426 252.629 363.642 234.778 354.074C216.928 344.507 203.004 331.154 193.008 314.018C183.012 296.881 178.014 276.817 178.014 253.826C178.014 237.118 180.87 221.767 186.582 207.772C192.437 193.777 200.577 181.71 211.001 171.571C221.569 161.289 233.921 153.364 248.059 147.794C262.339 142.082 277.976 139.226 294.97 139.226C313.677 139.226 330.243 142.51 344.666 149.079C359.232 155.648 371.299 164.859 380.867 176.712C390.434 188.422 397.075 202.202 400.788 218.054C404.643 233.905 405 251.113 401.859 269.677H236.063C236.063 279.674 238.634 288.385 243.775 295.81C249.059 303.236 256.413 309.091 265.838 313.375C275.406 317.517 286.545 319.587 299.254 319.587C311.821 319.587 323.816 317.874 335.241 314.446C346.665 311.019 357.447 305.807 367.586 298.809L388.364 341.65C381.509 346.934 372.941 351.647 362.659 355.788C352.377 359.787 341.453 362.857 329.886 364.999C318.461 367.284 307.465 368.426 296.898 368.426ZM239.705 226.622H341.881C341.453 213.912 336.954 203.845 328.386 196.419C319.961 188.993 308.322 185.28 293.471 185.28C278.619 185.28 266.266 188.993 256.413 196.419C246.702 203.845 241.133 213.912 239.705 226.622ZM522.37 368.426C501.52 368.426 482.956 363.642 466.676 354.074C450.539 344.364 437.758 330.869 428.333 313.589C419.051 296.31 414.41 276.389 414.41 253.826C414.41 237.689 417.052 222.695 422.335 208.843C427.762 194.991 435.331 182.853 445.041 172.428C454.752 162.003 466.248 153.863 479.528 148.008C492.809 142.153 507.447 139.226 523.441 139.226C541.006 139.226 556.571 142.725 570.138 149.722C583.847 156.577 595.628 166.644 605.481 179.925L591.344 194.277V53.5436H653.892V362H599.484V307.163L608.052 321.301C601.34 335.153 590.701 346.506 576.135 355.36C561.569 364.071 543.647 368.426 522.37 368.426ZM533.937 314.232C544.933 314.232 554.786 311.804 563.497 306.949C572.208 301.951 579.063 294.954 584.061 285.957C589.059 276.96 591.558 266.25 591.558 253.826C591.558 241.402 589.059 230.692 584.061 221.695C579.206 212.699 572.422 205.773 563.711 200.917C555 195.919 545.075 193.42 533.937 193.42C522.798 193.42 512.873 195.919 504.162 200.917C495.451 205.773 488.597 212.699 483.598 221.695C478.6 230.692 476.101 241.402 476.101 253.826C476.101 266.25 478.6 276.96 483.598 285.957C488.597 294.954 495.451 301.951 504.162 306.949C512.873 311.804 522.798 314.232 533.937 314.232ZM697.453 362V145.652H760.001V362H697.453ZM728.727 111.379C718.302 111.379 709.305 108.166 701.737 101.74C694.168 95.1709 690.384 86.4599 690.384 75.6068C690.384 64.6109 694.168 55.8998 701.737 49.4737C709.305 42.9047 718.302 39.6202 728.727 39.6202C739.151 39.6202 748.148 42.9047 755.717 49.4737C763.285 55.8998 767.07 64.6109 767.07 75.6068C767.07 86.4599 763.285 95.1709 755.717 101.74C748.148 108.166 739.151 111.379 728.727 111.379ZM897.558 368.426C874.424 368.426 856.145 361.929 842.721 348.933C829.44 335.795 822.8 316.017 822.8 289.598V83.3182H885.348V145.652H939.114V195.776H885.348V278.246C885.348 290.955 887.99 299.88 893.274 305.021C898.557 310.162 905.626 312.733 914.48 312.733C919.05 312.733 923.477 312.233 927.761 311.233C932.188 310.091 936.258 308.52 939.971 306.521L948.753 355.788C942.327 359.358 934.615 362.357 925.619 364.785C916.765 367.212 907.411 368.426 897.558 368.426ZM778.888 195.776V145.652H829.012V195.776H778.888ZM976.121 362V53.5436H1038.67V362H976.121ZM1142.81 368.426C1128.24 368.426 1115.25 365.641 1103.82 360.072C1092.4 354.503 1083.4 346.577 1076.83 336.295C1070.27 325.871 1066.98 313.447 1066.98 299.023C1066.98 286.742 1070.05 275.818 1076.19 266.25C1082.33 256.682 1091.61 248.828 1104.04 242.687C1116.61 236.404 1132.46 232.191 1151.59 230.049C1170.87 227.764 1193.58 227.907 1219.71 230.478L1220.35 270.32C1204.79 267.749 1191.01 266.536 1179.01 266.678C1167.16 266.821 1157.16 268.035 1149.02 270.32C1141.03 272.605 1134.96 275.961 1130.81 280.388C1126.67 284.672 1124.6 289.884 1124.6 296.025C1124.6 304.45 1127.74 310.948 1134.03 315.517C1140.31 319.944 1148.81 322.158 1159.52 322.158C1168.8 322.158 1177.15 320.515 1184.58 317.231C1192.01 313.946 1197.93 309.163 1202.36 302.879C1206.79 296.596 1209 288.956 1209 279.959V228.121C1209 219.696 1207.21 212.342 1203.64 206.058C1200.22 199.632 1194.79 194.705 1187.36 191.278C1179.94 187.708 1170.23 185.923 1158.23 185.923C1147.09 185.923 1135.96 187.636 1124.82 191.064C1113.82 194.348 1103.75 199.418 1094.61 206.272L1078.12 162.574C1091.97 153.721 1106.68 147.294 1122.25 143.296C1137.81 139.155 1153.02 137.084 1167.87 137.084C1188.15 137.084 1205.86 140.297 1221 146.723C1236.13 153.149 1247.84 163.074 1256.12 176.498C1264.55 189.778 1268.76 206.701 1268.76 227.265V362H1214.35V338.223C1207.21 347.934 1197.43 355.431 1185.01 360.715C1172.58 365.856 1158.52 368.426 1142.81 368.426ZM1345.04 362L1279.28 145.652H1340.33L1378.89 290.027L1422.58 145.652H1481.06L1522.83 290.027L1561.39 145.652H1619.87L1554.11 362H1491.34L1450.64 222.766L1407.8 362H1345.04Z"/>
</mask>
<path d="M296.898 368.426C273.335 368.426 252.629 363.642 234.778 354.074C216.928 344.507 203.004 331.154 193.008 314.018C183.012 296.881 178.014 276.817 178.014 253.826C178.014 237.118 180.87 221.767 186.582 207.772C192.437 193.777 200.577 181.71 211.001 171.571C221.569 161.289 233.921 153.364 248.059 147.794C262.339 142.082 277.976 139.226 294.97 139.226C313.677 139.226 330.243 142.51 344.666 149.079C359.232 155.648 371.299 164.859 380.867 176.712C390.434 188.422 397.075 202.202 400.788 218.054C404.643 233.905 405 251.113 401.859 269.677H236.063C236.063 279.674 238.634 288.385 243.775 295.81C249.059 303.236 256.413 309.091 265.838 313.375C275.406 317.517 286.545 319.587 299.254 319.587C311.821 319.587 323.816 317.874 335.241 314.446C346.665 311.019 357.447 305.807 367.586 298.809L388.364 341.65C381.509 346.934 372.941 351.647 362.659 355.788C352.377 359.787 341.453 362.857 329.886 364.999C318.461 367.284 307.465 368.426 296.898 368.426ZM239.705 226.622H341.881C341.453 213.912 336.954 203.845 328.386 196.419C319.961 188.993 308.322 185.28 293.471 185.28C278.619 185.28 266.266 188.993 256.413 196.419C246.702 203.845 241.133 213.912 239.705 226.622ZM522.37 368.426C501.52 368.426 482.956 363.642 466.676 354.074C450.539 344.364 437.758 330.869 428.333 313.589C419.051 296.31 414.41 276.389 414.41 253.826C414.41 237.689 417.052 222.695 422.335 208.843C427.762 194.991 435.331 182.853 445.041 172.428C454.752 162.003 466.248 153.863 479.528 148.008C492.809 142.153 507.447 139.226 523.441 139.226C541.006 139.226 556.571 142.725 570.138 149.722C583.847 156.577 595.628 166.644 605.481 179.925L591.344 194.277V53.5436H653.892V362H599.484V307.163L608.052 321.301C601.34 335.153 590.701 346.506 576.135 355.36C561.569 364.071 543.647 368.426 522.37 368.426ZM533.937 314.232C544.933 314.232 554.786 311.804 563.497 306.949C572.208 301.951 579.063 294.954 584.061 285.957C589.059 276.96 591.558 266.25 591.558 253.826C591.558 241.402 589.059 230.692 584.061 221.695C579.206 212.699 572.422 205.773 563.711 200.917C555 195.919 545.075 193.42 533.937 193.42C522.798 193.42 512.873 195.919 504.162 200.917C495.451 205.773 488.597 212.699 483.598 221.695C478.6 230.692 476.101 241.402 476.101 253.826C476.101 266.25 478.6 276.96 483.598 285.957C488.597 294.954 495.451 301.951 504.162 306.949C512.873 311.804 522.798 314.232 533.937 314.232ZM697.453 362V145.652H760.001V362H697.453ZM728.727 111.379C718.302 111.379 709.305 108.166 701.737 101.74C694.168 95.1709 690.384 86.4599 690.384 75.6068C690.384 64.6109 694.168 55.8998 701.737 49.4737C709.305 42.9047 718.302 39.6202 728.727 39.6202C739.151 39.6202 748.148 42.9047 755.717 49.4737C763.285 55.8998 767.07 64.6109 767.07 75.6068C767.07 86.4599 763.285 95.1709 755.717 101.74C748.148 108.166 739.151 111.379 728.727 111.379ZM897.558 368.426C874.424 368.426 856.145 361.929 842.721 348.933C829.44 335.795 822.8 316.017 822.8 289.598V83.3182H885.348V145.652H939.114V195.776H885.348V278.246C885.348 290.955 887.99 299.88 893.274 305.021C898.557 310.162 905.626 312.733 914.48 312.733C919.05 312.733 923.477 312.233 927.761 311.233C932.188 310.091 936.258 308.52 939.971 306.521L948.753 355.788C942.327 359.358 934.615 362.357 925.619 364.785C916.765 367.212 907.411 368.426 897.558 368.426ZM778.888 195.776V145.652H829.012V195.776H778.888ZM976.121 362V53.5436H1038.67V362H976.121ZM1142.81 368.426C1128.24 368.426 1115.25 365.641 1103.82 360.072C1092.4 354.503 1083.4 346.577 1076.83 336.295C1070.27 325.871 1066.98 313.447 1066.98 299.023C1066.98 286.742 1070.05 275.818 1076.19 266.25C1082.33 256.682 1091.61 248.828 1104.04 242.687C1116.61 236.404 1132.46 232.191 1151.59 230.049C1170.87 227.764 1193.58 227.907 1219.71 230.478L1220.35 270.32C1204.79 267.749 1191.01 266.536 1179.01 266.678C1167.16 266.821 1157.16 268.035 1149.02 270.32C1141.03 272.605 1134.96 275.961 1130.81 280.388C1126.67 284.672 1124.6 289.884 1124.6 296.025C1124.6 304.45 1127.74 310.948 1134.03 315.517C1140.31 319.944 1148.81 322.158 1159.52 322.158C1168.8 322.158 1177.15 320.515 1184.58 317.231C1192.01 313.946 1197.93 309.163 1202.36 302.879C1206.79 296.596 1209 288.956 1209 279.959V228.121C1209 219.696 1207.21 212.342 1203.64 206.058C1200.22 199.632 1194.79 194.705 1187.36 191.278C1179.94 187.708 1170.23 185.923 1158.23 185.923C1147.09 185.923 1135.96 187.636 1124.82 191.064C1113.82 194.348 1103.75 199.418 1094.61 206.272L1078.12 162.574C1091.97 153.721 1106.68 147.294 1122.25 143.296C1137.81 139.155 1153.02 137.084 1167.87 137.084C1188.15 137.084 1205.86 140.297 1221 146.723C1236.13 153.149 1247.84 163.074 1256.12 176.498C1264.55 189.778 1268.76 206.701 1268.76 227.265V362H1214.35V338.223C1207.21 347.934 1197.43 355.431 1185.01 360.715C1172.58 365.856 1158.52 368.426 1142.81 368.426ZM1345.04 362L1279.28 145.652H1340.33L1378.89 290.027L1422.58 145.652H1481.06L1522.83 290.027L1561.39 145.652H1619.87L1554.11 362H1491.34L1450.64 222.766L1407.8 362H1345.04Z" fill="white" fill-opacity="0.1"/>
<path d="M234.778 354.074L231.476 360.235L231.476 360.235L234.778 354.074ZM193.008 314.018L186.971 317.54L186.971 317.54L193.008 314.018ZM186.582 207.772L180.134 205.074L180.122 205.102L180.111 205.13L186.582 207.772ZM211.001 171.571L215.875 176.582L215.876 176.581L211.001 171.571ZM248.059 147.794L250.621 154.297L250.638 154.291L250.655 154.284L248.059 147.794ZM344.666 149.079L341.769 155.44L341.781 155.446L341.792 155.451L344.666 149.079ZM380.867 176.712L375.428 181.102L375.441 181.118L375.454 181.134L380.867 176.712ZM400.788 218.054L393.982 219.648L393.989 219.677L393.996 219.706L400.788 218.054ZM401.859 269.677V276.667H407.765L408.75 270.844L401.859 269.677ZM236.063 269.677V262.688H229.074V269.677H236.063ZM243.775 295.81L238.028 299.789L238.054 299.826L238.08 299.863L243.775 295.81ZM265.838 313.375L262.946 319.738L263.003 319.765L263.062 319.79L265.838 313.375ZM335.241 314.446L333.232 307.751L333.232 307.751L335.241 314.446ZM367.586 298.809L373.875 295.759L370.32 288.43L363.616 293.057L367.586 298.809ZM388.364 341.65L392.631 347.186L397.134 343.715L394.653 338.6L388.364 341.65ZM362.659 355.788L365.192 362.302L365.232 362.287L365.27 362.271L362.659 355.788ZM329.886 364.999L328.613 358.126L328.564 358.135L328.515 358.145L329.886 364.999ZM239.705 226.622L232.759 225.841L231.886 233.611H239.705V226.622ZM341.881 226.622V233.611H349.11L348.867 226.386L341.881 226.622ZM328.386 196.419L323.765 201.663L323.786 201.682L323.808 201.701L328.386 196.419ZM256.413 196.419L252.206 190.837L252.187 190.852L252.167 190.867L256.413 196.419ZM296.898 361.437C274.298 361.437 254.761 356.855 238.08 347.914L231.476 360.235C250.497 370.43 272.372 375.416 296.898 375.416V361.437ZM238.08 347.914C221.343 338.943 208.377 326.493 199.045 310.496L186.971 317.54C197.632 335.816 212.513 350.07 231.476 360.235L238.08 347.914ZM199.045 310.496C189.766 294.588 185.003 275.779 185.003 253.826H171.024C171.024 277.856 176.258 299.175 186.971 317.54L199.045 310.496ZM185.003 253.826C185.003 237.928 187.718 223.485 193.053 210.413L180.111 205.13C174.022 220.048 171.024 236.308 171.024 253.826H185.003ZM193.03 210.469C198.537 197.306 206.154 186.035 215.875 176.582L206.128 166.56C194.999 177.385 186.336 190.248 180.134 205.074L193.03 210.469ZM215.876 176.581C225.758 166.965 237.318 159.538 250.621 154.297L245.497 141.291C230.524 147.189 217.379 155.613 206.127 166.561L215.876 176.581ZM250.655 154.284C264.027 148.935 278.772 146.215 294.97 146.215V132.236C277.18 132.236 260.652 135.229 245.463 141.305L250.655 154.284ZM294.97 146.215C312.856 146.215 328.404 149.354 341.769 155.44L347.563 142.718C332.081 135.667 314.499 132.236 294.97 132.236V146.215ZM341.792 155.451C355.41 161.592 366.582 170.144 375.428 181.102L386.305 172.322C376.016 159.575 363.053 149.704 347.539 142.708L341.792 155.451ZM375.454 181.134C384.298 191.958 390.493 204.752 393.982 219.648L407.593 216.46C403.656 199.653 396.571 184.886 386.279 172.289L375.454 181.134ZM393.996 219.706C397.595 234.503 397.975 250.74 394.967 268.511L408.75 270.844C412.026 251.486 411.691 233.307 407.579 216.402L393.996 219.706ZM401.859 262.688H236.063V276.667H401.859V262.688ZM229.074 269.677C229.074 280.937 231.992 291.07 238.028 299.789L249.522 291.832C245.276 285.699 243.053 278.41 243.053 269.677H229.074ZM238.08 299.863C244.171 308.423 252.554 315.015 262.946 319.738L268.73 307.012C260.272 303.167 253.947 298.05 249.47 291.758L238.08 299.863ZM263.062 319.79C273.676 324.384 285.794 326.577 299.254 326.577V312.598C287.295 312.598 277.136 310.649 268.614 306.961L263.062 319.79ZM299.254 326.577C312.465 326.577 325.139 324.774 337.249 321.141L333.232 307.751C322.494 310.973 311.177 312.598 299.254 312.598V326.577ZM337.249 321.141C349.395 317.497 360.836 311.96 371.556 304.562L363.616 293.057C354.057 299.653 343.935 304.541 333.232 307.751L337.249 321.141ZM361.297 301.859L382.075 344.701L394.653 338.6L373.875 295.759L361.297 301.859ZM384.097 336.115C377.867 340.917 369.894 345.339 360.048 349.305L365.27 362.271C375.988 357.955 385.152 352.951 392.631 347.186L384.097 336.115ZM360.126 349.274C350.278 353.103 339.778 356.059 328.613 358.126L331.158 371.872C343.128 369.655 354.477 366.47 365.192 362.302L360.126 349.274ZM328.515 358.145C317.496 360.349 306.961 361.437 296.898 361.437V375.416C307.97 375.416 319.426 374.219 331.256 371.853L328.515 358.145ZM239.705 233.611H341.881V219.632H239.705V233.611ZM348.867 226.386C348.382 211.994 343.189 199.998 332.964 191.137L323.808 201.701C330.72 207.691 334.524 215.83 334.896 226.857L348.867 226.386ZM333.008 191.175C322.941 182.303 309.466 178.291 293.471 178.291V192.27C307.178 192.27 316.98 195.683 323.765 201.663L333.008 191.175ZM293.471 178.291C277.419 178.291 263.503 182.323 252.206 190.837L260.62 202.001C269.03 195.663 279.819 192.27 293.471 192.27V178.291ZM252.167 190.867C240.868 199.508 234.389 211.338 232.759 225.841L246.651 227.402C247.877 216.487 252.537 208.182 260.659 201.971L252.167 190.867ZM466.676 354.074L463.072 360.063L463.103 360.082L463.135 360.1L466.676 354.074ZM428.333 313.589L422.176 316.897L422.186 316.917L422.197 316.936L428.333 313.589ZM422.335 208.843L415.827 206.293L415.816 206.322L415.805 206.352L422.335 208.843ZM479.528 148.008L476.709 141.613L476.709 141.613L479.528 148.008ZM570.138 149.722L566.933 155.934L566.972 155.954L567.012 155.974L570.138 149.722ZM605.481 179.925L610.461 184.83L614.661 180.567L611.095 175.76L605.481 179.925ZM591.344 194.277H584.354V211.332L596.323 199.182L591.344 194.277ZM591.344 53.5436V46.554H584.354V53.5436H591.344ZM653.892 53.5436H660.882V46.554H653.892V53.5436ZM653.892 362V368.99H660.882V362H653.892ZM599.484 362H592.494V368.99H599.484V362ZM599.484 307.163L605.461 303.541L592.494 282.145V307.163H599.484ZM608.052 321.301L614.342 324.349L615.999 320.928L614.029 317.678L608.052 321.301ZM576.135 355.36L579.723 361.358L579.744 361.345L579.766 361.332L576.135 355.36ZM563.497 306.949L566.9 313.054L566.938 313.033L566.976 313.012L563.497 306.949ZM584.061 285.957L577.951 282.562L577.951 282.562L584.061 285.957ZM584.061 221.695L577.91 225.015L577.93 225.052L577.951 225.09L584.061 221.695ZM563.711 200.917L560.233 206.98L560.271 207.001L560.308 207.022L563.711 200.917ZM504.162 200.917L507.565 207.022L507.603 207.001L507.641 206.98L504.162 200.917ZM483.598 221.695L489.708 225.09L489.708 225.09L483.598 221.695ZM483.598 285.957L489.708 282.562L489.708 282.562L483.598 285.957ZM504.162 306.949L500.684 313.012L500.721 313.033L500.759 313.054L504.162 306.949ZM522.37 361.437C502.632 361.437 485.314 356.921 470.218 348.048L463.135 360.1C480.597 370.363 500.408 375.416 522.37 375.416V361.437ZM470.28 348.086C455.256 339.044 443.328 326.483 434.469 310.243L422.197 316.936C432.189 335.254 445.823 349.683 463.072 360.063L470.28 348.086ZM434.491 310.282C425.832 294.163 421.399 275.41 421.399 253.826H407.42C407.42 277.369 412.27 298.457 422.176 316.897L434.491 310.282ZM421.399 253.826C421.399 238.465 423.912 224.323 428.866 211.334L415.805 206.352C410.192 221.067 407.42 236.913 407.42 253.826H421.399ZM428.843 211.392C433.963 198.323 441.071 186.944 450.156 177.192L439.927 167.664C429.59 178.761 421.561 191.659 415.827 206.293L428.843 211.392ZM450.156 177.192C459.208 167.474 469.918 159.884 482.348 154.404L476.709 141.613C462.577 147.843 450.296 156.532 439.927 167.664L450.156 177.192ZM482.348 154.404C494.654 148.979 508.318 146.215 523.441 146.215V132.236C506.575 132.236 490.965 135.328 476.709 141.613L482.348 154.404ZM523.441 146.215C540.06 146.215 554.498 149.52 566.933 155.934L573.342 143.51C558.645 135.93 541.952 132.236 523.441 132.236V146.215ZM567.012 155.974C579.663 162.299 590.616 171.619 599.868 184.09L611.095 175.76C600.64 161.669 588.03 150.854 573.263 143.47L567.012 155.974ZM600.502 175.02L586.365 189.372L596.323 199.182L610.461 184.83L600.502 175.02ZM598.333 194.277V53.5436H584.354V194.277H598.333ZM591.344 60.5332H653.892V46.554H591.344V60.5332ZM646.902 53.5436V362H660.882V53.5436H646.902ZM653.892 355.01H599.484V368.99H653.892V355.01ZM606.473 362V307.163H592.494V362H606.473ZM593.506 310.786L602.074 324.924L614.029 317.678L605.461 303.541L593.506 310.786ZM601.762 318.253C595.699 330.766 586.049 341.154 572.505 349.387L579.766 361.332C595.353 351.858 606.982 339.539 614.342 324.349L601.762 318.253ZM572.548 349.361C559.309 357.278 542.701 361.437 522.37 361.437V375.416C544.593 375.416 563.829 370.863 579.723 361.358L572.548 349.361ZM533.937 321.222C545.999 321.222 557.045 318.548 566.9 313.054L560.094 300.844C552.528 305.061 543.867 307.243 533.937 307.243V321.222ZM566.976 313.012C576.819 307.364 584.571 299.431 590.171 289.351L577.951 282.562C573.555 290.476 567.598 296.538 560.019 300.887L566.976 313.012ZM590.171 289.351C595.854 279.121 598.548 267.193 598.548 253.826H584.569C584.569 265.307 582.264 274.799 577.951 282.562L590.171 289.351ZM598.548 253.826C598.548 240.459 595.854 228.531 590.171 218.301L577.951 225.09C582.264 232.853 584.569 242.345 584.569 253.826H598.548ZM590.212 218.376C584.741 208.239 577.018 200.332 567.114 194.812L560.308 207.022C567.826 211.213 573.67 217.158 577.91 225.015L590.212 218.376ZM567.19 194.855C557.308 189.185 546.16 186.43 533.937 186.43V200.41C543.991 200.41 552.693 202.653 560.233 206.98L567.19 194.855ZM533.937 186.43C521.714 186.43 510.566 189.185 500.684 194.855L507.641 206.98C515.181 202.653 523.882 200.41 533.937 200.41V186.43ZM500.759 194.812C490.873 200.322 483.098 208.204 477.488 218.301L489.708 225.09C494.095 217.193 500.029 211.223 507.565 207.022L500.759 194.812ZM477.488 218.301C471.805 228.531 469.112 240.459 469.112 253.826H483.091C483.091 242.345 485.395 232.853 489.708 225.09L477.488 218.301ZM469.112 253.826C469.112 267.193 471.805 279.121 477.488 289.351L489.708 282.562C485.395 274.799 483.091 265.307 483.091 253.826H469.112ZM477.488 289.351C483.088 299.431 490.841 307.364 500.684 313.012L507.641 300.887C500.062 296.538 494.105 290.476 489.708 282.562L477.488 289.351ZM500.759 313.054C510.628 318.555 521.749 321.222 533.937 321.222V307.243C523.847 307.243 515.118 305.054 507.565 300.844L500.759 313.054ZM697.453 362H690.463V368.99H697.453V362ZM697.453 145.652V138.663H690.463V145.652H697.453ZM760.001 145.652H766.99V138.663H760.001V145.652ZM760.001 362V368.99H766.99V362H760.001ZM701.737 101.74L697.155 107.019L697.184 107.043L697.213 107.068L701.737 101.74ZM701.737 49.4737L706.261 54.8018L706.29 54.7772L706.318 54.7523L701.737 49.4737ZM755.717 49.4737L751.135 54.7523L751.164 54.7772L751.193 54.8018L755.717 49.4737ZM755.717 101.74L760.241 107.068L760.27 107.043L760.298 107.019L755.717 101.74ZM704.442 362V145.652H690.463V362H704.442ZM697.453 152.642H760.001V138.663H697.453V152.642ZM753.011 145.652V362H766.99V145.652H753.011ZM760.001 355.01H697.453V368.99H760.001V355.01ZM728.727 104.39C719.869 104.39 712.499 101.709 706.261 96.4118L697.213 107.068C706.112 114.624 716.735 118.369 728.727 118.369V104.39ZM706.318 96.4612C700.417 91.3394 697.374 84.6243 697.374 75.6068H683.394C683.394 88.2954 687.919 99.0025 697.155 107.019L706.318 96.4612ZM697.374 75.6068C697.374 66.4143 700.436 59.7471 706.261 54.8018L697.213 44.1455C687.9 52.0526 683.394 62.8075 683.394 75.6068H697.374ZM706.318 54.7523C712.561 49.3342 719.912 46.6098 728.727 46.6098V32.6306C716.693 32.6306 706.05 36.4751 697.155 44.195L706.318 54.7523ZM728.727 46.6098C737.542 46.6098 744.893 49.3342 751.135 54.7523L760.298 44.195C751.404 36.4751 740.761 32.6306 728.727 32.6306V46.6098ZM751.193 54.8018C757.017 59.7471 760.08 66.4143 760.08 75.6068H774.059C774.059 62.8075 769.553 52.0526 760.241 44.1455L751.193 54.8018ZM760.08 75.6068C760.08 84.6243 757.037 91.3394 751.135 96.4612L760.298 107.019C769.534 99.0025 774.059 88.2954 774.059 75.6068H760.08ZM751.193 96.4118C744.954 101.709 737.584 104.39 728.727 104.39V118.369C740.719 118.369 751.342 114.624 760.241 107.068L751.193 96.4118ZM842.721 348.933L837.806 353.902L837.832 353.929L837.86 353.955L842.721 348.933ZM822.8 83.3182V76.3286H815.81V83.3182H822.8ZM885.348 83.3182H892.338V76.3286H885.348V83.3182ZM885.348 145.652H878.358V152.642H885.348V145.652ZM939.114 145.652H946.103V138.663H939.114V145.652ZM939.114 195.776V202.766H946.103V195.776H939.114ZM885.348 195.776V188.787H878.358V195.776H885.348ZM893.274 305.021L888.399 310.031L888.399 310.031L893.274 305.021ZM927.761 311.233L929.349 318.04L929.428 318.021L929.507 318.001L927.761 311.233ZM939.971 306.521L946.852 305.294L945.157 295.789L936.657 300.367L939.971 306.521ZM948.753 355.788L952.147 361.898L956.51 359.474L955.634 354.561L948.753 355.788ZM925.619 364.785L923.798 358.036L923.784 358.04L923.771 358.044L925.619 364.785ZM778.888 195.776H771.898V202.766H778.888V195.776ZM778.888 145.652V138.663H771.898V145.652H778.888ZM829.012 145.652H836.002V138.663H829.012V145.652ZM829.012 195.776V202.766H836.002V195.776H829.012ZM897.558 361.437C875.782 361.437 859.408 355.36 847.583 343.912L837.86 353.955C852.881 368.498 873.065 375.416 897.558 375.416V361.437ZM847.637 343.964C836.152 332.603 829.79 314.933 829.79 289.598H815.81C815.81 317.101 822.729 338.988 837.806 353.902L847.637 343.964ZM829.79 289.598V83.3182H815.81V289.598H829.79ZM822.8 90.3078H885.348V76.3286H822.8V90.3078ZM878.358 83.3182V145.652H892.338V83.3182H878.358ZM885.348 152.642H939.114V138.663H885.348V152.642ZM932.124 145.652V195.776H946.103V145.652H932.124ZM939.114 188.787H885.348V202.766H939.114V188.787ZM878.358 195.776V278.246H892.338V195.776H878.358ZM878.358 278.246C878.358 291.564 881.062 302.891 888.399 310.031L898.148 300.012C894.918 296.869 892.338 290.346 892.338 278.246H878.358ZM888.399 310.031C895.243 316.69 904.196 319.722 914.48 319.722V305.743C907.057 305.743 901.872 303.635 898.148 300.012L888.399 310.031ZM914.48 319.722C919.564 319.722 924.524 319.166 929.349 318.04L926.173 304.426C922.429 305.3 918.536 305.743 914.48 305.743V319.722ZM929.507 318.001C934.434 316.73 939.036 314.962 943.284 312.675L936.657 300.367C933.479 302.077 929.941 303.452 926.014 304.465L929.507 318.001ZM933.089 307.747L941.872 357.015L955.634 354.561L946.852 305.294L933.089 307.747ZM945.359 349.678C939.541 352.91 932.385 355.719 923.798 358.036L927.44 371.533C936.846 368.995 945.113 365.806 952.147 361.898L945.359 349.678ZM923.771 358.044C915.561 360.295 906.832 361.437 897.558 361.437V375.416C907.99 375.416 917.969 374.13 927.467 371.525L923.771 358.044ZM785.877 195.776V145.652H771.898V195.776H785.877ZM778.888 152.642H829.012V138.663H778.888V152.642ZM822.022 145.652V195.776H836.002V145.652H822.022ZM829.012 188.787H778.888V202.766H829.012V188.787ZM976.121 362H969.132V368.99H976.121V362ZM976.121 53.5436V46.554H969.132V53.5436H976.121ZM1038.67 53.5436H1045.66V46.554H1038.67V53.5436ZM1038.67 362V368.99H1045.66V362H1038.67ZM983.111 362V53.5436H969.132V362H983.111ZM976.121 60.5332H1038.67V46.554H976.121V60.5332ZM1031.68 53.5436V362H1045.66V53.5436H1031.68ZM1038.67 355.01H976.121V368.99H1038.67V355.01ZM1103.82 360.072L1106.89 353.789L1106.89 353.789L1103.82 360.072ZM1076.83 336.295L1070.92 340.022L1070.93 340.04L1070.94 340.058L1076.83 336.295ZM1076.19 266.25L1070.31 262.475L1070.31 262.475L1076.19 266.25ZM1104.04 242.687L1107.14 248.953L1107.15 248.946L1107.16 248.939L1104.04 242.687ZM1151.59 230.049L1152.37 236.995L1152.39 236.993L1152.42 236.99L1151.59 230.049ZM1219.71 230.478L1226.7 230.365L1226.6 224.132L1220.39 223.522L1219.71 230.478ZM1220.35 270.32L1219.21 277.216L1227.48 278.581L1227.34 270.207L1220.35 270.32ZM1179.01 266.678L1178.93 259.689L1178.93 259.689L1179.01 266.678ZM1149.02 270.32L1147.13 263.59L1147.12 263.595L1147.1 263.599L1149.02 270.32ZM1130.81 280.388L1135.84 285.245L1135.88 285.204L1135.92 285.163L1130.81 280.388ZM1134.03 315.517L1129.92 321.17L1129.96 321.201L1130 321.231L1134.03 315.517ZM1202.36 302.879L1196.65 298.854L1196.65 298.854L1202.36 302.879ZM1203.64 206.058L1197.48 209.347L1197.52 209.43L1197.57 209.511L1203.64 206.058ZM1187.36 191.278L1184.34 197.577L1184.39 197.601L1184.44 197.624L1187.36 191.278ZM1124.82 191.064L1126.82 197.761L1126.84 197.753L1126.87 197.744L1124.82 191.064ZM1094.61 206.272L1088.07 208.741L1091.36 217.449L1098.81 211.864L1094.61 206.272ZM1078.12 162.574L1074.36 156.685L1069.58 159.738L1071.58 165.043L1078.12 162.574ZM1122.25 143.296L1123.99 150.066L1124.01 150.058L1124.04 150.05L1122.25 143.296ZM1221 146.723L1218.26 153.157L1218.26 153.157L1221 146.723ZM1256.12 176.498L1250.18 180.168L1250.2 180.205L1250.22 180.242L1256.12 176.498ZM1268.76 362V368.99H1275.75V362H1268.76ZM1214.35 362H1207.37V368.99H1214.35V362ZM1214.35 338.223H1221.34V316.918L1208.72 334.083L1214.35 338.223ZM1185.01 360.715L1187.68 367.173L1187.71 367.16L1187.74 367.147L1185.01 360.715ZM1142.81 361.437C1129.15 361.437 1117.23 358.83 1106.89 353.789L1100.76 366.355C1113.27 372.453 1127.34 375.416 1142.81 375.416V361.437ZM1106.89 353.789C1096.57 348.759 1088.57 341.684 1082.72 332.532L1070.94 340.058C1078.24 351.471 1088.23 360.246 1100.76 366.355L1106.89 353.789ZM1082.75 332.569C1076.99 323.439 1073.97 312.357 1073.97 299.023H1059.99C1059.99 314.537 1063.54 328.302 1070.92 340.022L1082.75 332.569ZM1073.97 299.023C1073.97 287.969 1076.71 278.376 1082.07 270.025L1070.31 262.475C1063.39 273.26 1059.99 285.516 1059.99 299.023H1073.97ZM1082.07 270.025C1087.39 261.737 1095.6 254.655 1107.14 248.953L1100.94 236.421C1087.63 243.001 1077.27 251.628 1070.31 262.475L1082.07 270.025ZM1107.16 248.939C1118.78 243.132 1133.77 239.077 1152.37 236.995L1150.81 223.103C1131.14 225.305 1114.43 229.676 1100.91 236.436L1107.16 248.939ZM1152.42 236.99C1171.05 234.781 1193.23 234.896 1219.03 237.434L1220.39 223.522C1193.92 220.918 1170.69 220.747 1150.77 223.108L1152.42 236.99ZM1212.72 230.59L1213.36 270.433L1227.34 270.207L1226.7 230.365L1212.72 230.59ZM1221.49 263.424C1205.64 260.806 1191.44 259.54 1178.93 259.689L1179.09 273.667C1190.58 273.531 1203.93 274.693 1219.21 277.216L1221.49 263.424ZM1178.93 259.689C1166.69 259.837 1156.04 261.089 1147.13 263.59L1150.91 277.049C1158.28 274.981 1167.63 273.806 1179.1 273.667L1178.93 259.689ZM1147.1 263.599C1138.32 266.108 1130.98 269.978 1125.71 275.613L1135.92 285.163C1138.93 281.943 1143.73 279.102 1150.94 277.041L1147.1 263.599ZM1125.79 275.53C1120.35 281.161 1117.61 288.133 1117.61 296.025H1131.59C1131.59 291.635 1133 288.183 1135.84 285.245L1125.79 275.53ZM1117.61 296.025C1117.61 306.466 1121.65 315.161 1129.92 321.17L1138.14 309.865C1133.83 306.734 1131.59 302.434 1131.59 296.025H1117.61ZM1130 321.231C1137.85 326.757 1147.92 329.147 1159.52 329.147V315.168C1149.7 315.168 1142.78 313.131 1138.05 309.803L1130 321.231ZM1159.52 329.147C1169.64 329.147 1178.97 327.354 1187.41 323.623L1181.75 310.839C1175.34 313.677 1167.97 315.168 1159.52 315.168V329.147ZM1187.41 323.623C1195.92 319.856 1202.87 314.283 1208.07 306.905L1196.65 298.854C1192.99 304.042 1188.09 308.037 1181.75 310.839L1187.41 323.623ZM1208.07 306.905C1213.46 299.252 1215.99 290.144 1215.99 279.959H1202.01C1202.01 287.767 1200.11 293.939 1196.65 298.854L1208.07 306.905ZM1215.99 279.959V228.121H1202.01V279.959H1215.99ZM1215.99 228.121C1215.99 218.688 1213.98 210.104 1209.72 202.605L1197.57 209.511C1200.45 214.579 1202.01 220.704 1202.01 228.121H1215.99ZM1209.81 202.769C1205.58 194.834 1198.92 188.915 1190.29 184.932L1184.44 197.624C1190.66 200.495 1194.85 204.43 1197.48 209.347L1209.81 202.769ZM1190.39 184.979C1181.69 180.795 1170.84 178.933 1158.23 178.933V192.912C1169.62 192.912 1178.19 194.62 1184.34 197.577L1190.39 184.979ZM1158.23 178.933C1146.37 178.933 1134.53 180.761 1122.76 184.383L1126.87 197.744C1137.38 194.512 1147.82 192.912 1158.23 192.912V178.933ZM1122.82 184.367C1111.03 187.886 1100.22 193.329 1090.42 200.681L1098.81 211.864C1107.28 205.507 1116.61 200.81 1126.82 197.761L1122.82 184.367ZM1101.15 203.804L1084.66 160.106L1071.58 165.043L1088.07 208.741L1101.15 203.804ZM1081.88 168.464C1095.13 160 1109.15 153.876 1123.99 150.066L1120.51 136.526C1104.21 140.713 1088.82 147.442 1074.36 156.685L1081.88 168.464ZM1124.04 150.05C1139.07 146.052 1153.68 144.073 1167.87 144.073V130.094C1152.37 130.094 1136.55 132.257 1120.45 136.541L1124.04 150.05ZM1167.87 144.073C1187.42 144.073 1204.17 147.172 1218.26 153.157L1223.73 140.289C1207.55 133.422 1188.88 130.094 1167.87 130.094V144.073ZM1218.26 153.157C1232.13 159.043 1242.69 168.031 1250.18 180.168L1262.07 172.827C1253 158.117 1240.14 147.256 1223.73 140.289L1218.26 153.157ZM1250.22 180.242C1257.75 192.107 1261.77 207.626 1261.77 227.265H1275.75C1275.75 205.775 1271.35 187.45 1262.03 172.753L1250.22 180.242ZM1261.77 227.265V362H1275.75V227.265H1261.77ZM1268.76 355.01H1214.35V368.99H1268.76V355.01ZM1221.34 362V338.223H1207.37V362H1221.34ZM1208.72 334.083C1202.41 342.666 1193.69 349.429 1182.27 354.283L1187.74 367.147C1201.18 361.433 1212.02 353.201 1219.99 342.364L1208.72 334.083ZM1182.34 354.256C1170.89 358.993 1157.75 361.437 1142.81 361.437V375.416C1159.28 375.416 1174.28 372.719 1187.68 367.173L1182.34 354.256ZM1345.04 362L1338.35 364.033L1339.86 368.99H1345.04V362ZM1279.28 145.652V138.663H1269.85L1272.59 147.685L1279.28 145.652ZM1340.33 145.652L1347.08 143.849L1345.7 138.663H1340.33V145.652ZM1378.89 290.027L1372.13 291.83L1378.46 315.543L1385.57 292.052L1378.89 290.027ZM1422.58 145.652V138.663H1417.4L1415.89 143.627L1422.58 145.652ZM1481.06 145.652L1487.78 143.71L1486.32 138.663H1481.06V145.652ZM1522.83 290.027L1516.12 291.969L1523.1 316.108L1529.58 291.83L1522.83 290.027ZM1561.39 145.652V138.663H1556.02L1554.64 143.849L1561.39 145.652ZM1619.87 145.652L1626.55 147.685L1629.3 138.663H1619.87V145.652ZM1554.11 362V368.99H1559.29L1560.79 364.033L1554.11 362ZM1491.34 362L1484.63 363.961L1486.1 368.99H1491.34V362ZM1450.64 222.766L1457.35 220.805L1450.82 198.441L1443.96 220.711L1450.64 222.766ZM1407.8 362V368.99H1412.97L1414.48 364.056L1407.8 362ZM1351.73 359.967L1285.97 143.619L1272.59 147.685L1338.35 364.033L1351.73 359.967ZM1279.28 152.642H1340.33V138.663H1279.28V152.642ZM1333.58 147.456L1372.13 291.83L1385.64 288.223L1347.08 143.849L1333.58 147.456ZM1385.57 292.052L1429.27 147.677L1415.89 143.627L1372.2 288.002L1385.57 292.052ZM1422.58 152.642H1481.06V138.663H1422.58V152.642ZM1474.35 147.595L1516.12 291.969L1529.55 288.084L1487.78 143.71L1474.35 147.595ZM1529.58 291.83L1568.14 147.456L1554.64 143.849L1516.08 288.223L1529.58 291.83ZM1561.39 152.642H1619.87V138.663H1561.39V152.642ZM1613.18 143.619L1547.42 359.967L1560.79 364.033L1626.55 147.685L1613.18 143.619ZM1554.11 355.01H1491.34V368.99H1554.11V355.01ZM1498.05 360.039L1457.35 220.805L1443.94 224.727L1484.63 363.961L1498.05 360.039ZM1443.96 220.711L1401.12 359.944L1414.48 364.056L1457.32 224.822L1443.96 220.711ZM1407.8 355.01H1345.04V368.99H1407.8V355.01Z" fill="white" fill-opacity="0.1" mask="url(#path-3-outside-1_26_2833)"/>
</svg>
