<svg width="20" height="20" viewBox="0 0 20 20" fill="none" xmlns="http://www.w3.org/2000/svg">
<path d="M19.9773 19.9978H0.332031V0.375H19.9773V19.9978Z" fill="white"/>
<path d="M19.9773 11.0037V0.383743H0.332031V20.0066H19.9773V14.2815C19.9336 14.2815 19.9773 11.0037 19.9773 11.0037Z" fill="#006FCF"/>
<path d="M17.5709 9.9111H19.0585V6.45852H17.4396V6.93924L17.1334 6.45852H15.7333V7.07029L15.4707 6.45852H12.8892C12.8017 6.45852 12.7142 6.50216 12.6267 6.50216C12.5393 6.50216 12.4955 6.54594 12.408 6.58957C12.3205 6.63335 12.2768 6.63335 12.1892 6.67699V6.45852H4.79492L4.57606 7.02665L4.35735 6.45852H2.60716V7.07029L2.34461 6.45852H0.944506L0.332031 7.94445V9.9111H1.33839L1.5133 9.43038H1.86336L2.03837 9.9111H9.73893V9.47402L10.0453 9.9111H12.1892V9.64885C12.2329 9.69263 12.3205 9.69263 12.3643 9.73627C12.408 9.77991 12.4955 9.7799 12.5392 9.82368C12.6267 9.86732 12.7142 9.86732 12.8017 9.86732H14.3769L14.5519 9.3866H14.902L15.077 9.86732H17.2209V9.43038L17.5709 9.9111ZM19.9773 14.2815V11.0474H7.94508L7.63884 11.4844L7.33261 11.0474H3.83225V14.4999H7.33261L7.63884 14.0629L7.94508 14.4999H10.1328V13.757H10.0453C10.3515 13.757 10.6141 13.7133 10.8328 13.6259V14.5436H12.408V14.1066L12.7142 14.5436H19.2335C19.4961 14.4563 19.7586 14.4125 19.9773 14.2815Z" fill="white"/>
<path d="M19.2335 13.4511H18.0522V13.9318H19.1898C19.6711 13.9318 19.9773 13.6259 19.9773 13.1889C19.9773 12.7518 19.7148 12.5333 19.2773 12.5333H18.7523C18.621 12.5333 18.5335 12.4459 18.5335 12.3148C18.5335 12.1836 18.621 12.0962 18.7523 12.0962H19.7586L19.9773 11.6155H18.7961C18.3147 11.6155 18.0084 11.9214 18.0084 12.3148C18.0084 12.7518 18.271 12.9704 18.7085 12.9704H19.2335C19.3649 12.9704 19.4524 13.0578 19.4524 13.1889C19.4961 13.3637 19.4085 13.4511 19.2335 13.4511ZM17.0896 13.4511H15.9083V13.9318H17.0459C17.5272 13.9318 17.8334 13.6259 17.8334 13.1889C17.8334 12.7518 17.5709 12.5333 17.1334 12.5333H16.6083C16.4771 12.5333 16.3896 12.4459 16.3896 12.3148C16.3896 12.1836 16.4771 12.0962 16.6083 12.0962H17.6147L17.8334 11.6155H16.6521C16.1707 11.6155 15.8645 11.9214 15.8645 12.3148C15.8645 12.7518 16.127 12.9704 16.5646 12.9704H17.0896C17.2209 12.9704 17.3084 13.0578 17.3084 13.1889C17.3521 13.3637 17.2209 13.4511 17.0896 13.4511ZM15.5583 12.0526V11.5719H13.7206V13.8882H15.5583V13.4073H14.2457V12.9266H15.5144V12.4459H14.2457V12.0088H15.5583V12.0526ZM12.583 12.0526C12.8017 12.0526 12.8892 12.1836 12.8892 12.3148C12.8892 12.4459 12.8017 12.5769 12.583 12.5769H11.9267V12.0088L12.583 12.0526ZM11.9267 13.0578H12.1892L12.8892 13.8882H13.5455L12.758 13.014C13.1518 12.9266 13.3705 12.6644 13.3705 12.3148C13.3705 11.8777 13.0643 11.5719 12.583 11.5719H11.3579V13.8882H11.8829L11.9267 13.0578ZM10.5266 12.3585C10.5266 12.5333 10.4391 12.6644 10.2204 12.6644H9.52023V12.0526H10.1765C10.3954 12.0526 10.5266 12.1836 10.5266 12.3585ZM8.99526 11.5719V13.8882H9.52023V13.1014H10.2204C10.7016 13.1014 11.0517 12.7955 11.0517 12.3148C11.0517 11.8777 10.7453 11.5281 10.264 11.5281L8.99526 11.5719ZM8.20763 13.8882H8.86393L7.94508 12.7081L8.86393 11.5719H8.20763L7.63884 12.3148L7.07006 11.5719H6.41376L7.33261 12.7081L6.41376 13.8444H7.07006L7.63884 13.1014L8.20763 13.8882ZM6.23874 12.0526V11.5719H4.40104V13.8882H6.23874V13.4073H4.92612V12.9266H6.19503V12.4459H4.92612V12.0088H6.23874V12.0526ZM16.8709 7.94445L17.7897 9.34297H18.446V7.02666H17.9209V8.55622L17.7897 8.33776L16.9584 7.02666H16.2583V9.34297H16.7833V7.76962L16.8709 7.94445ZM14.5957 7.90067L14.7706 7.41996L14.9457 7.90067L15.1645 8.42517H14.3769L14.5957 7.90067ZM15.5144 9.34297H16.0832L15.077 7.02666H14.3769L13.3705 9.34297H13.9394L14.1581 8.86225H15.2957L15.5144 9.34297ZM13.0643 9.34297L13.2831 8.86225H13.1518C12.758 8.86225 12.5393 8.6 12.5393 8.20656V8.16292C12.5393 7.76962 12.758 7.50737 13.1518 7.50737H13.7206V7.02666H13.1081C12.408 7.02666 12.0142 7.50737 12.0142 8.16292V8.20656C12.0142 8.90589 12.408 9.34297 13.0643 9.34297ZM11.0954 9.34297H11.6205V7.07029H11.0954V9.34297ZM9.9578 7.50737C10.1765 7.50737 10.264 7.63843 10.264 7.76962C10.264 7.90068 10.1765 8.03187 9.9578 8.03187H9.3015V7.46374L9.9578 7.50737ZM9.3015 8.51259H9.56405L10.264 9.34297H10.9203L10.1328 8.46881C10.5266 8.38139 10.7453 8.11929 10.7453 7.76962C10.7453 7.33254 10.4391 7.02666 9.9578 7.02666H8.73271V9.34297H9.25768L9.3015 8.51259ZM8.33897 7.50737V7.02666H6.50127V9.34297H8.33897V8.86225H7.02623V8.38139H8.29514V7.90067H7.02623V7.46374H8.33897V7.50737ZM4.35735 9.34297H4.83861L5.49491 7.46374V9.34297H6.02001V7.02666H5.14485L4.61991 8.6L4.0948 7.02666H3.21978V9.34297H3.74474V7.46374L4.35735 9.34297ZM1.5133 7.90067L1.68831 7.41996L1.86336 7.90067L2.08209 8.42517H1.29457L1.5133 7.90067ZM2.43215 9.34297H3.00091L1.99469 7.02666H1.33839L0.332031 9.34297H0.900821L1.11955 8.86225H2.2571L2.43215 9.34297Z" fill="#006FCF"/>
</svg>
