<svg width="25" height="25" viewBox="0 0 25 25" fill="none" xmlns="http://www.w3.org/2000/svg">
<path d="M19.7913 8.775V7.29165C19.7913 3.2646 16.5268 0 12.4997 0C8.47256 0 5.20801 3.2646 5.20801 7.29165V8.775C3.31221 9.60239 2.08574 11.4732 2.08301 13.5417V19.7917C2.08643 22.6667 4.41626 24.9966 7.29131 25H17.708C20.583 24.9966 22.9128 22.6667 22.9163 19.7917V13.5417C22.9136 11.4732 21.6871 9.60239 19.7913 8.775ZM13.5413 17.7083C13.5413 18.2836 13.075 18.75 12.4997 18.75C11.9244 18.75 11.458 18.2836 11.458 17.7083V15.625C11.458 15.0497 11.9244 14.5833 12.4997 14.5833C13.075 14.5833 13.5413 15.0497 13.5413 15.625V17.7083ZM17.708 8.33335H7.29131V7.2917C7.29131 4.41523 9.62315 2.08335 12.4997 2.08335C15.3762 2.08335 17.708 4.41519 17.708 7.2917V8.33335Z" fill="black"/>
</svg>
