<svg width="46" height="21" viewBox="0 0 46 21" fill="none" xmlns="http://www.w3.org/2000/svg">
<path fill-rule="evenodd" clip-rule="evenodd" d="M4.03613 1H6.13766V9.66281H4.03613V1Z" fill="black" stroke="black" stroke-width="0.288" stroke-miterlimit="22.9256"/>
<path fill-rule="evenodd" clip-rule="evenodd" d="M6.80273 1H7.45167V9.66421H6.80273V1Z" fill="black" stroke="black" stroke-width="0.288" stroke-miterlimit="22.9256"/>
<path fill-rule="evenodd" clip-rule="evenodd" d="M8.01953 1H9.18608V9.66238H8.01953V1Z" fill="black" stroke="black" stroke-width="0.288" stroke-miterlimit="22.9256"/>
<path fill-rule="evenodd" clip-rule="evenodd" d="M10.3096 1H10.9625V9.66987H10.3096V1Z" fill="black" stroke="black" stroke-width="0.288" stroke-miterlimit="22.9256"/>
<path fill-rule="evenodd" clip-rule="evenodd" d="M11.2451 1H11.7474V9.66365H11.2451V1Z" fill="black" stroke="black" stroke-width="0.288" stroke-miterlimit="22.9256"/>
<path fill-rule="evenodd" clip-rule="evenodd" d="M2.4375 1H3.09042V20.6635H2.4375V1Z" fill="black" stroke="black" stroke-width="0.288" stroke-miterlimit="22.9256"/>
<path fill-rule="evenodd" clip-rule="evenodd" d="M1 1H2.16668V20.6635H1V1Z" fill="black" stroke="black" stroke-width="0.288" stroke-miterlimit="22.9256"/>
<path fill-rule="evenodd" clip-rule="evenodd" d="M15.2314 1H17.333V9.66492H15.2314V1Z" fill="black" stroke="black" stroke-width="0.288" stroke-miterlimit="22.9256"/>
<path fill-rule="evenodd" clip-rule="evenodd" d="M17.9932 1H18.6461V9.66181H17.9932V1Z" fill="black" stroke="black" stroke-width="0.288" stroke-miterlimit="22.9256"/>
<path fill-rule="evenodd" clip-rule="evenodd" d="M19.2139 1H20.3806V9.66309H19.2139V1Z" fill="black" stroke="black" stroke-width="0.288" stroke-miterlimit="22.9256"/>
<path fill-rule="evenodd" clip-rule="evenodd" d="M21.5049 1H22.1538V9.65998H21.5049V1Z" fill="black" stroke="black" stroke-width="0.288" stroke-miterlimit="22.9256"/>
<path fill-rule="evenodd" clip-rule="evenodd" d="M22.4395 1H22.9417V9.65998H22.4395V1Z" fill="black" stroke="black" stroke-width="0.288" stroke-miterlimit="22.9256"/>
<path fill-rule="evenodd" clip-rule="evenodd" d="M13.6318 1H14.2808V9.66351H13.6318V1Z" fill="black" stroke="black" stroke-width="0.288" stroke-miterlimit="22.9256"/>
<path fill-rule="evenodd" clip-rule="evenodd" d="M12.1953 1H13.362V9.66365H12.1953V1Z" fill="black" stroke="black" stroke-width="0.288" stroke-miterlimit="22.9256"/>
<path fill-rule="evenodd" clip-rule="evenodd" d="M23.7686 1H24.9313V9.66309H23.7686V1Z" fill="black" stroke="black" stroke-width="0.288" stroke-miterlimit="22.9256"/>
<path fill-rule="evenodd" clip-rule="evenodd" d="M26.0557 1H26.7084V9.65984H26.0557V1Z" fill="black" stroke="black" stroke-width="0.288" stroke-miterlimit="22.9256"/>
<path fill-rule="evenodd" clip-rule="evenodd" d="M26.9902 1H27.4924V9.66605H26.9902V1Z" fill="black" stroke="black" stroke-width="0.288" stroke-miterlimit="22.9256"/>
<path fill-rule="evenodd" clip-rule="evenodd" d="M29.3779 1H30.0307V9.6597H29.3779V1Z" fill="black" stroke="black" stroke-width="0.288" stroke-miterlimit="22.9256"/>
<path fill-rule="evenodd" clip-rule="evenodd" d="M27.9404 1H29.1071V9.66605H27.9404V1Z" fill="black" stroke="black" stroke-width="0.288" stroke-miterlimit="22.9256"/>
<path fill-rule="evenodd" clip-rule="evenodd" d="M30.8965 1H31.5492V9.66591H30.8965V1Z" fill="black" stroke="black" stroke-width="0.288" stroke-miterlimit="22.9256"/>
<path fill-rule="evenodd" clip-rule="evenodd" d="M31.8311 1H32.3332V9.6597H31.8311V1Z" fill="black" stroke="black" stroke-width="0.288" stroke-miterlimit="22.9256"/>
<path fill-rule="evenodd" clip-rule="evenodd" d="M34.2148 1H34.8677V9.65956H34.2148V1Z" fill="black" stroke="black" stroke-width="0.288" stroke-miterlimit="22.9256"/>
<path fill-rule="evenodd" clip-rule="evenodd" d="M32.7773 1H33.944V9.66591H32.7773V1Z" fill="black" stroke="black" stroke-width="0.288" stroke-miterlimit="22.9256"/>
<path fill-rule="evenodd" clip-rule="evenodd" d="M35.4346 1H37.5359V9.65956H35.4346V1Z" fill="black" stroke="black" stroke-width="0.288" stroke-miterlimit="22.9256"/>
<path fill-rule="evenodd" clip-rule="evenodd" d="M38.2012 1H38.8501V9.66281H38.2012V1Z" fill="black" stroke="black" stroke-width="0.288" stroke-miterlimit="22.9256"/>
<path fill-rule="evenodd" clip-rule="evenodd" d="M39.418 1H40.5845V9.65956H39.418V1Z" fill="black" stroke="black" stroke-width="0.288" stroke-miterlimit="22.9256"/>
<path fill-rule="evenodd" clip-rule="evenodd" d="M41.709 1H42.3619V9.65956H41.709V1Z" fill="black" stroke="black" stroke-width="0.288" stroke-miterlimit="22.9256"/>
<path fill-rule="evenodd" clip-rule="evenodd" d="M42.6436 1H43.1458V9.66859H42.6436V1Z" fill="black" stroke="black" stroke-width="0.288" stroke-miterlimit="22.9256"/>
<path fill-rule="evenodd" clip-rule="evenodd" d="M43.9727 1H45.1392V20.6635H43.9727V1Z" fill="black" stroke="black" stroke-width="0.288" stroke-miterlimit="22.9256"/>
<path d="M4.02832 20.6611V10.9117H7.88496C8.66978 10.9117 9.29907 11.0093 9.7751 11.2069C10.2489 11.4043 10.6196 11.7084 10.8877 12.119C11.158 12.5276 11.292 12.9566 11.292 13.4059C11.292 13.8212 11.1723 14.2138 10.9354 14.5814C10.6986 14.9491 10.3398 15.2464 9.85895 15.4733C10.4809 15.6458 10.9593 15.9408 11.292 16.3584C11.6269 16.7736 11.7943 17.2661 11.7943 17.8334C11.7943 18.2918 11.6914 18.7162 11.4881 19.1088C11.2848 19.5014 11.0336 19.8033 10.7345 20.0166C10.4354 20.2277 10.0599 20.3888 9.60997 20.4977C9.15783 20.6066 8.60517 20.6611 7.94972 20.6611H4.02832ZM5.3921 15.0104H7.61464C8.21764 15.0104 8.65069 14.9717 8.9114 14.8969C9.25835 14.7993 9.51906 14.6359 9.69381 14.4089C9.86842 14.182 9.95693 13.8983 9.95693 13.5557C9.95693 13.2312 9.87564 12.9452 9.7105 12.7002C9.54791 12.4527 9.31336 12.2826 9.00952 12.1918C8.70569 12.101 8.18413 12.0556 7.44724 12.0556H5.3921V15.0104ZM5.3921 19.5174H7.95212C8.39225 19.5174 8.70088 19.5014 8.88029 19.4698C9.19133 19.4175 9.4546 19.329 9.66512 19.2041C9.87564 19.0793 10.0478 18.8978 10.1843 18.6596C10.3207 18.4212 10.3876 18.1467 10.3876 17.8357C10.3876 17.4703 10.2895 17.1549 10.091 16.8848C9.89471 16.6148 9.622 16.4264 9.27278 16.3176C8.92583 16.2085 8.42335 16.154 7.7703 16.154H5.3921V19.5174ZM13.0289 17.1277C13.0289 15.8227 13.4116 14.8561 14.1796 14.2273C14.8184 13.7055 15.6008 13.4444 16.5219 13.4444C17.5435 13.4444 18.3809 13.7622 19.0316 14.3976C19.68 15.0307 20.0053 15.909 20.0053 17.0278C20.0053 17.9355 19.8618 18.6481 19.5748 19.1678C19.2876 19.6875 18.8688 20.0914 18.3186 20.3796C17.7707 20.6679 17.1703 20.8109 16.5219 20.8109C15.4788 20.8109 14.6366 20.4954 13.993 19.8623C13.3494 19.2291 13.0289 18.3168 13.0289 17.1277ZM14.3207 17.1299C14.3207 18.0331 14.529 18.7094 14.9452 19.1565C15.3638 19.6059 15.8879 19.8306 16.5219 19.8306C17.1486 19.8306 17.6703 19.6059 18.089 19.1543C18.5052 18.7026 18.7135 18.015 18.7135 17.0913C18.7135 16.22 18.5028 15.5595 18.0842 15.1124C17.6655 14.6631 17.144 14.4385 16.5219 14.4385C15.8879 14.4385 15.3638 14.6609 14.9452 15.1079C14.529 15.555 14.3207 16.229 14.3207 17.1299ZM21.4576 20.6611V10.9117H22.7208V20.6611H21.4576ZM29.757 18.3736L31.0634 18.537C30.8601 19.2564 30.4796 19.8169 29.9246 20.214C29.3695 20.6113 28.6613 20.8109 27.7976 20.8109C26.7115 20.8109 25.8502 20.4932 25.2137 19.8577C24.5773 19.2246 24.2592 18.3326 24.2592 17.1866C24.2592 16.0021 24.5799 15.0807 25.2233 14.4272C25.867 13.7712 26.7019 13.4444 27.7283 13.4444C28.7211 13.4444 29.5322 13.7644 30.1614 14.4067C30.7907 15.049 31.1065 15.9521 31.1065 17.1163C31.1065 17.1866 31.1041 17.2934 31.0993 17.4341H25.5512C25.5989 18.2079 25.8287 18.8025 26.2449 19.2133C26.6589 19.624 27.1781 19.8306 27.7976 19.8306C28.2594 19.8306 28.6542 19.7148 28.9796 19.4833C29.3073 19.2519 29.5657 18.8819 29.757 18.3736ZM25.6228 16.4537H29.7714C29.7164 15.8591 29.5561 15.4143 29.2954 15.117C28.8957 14.6564 28.3743 14.4248 27.7355 14.4248C27.1566 14.4248 26.6708 14.6086 26.276 14.9762C25.8837 15.344 25.666 15.8364 25.6228 16.4537ZM35.401 19.5922L35.5732 20.6498C35.2192 20.7201 34.901 20.7564 34.6234 20.7564C34.1665 20.7564 33.8123 20.6884 33.5588 20.55C33.3076 20.4114 33.1306 20.2322 33.0276 20.0075C32.9248 19.7828 32.8745 19.3109 32.8745 18.5914V14.5202H31.9414V13.5942H32.8745V11.8468L34.1378 11.1274V13.5942H35.401V14.5202H34.1378V18.6596C34.1378 19.0022 34.1593 19.2223 34.2048 19.3199C34.2479 19.4175 34.3196 19.4946 34.42 19.5536C34.5205 19.6104 34.6641 19.6399 34.8508 19.6399C34.9895 19.6399 35.1737 19.624 35.401 19.5922ZM36.1738 17.1277C36.1738 15.8227 36.5564 14.8561 37.3245 14.2273C37.9633 13.7055 38.7456 13.4444 39.6668 13.4444C40.6883 13.4444 41.5257 13.7622 42.1765 14.3976C42.8249 15.0307 43.1502 15.909 43.1502 17.0278C43.1502 17.9355 43.0067 18.6481 42.7196 19.1678C42.4324 19.6875 42.0138 20.0914 41.4635 20.3796C40.9157 20.6679 40.3151 20.8109 39.6668 20.8109C38.6237 20.8109 37.7815 20.4954 37.1379 19.8623C36.4943 19.2291 36.1738 18.3168 36.1738 17.1277ZM37.4656 17.1299C37.4656 18.0331 37.6738 18.7094 38.0901 19.1565C38.5088 19.6059 39.0327 19.8306 39.6668 19.8306C40.2936 19.8306 40.8151 19.6059 41.2338 19.1543C41.6501 18.7026 41.8583 18.015 41.8583 17.0913C41.8583 16.22 41.6477 15.5595 41.2291 15.1124C40.8103 14.6631 40.2888 14.4385 39.6668 14.4385C39.0327 14.4385 38.5088 14.6609 38.0901 15.1079C37.6738 15.555 37.4656 16.229 37.4656 17.1299Z" fill="black" stroke="black" stroke-width="0.320126" stroke-miterlimit="22.9256"/>
</svg>
