<svg width="1324" height="1013" viewBox="0 0 1324 1013" fill="none" xmlns="http://www.w3.org/2000/svg">
<path fill-rule="evenodd" clip-rule="evenodd" d="M1324 270.798C1226.65 270.798 1130.25 289.973 1040.31 327.227C950.373 364.482 868.651 419.086 799.814 487.923C730.977 556.76 676.373 638.482 639.118 728.422C601.864 818.362 582.689 914.759 582.689 1012.11L311.891 1012.11C311.891 879.197 338.07 747.586 388.933 624.792C439.796 501.997 514.348 390.423 608.331 296.44C702.314 202.457 813.888 127.905 936.683 77.0422C1059.48 26.179 1191.09 0 1324 0V270.798Z" fill="#45C907"/>
<path fill-rule="evenodd" clip-rule="evenodd" d="M160.696 728.426C123.442 638.486 68.837 556.764 0 487.927L191.483 296.444C285.466 390.427 360.018 502.001 410.881 624.796C461.744 747.59 487.923 879.201 487.923 1012.11H217.125C217.125 914.763 197.95 818.366 160.696 728.426Z" fill="#45C907"/>
</svg>
