<svg width="20" height="20" viewBox="0 0 20 20" fill="none" xmlns="http://www.w3.org/2000/svg">
<path d="M19.8507 9.31751C19.0456 7.57144 17.8664 6.02378 16.3966 4.78418L18.9232 2.25751L17.7441 1.07751L14.9999 3.81918C13.481 2.94061 11.7545 2.4851 9.99989 2.50001C3.74989 2.50001 0.880726 7.71751 0.149059 9.31751C0.0508413 9.53193 0 9.765 0 10.0008C0 10.2367 0.0508413 10.4698 0.149059 10.6842C0.954173 12.4303 2.13341 13.9779 3.60323 15.2175L1.07739 17.7442L2.25573 18.9225L4.99989 16.1808C6.51876 17.0594 8.2453 17.5149 9.99989 17.5C16.2499 17.5 19.1191 12.2825 19.8507 10.6825C19.9487 10.4683 19.9995 10.2356 19.9995 10C19.9995 9.76447 19.9487 9.53169 19.8507 9.31751ZM4.99989 10C4.99831 9.08219 5.24982 8.18169 5.72677 7.39751C6.20372 6.61334 6.88765 5.97584 7.70337 5.55511C8.51908 5.13437 9.43501 4.94669 10.3505 5.01268C11.2659 5.07868 12.1455 5.3958 12.8924 5.92918L11.6824 7.13918C11.1744 6.83285 10.5931 6.66958 9.99989 6.66668C9.11584 6.66668 8.26799 7.01787 7.64287 7.64299C7.01775 8.26811 6.66656 9.11596 6.66656 10C6.66946 10.5932 6.83273 11.1745 7.13906 11.6825L5.92906 12.8925C5.32486 12.049 4.99994 11.0376 4.99989 10ZM9.99989 15C8.96235 15 7.95086 14.675 7.10739 14.0708L8.31739 12.8608C8.82536 13.1672 9.40671 13.3304 9.99989 13.3333C10.8839 13.3333 11.7318 12.9822 12.3569 12.357C12.982 11.7319 13.3332 10.8841 13.3332 10C13.3303 9.40683 13.1671 8.82548 12.8607 8.31751L14.0707 7.10751C14.6041 7.85445 14.9212 8.73399 14.9872 9.64944C15.0532 10.5649 14.8655 11.4808 14.4448 12.2965C14.0241 13.1123 13.3866 13.7962 12.6024 14.2731C11.8182 14.7501 10.9177 15.0016 9.99989 15Z" fill="black"/>
</svg>
