<svg width="30" height="30" viewBox="0 0 30 30" fill="none" xmlns="http://www.w3.org/2000/svg">
<g clip-path="url(#clip0_26_2850)">
<path d="M20 0.375C20.8822 0.677472 21.685 1.17478 22.3487 1.83L24.4187 3.9025C25.0747 4.56536 25.5725 5.36783 25.875 6.25H20V0.375ZM26.25 8.75V23.75C26.248 25.407 25.5889 26.9956 24.4172 28.1672C23.2456 29.3389 21.657 29.998 20 30H10C8.34301 29.998 6.75445 29.3389 5.58277 28.1672C4.4111 26.9956 3.75198 25.407 3.75 23.75V6.25C3.75198 4.59301 4.4111 3.00445 5.58277 1.83277C6.75445 0.661102 8.34301 0.00198482 10 0L17.5 0V6.25C17.5 6.91304 17.7634 7.54893 18.2322 8.01777C18.7011 8.48661 19.337 8.75 20 8.75H26.25ZM21.01 21.7663C20.9136 21.6328 20.7917 21.5197 20.6514 21.4335C20.5112 21.3473 20.3553 21.2897 20.1927 21.2639C20.0301 21.2381 19.864 21.2447 19.7039 21.2833C19.5438 21.3219 19.393 21.3917 19.26 21.4887C18.4202 22.0734 17.4391 22.4226 16.4188 22.5C16.019 22.4891 15.6361 22.3362 15.3387 22.0688C14.6864 21.5511 13.8814 21.2633 13.0488 21.25C11.6621 21.3804 10.3413 21.9033 9.24125 22.7575C9.10472 22.8548 8.98917 22.9786 8.90147 23.1215C8.81377 23.2644 8.75572 23.4235 8.73076 23.5893C8.70581 23.7551 8.71446 23.9242 8.75621 24.0866C8.79796 24.249 8.87196 24.4013 8.97379 24.5345C9.07562 24.6677 9.2032 24.7791 9.34895 24.862C9.4947 24.9448 9.65564 24.9975 9.82217 25.017C9.98871 25.0364 10.1575 25.0221 10.3184 24.9749C10.4793 24.9278 10.629 24.8487 10.7588 24.7425C11.4245 24.2211 12.213 23.8793 13.0488 23.75C13.3563 23.75 13.5125 23.8475 13.9237 24.125C14.636 24.6876 15.5161 24.9956 16.4237 25C17.9773 24.929 19.4773 24.4112 20.7437 23.5087C21.0093 23.3124 21.1864 23.0189 21.2363 22.6924C21.2862 22.3659 21.2048 22.033 21.01 21.7663ZM21.25 17.5C21.25 17.1685 21.1183 16.8505 20.8839 16.6161C20.6495 16.3817 20.3315 16.25 20 16.25H10C9.66848 16.25 9.35054 16.3817 9.11612 16.6161C8.8817 16.8505 8.75 17.1685 8.75 17.5C8.75 17.8315 8.8817 18.1495 9.11612 18.3839C9.35054 18.6183 9.66848 18.75 10 18.75H20C20.3315 18.75 20.6495 18.6183 20.8839 18.3839C21.1183 18.1495 21.25 17.8315 21.25 17.5ZM21.25 12.5C21.25 12.1685 21.1183 11.8505 20.8839 11.6161C20.6495 11.3817 20.3315 11.25 20 11.25H10C9.66848 11.25 9.35054 11.3817 9.11612 11.6161C8.8817 11.8505 8.75 12.1685 8.75 12.5C8.75 12.8315 8.8817 13.1495 9.11612 13.3839C9.35054 13.6183 9.66848 13.75 10 13.75H20C20.3315 13.75 20.6495 13.6183 20.8839 13.3839C21.1183 13.1495 21.25 12.8315 21.25 12.5Z" fill="black"/>
</g>
<defs>
<clipPath id="clip0_26_2850">
<rect width="30" height="30" fill="white"/>
</clipPath>
</defs>
</svg>
