<svg width="52" height="20" viewBox="0 0 52 20" fill="none" xmlns="http://www.w3.org/2000/svg">
<path fill-rule="evenodd" clip-rule="evenodd" d="M24.8115 11.4905C24.8115 10.9748 24.779 10.5893 24.9759 10.0651C25.1958 9.4797 25.5145 9.05843 26.0138 8.69182C26.093 8.63364 26.1633 8.58788 26.2488 8.54185C27.2638 7.9973 28.3541 7.81738 29.3854 8.43452C29.6377 8.58548 30.097 8.93642 30.2276 9.18285C30.145 9.18977 29.6611 9.40753 29.5515 9.45625L28.8709 9.7507C28.6534 9.83967 28.434 9.93895 28.2068 10.0361L24.8115 11.4905ZM22.9889 14.6442C23.0434 14.6182 23.0886 14.6062 23.1515 14.5758C23.2211 14.5423 23.2357 14.5366 23.3116 14.5049C24.5945 13.9711 26.0961 13.3034 27.3871 12.7299L33.8213 9.92652C33.8046 9.72655 33.4364 8.97935 33.3336 8.77274C33.0931 8.28977 32.8398 7.94208 32.516 7.53819L31.9 6.92274C31.5931 6.67575 31.2837 6.45601 30.9117 6.26889C29.9744 5.79735 29.0704 5.50686 27.9949 5.4892C27.775 5.48553 27.0883 5.56066 26.8756 5.60402C26.4014 5.70047 26.0093 5.81105 25.616 5.98673L24.9345 6.33173C24.5926 6.54568 24.1692 6.86032 23.8935 7.13796C23.8078 7.22425 23.7781 7.26182 23.7001 7.35488C23.6287 7.44004 23.5791 7.47803 23.5057 7.57095C23.077 8.11338 22.6847 8.73447 22.4593 9.39737C22.0472 10.6088 21.938 11.6395 22.2595 12.9114C22.3123 13.1201 22.3816 13.3472 22.4571 13.5344C22.5429 13.7473 22.6109 13.9148 22.7066 14.1057C22.8001 14.2922 22.8927 14.4624 22.9889 14.6442Z" fill="black"/>
<path fill-rule="evenodd" clip-rule="evenodd" d="M0.0664062 9.9008C0.0664062 11.0941 0.104726 11.575 0.389612 12.7062C0.536085 13.2879 0.933515 14.3384 1.21656 14.803L1.58584 15.434C1.66912 15.5636 1.7524 15.6933 1.84472 15.8164L2.2659 16.3702C2.50738 16.6693 3.1183 17.3508 3.40333 17.5414L4.73133 16.0218C4.80471 15.9463 4.82296 15.927 4.88842 15.8454L6.07291 14.5159C6.03898 14.4654 5.53806 13.9685 5.32825 13.6958C4.85985 13.0868 4.49947 12.3544 4.30705 11.5878C4.25191 11.3685 4.2061 11.1539 4.17811 10.9218C4.04167 9.79503 4.20681 8.64549 4.71239 7.64437C4.99643 7.08217 5.13526 6.9151 5.4825 6.46503C5.5481 6.38001 5.60056 6.33906 5.67309 6.24515C5.73586 6.16394 5.79086 6.11932 5.86113 6.04842C5.92956 5.97909 6.03163 5.91144 6.07291 5.84973C5.96221 5.6845 5.5628 5.27651 5.41322 5.09857L4.06387 3.57465C3.99289 3.50178 3.97395 3.45673 3.8976 3.38174C3.75862 3.24504 3.52124 2.92023 3.37773 2.82434L3.03743 3.12542C2.71112 3.45532 2.40022 3.79086 2.11972 4.15733C1.83045 4.53481 1.4367 5.10507 1.23014 5.52506C1.01142 5.97005 0.915695 6.11324 0.719032 6.62983C0.349033 7.60144 0.0664062 8.7723 0.0664062 9.9008Z" fill="#00A4E0"/>
<path fill-rule="evenodd" clip-rule="evenodd" d="M6.79199 0.87564C6.79199 0.96122 7.34396 2.56818 7.41776 2.78891L7.7387 3.72464C7.79116 3.88139 8.04084 4.58863 8.04975 4.69596C8.15805 4.68706 8.32728 4.62168 8.43459 4.59315C8.56438 4.55869 8.68596 4.53356 8.8347 4.50559C9.86524 4.31269 11.2228 4.42256 12.1484 4.85822C13.327 5.41308 14.1784 6.08162 14.8535 7.20716C15.1038 7.62418 15.2939 8.04347 15.4336 8.52518C15.4722 8.65849 15.5245 8.93274 15.5707 9.02905L19.5495 8.20856C19.4797 7.90959 19.4124 7.64395 19.3295 7.35148C19.2423 7.04306 19.1477 6.81922 19.0459 6.53226C18.7466 5.68861 18.1848 4.83492 17.6574 4.12458C17.4196 3.80443 17.1542 3.52128 16.8734 3.24096C16.5873 2.95512 16.327 2.71491 16.0072 2.46537C15.9055 2.386 15.8115 2.31002 15.7031 2.23052C15.4807 2.06741 15.2782 1.94341 15.0421 1.78835C14.7008 1.56409 13.9771 1.21288 13.5905 1.0588C11.6448 0.283357 9.21941 0.0739258 7.12256 0.744304C7.05724 0.765063 6.79199 0.816892 6.79199 0.87564Z" fill="#FFCB08"/>
<path fill-rule="evenodd" clip-rule="evenodd" d="M10.1796 15.9261C8.93853 15.9261 9.17493 15.9061 8.0491 15.6441C8.03935 15.7622 7.93571 16.0225 7.89852 16.1347C7.84395 16.2995 7.7898 16.434 7.7314 16.6087L6.76562 19.49C6.99382 19.5993 7.90899 19.7982 8.15401 19.8467C10.2725 20.2676 12.5393 19.8412 14.3723 18.9346C14.4434 18.8994 14.4758 18.8822 14.5384 18.8441C14.6036 18.8045 14.6592 18.7815 14.7219 18.7453C15.1632 18.4909 15.798 18.0798 16.1796 17.74C16.2414 17.6849 16.2766 17.6659 16.334 17.6122C16.6111 17.353 17.1793 16.8236 17.4075 16.5307C18.1563 15.5694 18.5404 15.0644 19.0466 13.8091C19.2677 13.2607 19.4051 12.748 19.5489 12.1315C19.321 12.1126 15.6032 11.3269 15.5701 11.311C15.5359 11.3824 15.5291 11.4595 15.5082 11.5568C15.2687 12.6703 14.5779 13.7114 13.7416 14.4843C13.5506 14.6607 13.2547 14.8729 13.0395 15.0137C12.8047 15.1672 12.4926 15.3418 12.2224 15.4538C11.9083 15.5841 11.6351 15.6878 11.2838 15.7726C10.9726 15.8478 10.5591 15.9261 10.1796 15.9261Z" fill="#EF3E23"/>
<path fill-rule="evenodd" clip-rule="evenodd" d="M35.0537 14.6954C35.0537 15.4751 35.556 16.2823 36.2084 16.6189C36.5461 16.793 36.9296 16.9231 37.2861 17.0807L38.3906 17.5415C38.4135 17.4432 38.4674 17.3453 38.508 17.2484C38.556 17.1338 38.5888 17.0547 38.6386 16.943L39.2781 15.4536C39.3235 15.3453 39.3817 15.251 39.3917 15.1314C39.2405 15.1188 37.8423 14.4907 37.6205 14.4391V2.95245H35.0537V14.6954Z" fill="black"/>
<path fill-rule="evenodd" clip-rule="evenodd" d="M39.4678 11.4906C39.4678 12.0155 39.5534 12.5018 39.6451 12.9288C39.7753 13.5352 40.0515 14.1582 40.3712 14.6649C40.6181 15.056 41.1553 15.7755 41.4956 16.0031C41.5854 15.943 42.1136 15.3559 42.1996 15.2448C42.4132 14.9684 43.1723 14.2078 43.3439 13.9519C43.1016 13.7899 42.7122 13.2369 42.5733 12.9525C41.9338 11.6452 42.2254 10.356 43.0948 9.31872C43.1615 9.23893 43.2387 9.134 43.3439 9.10604C43.3325 8.96863 43.0484 8.74154 42.9223 8.57843L42.5797 8.20264C42.5195 8.14234 42.5151 8.12398 42.4635 8.06241L42.0029 7.54808C41.9613 7.50317 41.9284 7.47818 41.8868 7.43341L41.5471 7.02924C41.3598 7.07287 40.8867 7.64426 40.7401 7.83843C40.5143 8.13754 40.2663 8.5002 40.1003 8.8404L39.8566 9.41729C39.7798 9.62361 39.7203 9.81412 39.6629 10.0445C39.6076 10.2657 39.5543 10.5055 39.5261 10.7284C39.4977 10.9531 39.4678 11.265 39.4678 11.4906Z" fill="black"/>
<path fill-rule="evenodd" clip-rule="evenodd" d="M45.6799 14.7467C44.9289 14.7467 45.1524 14.7568 44.4478 14.5929L44.0082 15.8972C43.9367 16.1117 43.866 16.3237 43.7902 16.5512C43.7338 16.7201 43.5881 17.0528 43.5752 17.2082C43.8922 17.3601 44.8476 17.5157 45.2437 17.5157C46.338 17.5157 46.8877 17.4401 47.8472 17.0397C48.3863 16.8147 48.8253 16.5319 49.2704 16.1792C49.6534 15.8757 49.7641 15.7447 50.101 15.3681C50.7521 14.6403 51.1576 13.6686 51.3785 12.7211L48.6832 12.1571C48.616 12.2969 48.5864 12.5174 48.5187 12.685C48.3921 12.9981 48.2164 13.3035 48.0078 13.5593C47.7492 13.8768 47.5944 14.0098 47.2664 14.2288C47.1198 14.3268 46.9859 14.3931 46.8184 14.4736C46.5452 14.605 46.0713 14.7467 45.6799 14.7467Z" fill="black"/>
<path fill-rule="evenodd" clip-rule="evenodd" d="M43.5752 5.82415L44.4518 8.43802C45.1055 8.28691 44.9645 8.2855 45.6544 8.2855C46.0562 8.2855 46.5039 8.41683 46.7835 8.54224C47.1928 8.72568 47.3165 8.8357 47.6458 9.09117C48.0637 9.41541 48.6462 10.3658 48.6576 10.8751C48.8424 10.8751 49.1553 10.7843 49.3268 10.7488L51.3785 10.3367C51.3607 10.1231 51.1681 9.52655 51.0856 9.32164C50.9556 8.99937 50.8199 8.7278 50.6517 8.44748C50.5625 8.29863 50.4983 8.19272 50.3992 8.0587L49.9559 7.50158C49.9002 7.4297 49.8556 7.39241 49.7935 7.33042C49.4444 6.98245 49.1239 6.7137 48.704 6.44439C48.4166 6.25996 48.1567 6.13371 47.8274 5.9867C46.8372 5.54453 45.515 5.3947 44.3898 5.61232C43.9876 5.69013 43.8434 5.76173 43.5752 5.82415Z" fill="black"/>
<path fill-rule="evenodd" clip-rule="evenodd" d="M27.9431 14.9006C27.0099 14.9006 26.7253 14.6298 26.1718 14.2596C26.0771 14.4386 25.934 14.6287 25.8175 14.8032C25.6846 15.0025 24.7573 16.3531 24.7344 16.439C24.8052 16.5447 25.2353 16.7793 25.3761 16.8492C25.6341 16.9774 25.8305 17.068 26.1303 17.1728C26.4006 17.2672 26.6774 17.36 26.9708 17.4101C28.2185 17.6234 29.2948 17.5099 30.4498 16.9943C31.0727 16.7163 31.3989 16.512 31.9183 16.1023C32.1913 15.8871 32.9619 15.0964 33.0255 14.8237C32.6555 14.5763 32.2916 14.3349 31.9166 14.0852L31.3675 13.7107C31.2528 13.6313 30.908 13.3892 30.7922 13.3622C30.7051 13.5266 30.4448 13.8402 30.3108 13.9581C30.1092 14.1355 29.8981 14.2801 29.6641 14.4147C29.2527 14.6515 28.5878 14.9006 27.9431 14.9006Z" fill="black"/>
</svg>
