<svg width="20" height="20" viewBox="0 0 20 20" fill="none" xmlns="http://www.w3.org/2000/svg">
<g clip-path="url(#clip0_80_105)">
<path d="M20 10C20 11.9778 19.4135 13.9112 18.3147 15.5557C17.2159 17.2002 15.6541 18.4819 13.8268 19.2388C11.9996 19.9957 9.98891 20.1937 8.0491 19.8079C6.10929 19.422 4.32746 18.4696 2.92894 17.0711C1.53041 15.6725 0.578004 13.8907 0.192152 11.9509C-0.193701 10.0111 0.00433286 8.00043 0.761209 6.17317C1.51809 4.3459 2.79981 2.78412 4.4443 1.6853C6.08879 0.58649 8.02219 0 10 0C12.6513 0.00286757 15.1932 1.05736 17.0679 2.9321C18.9426 4.80684 19.9971 7.34872 20 10ZM10.8333 4.16667H9.16667V12.5H10.8333V4.16667ZM10.8333 14.1667H9.16667V15.8333H10.8333V14.1667Z" fill="white"/>
</g>
<defs>
<clipPath id="clip0_80_105">
<rect width="20" height="20" fill="white"/>
</clipPath>
</defs>
</svg>
