<svg width="20" height="20" viewBox="0 0 20 20" fill="none" xmlns="http://www.w3.org/2000/svg">
<path d="M19.8507 9.3175C19.1191 7.7175 16.2499 2.5 9.99989 2.5C3.74989 2.5 0.880726 7.7175 0.149059 9.3175C0.0508413 9.53192 0 9.76499 0 10.0008C0 10.2367 0.0508413 10.4697 0.149059 10.6842C0.880726 12.2825 3.74989 17.5 9.99989 17.5C16.2499 17.5 19.1191 12.2825 19.8507 10.6825C19.9487 10.4683 19.9995 10.2355 19.9995 10C19.9995 9.76446 19.9487 9.53168 19.8507 9.3175ZM9.99989 15C9.01099 15 8.04429 14.7068 7.22204 14.1573C6.3998 13.6079 5.75893 12.827 5.3805 11.9134C5.00206 10.9998 4.90304 9.99445 5.09597 9.02455C5.28889 8.05464 5.7651 7.16373 6.46436 6.46447C7.16362 5.7652 8.05454 5.289 9.02444 5.09607C9.99435 4.90315 10.9997 5.00216 11.9133 5.3806C12.8269 5.75904 13.6078 6.3999 14.1572 7.22215C14.7066 8.04439 14.9999 9.01109 14.9999 10C14.9986 11.3257 14.4714 12.5967 13.534 13.5341C12.5966 14.4715 11.3256 14.9987 9.99989 15Z" fill="black"/>
<path d="M9.99984 13.3334C11.8408 13.3334 13.3332 11.841 13.3332 10C13.3332 8.15907 11.8408 6.66669 9.99984 6.66669C8.15889 6.66669 6.6665 8.15907 6.6665 10C6.6665 11.841 8.15889 13.3334 9.99984 13.3334Z" fill="black"/>
</svg>
