<svg width="33" height="20" viewBox="0 0 33 20" fill="none" xmlns="http://www.w3.org/2000/svg">
<path d="M20.5224 2.4444H11.9277V17.8717H20.5224V2.4444Z" fill="#FF5F00"/>
<path d="M12.473 10.158C12.4731 10.1551 12.4731 10.1515 12.4731 10.1491C12.4731 7.14183 13.857 4.30074 16.2249 2.44495C14.4958 1.08569 12.3551 0.34668 10.1546 0.34668C4.73073 0.34668 0.332031 4.74022 0.332031 10.158C0.332031 15.5756 4.73073 19.9692 10.1546 19.9692C12.3551 19.9692 14.4958 19.2302 16.2249 17.8718C13.857 16.0152 12.473 13.1741 12.473 10.1668C12.473 10.1644 12.473 10.1609 12.473 10.1585V10.158Z" fill="#EB001B"/>
<path d="M32.1167 10.158C32.1167 10.1583 32.1167 10.1583 32.1167 10.1583C32.1167 15.5758 27.7183 19.9692 22.2946 19.9692C20.0941 19.9692 17.9537 19.2302 16.2246 17.872C18.5922 16.0125 19.9762 13.1673 19.9762 10.158C19.9762 7.14861 18.5922 4.30342 16.2247 2.4441C17.9537 1.08569 20.0941 0.34668 22.2946 0.34668C27.7183 0.34668 32.1167 4.74008 32.1167 10.1577V10.158Z" fill="#F79E1B"/>
<path d="M31.1797 16.2377V15.9218H31.3072V15.8576H30.9824V15.9218H31.1099V16.2377H31.1797ZM31.8101 16.2377V15.8569H31.7105L31.596 16.1188L31.4815 15.8569H31.382V16.2377H31.4522V15.9505L31.5596 16.1982H31.6325L31.7398 15.9498V16.2377H31.8101Z" fill="#F79E1B"/>
</svg>
