<svg width="61" height="21" viewBox="0 0 61 21" fill="none" xmlns="http://www.w3.org/2000/svg">
<path d="M25.2967 19.9083C25.1983 19.9083 25.104 19.8693 25.0344 19.7998C24.9649 19.7303 24.9258 19.636 24.9258 19.5378V7.53862C24.9271 6.38067 25.3881 5.27051 26.2078 4.45165C27.0275 3.6328 28.1388 3.17211 29.298 3.17064L32.8462 3.17619C34.0025 3.17995 35.1102 3.64094 35.9271 4.45833C36.7441 5.27573 37.2037 6.38301 37.2055 7.538V10.0922C37.2042 11.2501 36.7431 12.3602 35.9234 13.179C35.1037 13.9977 33.9924 14.4583 32.8332 14.4596H27.8198C27.7214 14.4596 27.6271 14.4206 27.5575 14.3511C27.4879 14.2816 27.4489 14.1873 27.4489 14.0891C27.4489 13.9908 27.4879 13.8965 27.5575 13.827C27.6271 13.7576 27.7214 13.7185 27.8198 13.7185H32.832C33.7946 13.7174 34.7174 13.335 35.3982 12.6552C36.079 11.9754 36.4621 11.0537 36.4636 10.0922V7.538C36.4621 6.57896 36.0806 5.65951 35.4023 4.98068C34.7241 4.30184 33.8044 3.91884 32.8443 3.91541L29.298 3.90985C28.335 3.911 27.4117 4.2937 26.7307 4.974C26.0498 5.65429 25.6668 6.57662 25.6658 7.53862V19.5384C25.6657 19.6362 25.6268 19.73 25.5576 19.7993C25.4885 19.8686 25.3947 19.9078 25.2967 19.9083ZM41.0071 14.5133C40.9087 14.5133 40.8144 14.4743 40.7448 14.4048C40.6752 14.3353 40.6361 14.2411 40.6361 14.1428V5.17955C40.6358 4.84252 40.5017 4.51938 40.2631 4.28101C40.0246 4.04263 39.7012 3.90849 39.3638 3.908H37.8237C37.7253 3.908 37.631 3.86896 37.5614 3.79947C37.4918 3.72998 37.4528 3.63574 37.4528 3.53747C37.4528 3.43919 37.4918 3.34495 37.5614 3.27546C37.631 3.20597 37.7253 3.16693 37.8237 3.16693H39.3625C39.8961 3.16742 40.4077 3.37936 40.785 3.75623C41.1623 4.1331 41.3745 4.64411 41.3749 5.17708V14.144C41.3746 14.2415 41.3358 14.335 41.267 14.4041C41.1981 14.4733 41.1047 14.5125 41.0071 14.5133Z" fill="#939598"/>
<path d="M40.6768 2.14978L39.9794 1.45255C39.9383 1.41144 39.9056 1.36262 39.8834 1.3089C39.8611 1.25518 39.8496 1.1976 39.8496 1.13945C39.8496 1.0813 39.8611 1.02372 39.8834 0.970001C39.9056 0.916279 39.9383 0.867468 39.9794 0.826351L40.6768 0.129746C40.7601 0.0466676 40.8729 0 40.9906 0C41.1083 0 41.2211 0.0466676 41.3044 0.129746L42.0017 0.826351C42.0429 0.867468 42.0756 0.916279 42.0978 0.970001C42.1201 1.02372 42.1316 1.0813 42.1316 1.13945C42.1316 1.1976 42.1201 1.25518 42.0978 1.3089C42.0756 1.36262 42.0429 1.41144 42.0017 1.45255L41.3044 2.14978C41.2211 2.23285 41.1083 2.27952 40.9906 2.27952C40.8729 2.27952 40.7601 2.23285 40.6768 2.14978Z" fill="#32BCAD"/>
<path d="M45.4847 14.4348H43.9588C43.8605 14.4348 43.7661 14.3958 43.6965 14.3263C43.627 14.2568 43.5879 14.1626 43.5879 14.0643C43.5879 13.966 43.627 13.8718 43.6965 13.8023C43.7661 13.7328 43.8605 13.6938 43.9588 13.6938H45.4847C45.8249 13.6947 46.162 13.6282 46.4763 13.4981C46.7906 13.368 47.076 13.177 47.3159 12.936L50.8851 9.37086C51.0294 9.22674 51.2006 9.11242 51.3891 9.03443C51.5777 8.95643 51.7797 8.91629 51.9837 8.91629C52.1878 8.91629 52.3898 8.95643 52.5783 9.03443C52.7668 9.11242 52.9381 9.22674 53.0824 9.37086L56.6385 12.923C56.8787 13.1647 57.1645 13.3563 57.4794 13.4867C57.7943 13.6171 58.132 13.6837 58.4729 13.6826H59.7094C59.8078 13.6826 59.9021 13.7217 59.9717 13.7912C60.0412 13.8607 60.0803 13.9549 60.0803 14.0532C60.0803 14.1514 60.0412 14.2457 59.9717 14.3152C59.9021 14.3847 59.8078 14.4237 59.7094 14.4237H58.4729C58.0354 14.4249 57.6021 14.3393 57.198 14.172C56.7939 14.0048 56.427 13.7591 56.1186 13.4492L52.5593 9.89393C52.4838 9.81838 52.394 9.75844 52.2953 9.71755C52.1965 9.67666 52.0906 9.65562 51.9837 9.65562C51.8768 9.65562 51.771 9.67666 51.6722 9.71755C51.5734 9.75844 51.4837 9.81838 51.4081 9.89393L47.839 13.4609C47.5305 13.7707 47.1636 14.0162 46.7595 14.1834C46.3554 14.3506 45.9221 14.436 45.4847 14.4348ZM51.9813 8.67796C51.7771 8.67832 51.5749 8.63829 51.3864 8.56017C51.1978 8.48205 51.0266 8.36739 50.8826 8.22282L47.3135 4.65766C47.0735 4.41763 46.7884 4.22743 46.4745 4.09801C46.1607 3.96859 45.8242 3.90253 45.4847 3.90362H43.9588C43.8605 3.90362 43.7661 3.86458 43.6965 3.79509C43.627 3.72561 43.5879 3.63136 43.5879 3.53309C43.5879 3.43482 43.627 3.34057 43.6965 3.27108C43.7661 3.20159 43.8605 3.16255 43.9588 3.16255H45.4847C45.922 3.1612 46.3552 3.24647 46.7593 3.41342C47.1634 3.58037 47.5304 3.8257 47.839 4.13521L51.4081 7.70037C51.4837 7.77592 51.5734 7.83585 51.6722 7.87674C51.771 7.91763 51.8768 7.93868 51.9837 7.93868C52.0906 7.93868 52.1965 7.91763 52.2953 7.87674C52.394 7.83585 52.4838 7.77592 52.5593 7.70037L56.1155 4.15064C56.4241 3.84004 56.7914 3.59378 57.1961 3.42617C57.6008 3.25856 58.0348 3.17294 58.4729 3.17429H59.7094C59.8078 3.17429 59.9021 3.21332 59.9717 3.28281C60.0412 3.3523 60.0803 3.44655 60.0803 3.54482C60.0803 3.64309 60.0412 3.73734 59.9717 3.80683C59.9021 3.87632 59.8078 3.91536 59.7094 3.91536H58.4729C58.1327 3.91434 57.7957 3.98073 57.4813 4.11069C57.167 4.24065 56.8816 4.4316 56.6416 4.67248L53.0854 8.22467C52.9407 8.36958 52.7685 8.48428 52.5789 8.5621C52.3894 8.63992 52.1862 8.6793 51.9813 8.67796Z" fill="#939598"/>
<path d="M16.199 16.3431C15.8223 16.344 15.4491 16.2704 15.101 16.1265C14.753 15.9825 14.4369 15.7711 14.1711 15.5044L11.2431 12.5797C11.1396 12.4808 11.0018 12.4256 10.8585 12.4256C10.7153 12.4256 10.5775 12.4808 10.474 12.5797L7.53545 15.5137C7.26966 15.7804 6.9536 15.9918 6.60554 16.1357C6.25747 16.2797 5.8843 16.3533 5.50759 16.3524H4.93262L8.64212 20.0577C9.19852 20.6126 9.95265 20.9243 10.7389 20.9243C11.5252 20.9243 12.2793 20.6126 12.8357 20.0577L16.5545 16.3431H16.199Z" fill="#32BCAD"/>
<path d="M5.50775 5.99841C5.88449 5.99732 6.2577 6.07088 6.60578 6.21484C6.95386 6.35879 7.2699 6.57028 7.53561 6.83705L10.4742 9.77045C10.5763 9.87212 10.7145 9.92921 10.8587 9.92921C11.0029 9.92921 11.1412 9.87212 11.2433 9.77045L14.1713 6.8457C14.437 6.57892 14.753 6.36744 15.1011 6.22348C15.4492 6.07953 15.8224 6.00597 16.1992 6.00705H16.5516L12.8328 2.29245C12.2764 1.73752 11.5222 1.42584 10.736 1.42584C9.94972 1.42584 9.19559 1.73752 8.63919 2.29245L4.92969 5.99779L5.50775 5.99841Z" fill="#32BCAD"/>
<path d="M19.6272 9.08129L17.3798 6.83646C17.3293 6.85749 17.2751 6.8686 17.2203 6.8692H16.199C15.6661 6.86972 15.155 7.08059 14.777 7.45587L11.8496 10.3806C11.5859 10.6437 11.2284 10.7914 10.8558 10.7914C10.4831 10.7914 10.1256 10.6437 9.86192 10.3806L6.92337 7.44538C6.54625 7.07068 6.03641 6.85965 5.50449 6.85808H4.25253C4.20083 6.85722 4.14971 6.84697 4.10168 6.82782L1.84445 9.08129C1.28871 9.63709 0.976562 10.3905 0.976563 11.176C0.976562 11.9616 1.28871 12.715 1.84445 13.2708L4.10044 15.5243C4.14842 15.5048 4.19954 15.4944 4.2513 15.4934H5.50758C6.03942 15.492 6.54927 15.2812 6.92646 14.9067L9.86501 11.9715C10.3961 11.4416 11.3216 11.441 11.8527 11.9715L14.7801 14.8962C15.1578 15.2719 15.669 15.4831 16.2021 15.4835H17.2234C17.2784 15.484 17.3327 15.4949 17.3835 15.5156L19.6303 13.2714C20.186 12.7156 20.4982 11.9622 20.4982 11.1767C20.4982 10.3911 20.186 9.63771 19.6303 9.0819L19.6272 9.08129Z" fill="#32BCAD"/>
<path d="M28.3461 18.5188C28.1605 18.5269 27.9762 18.5549 27.7965 18.6022V19.334C27.9342 19.382 28.0791 19.406 28.2249 19.405C28.5916 19.405 28.7659 19.2815 28.7659 18.9585C28.7659 18.6547 28.6231 18.5188 28.3461 18.5188ZM27.6729 19.8774V18.4305H27.7736L27.7841 18.4922C27.9714 18.4423 28.1632 18.4114 28.3566 18.4002C28.4909 18.391 28.624 18.4295 28.7325 18.5089C28.8562 18.6114 28.8982 18.7769 28.8982 18.9573C28.8982 19.1376 28.8364 19.3241 28.6633 19.4229C28.531 19.4881 28.3848 19.5203 28.2373 19.5168C28.0879 19.5161 27.9394 19.4936 27.7965 19.4501V19.8756L27.6729 19.8774Z" fill="#939598"/>
<path d="M29.8206 18.5145C29.4534 18.5145 29.2895 18.6293 29.2895 18.9523C29.2895 19.2648 29.4509 19.405 29.8206 19.405C30.1903 19.405 30.3492 19.292 30.3492 18.969C30.3492 18.6565 30.1878 18.5145 29.8206 18.5145ZM30.2923 19.4043C30.1687 19.492 30.0073 19.5174 29.8206 19.5174C29.6339 19.5174 29.4657 19.4902 29.3464 19.4043C29.2116 19.3099 29.1572 19.1573 29.1572 18.9603C29.1572 18.7633 29.2116 18.6102 29.3464 18.5132C29.4657 18.4274 29.6296 18.4008 29.8206 18.4008C30.0116 18.4008 30.1705 18.4274 30.2923 18.5132C30.429 18.6102 30.4815 18.767 30.4815 18.9579C30.4815 19.1487 30.4265 19.3099 30.2923 19.4043Z" fill="#939598"/>
<path d="M32.0297 19.4889L31.621 18.6107H31.6124L31.2093 19.4889H31.0986L30.6621 18.4304H30.7981L31.161 19.3191H31.1697L31.5641 18.4304H31.6773L32.0822 19.3191H32.0909L32.4451 18.4304H32.5775L32.141 19.4889H32.0297Z" fill="#939598"/>
<path d="M33.3719 18.5119C33.0319 18.5119 32.9169 18.6632 32.8959 18.8825H33.848C33.8381 18.6416 33.7138 18.5119 33.3719 18.5119ZM33.3682 19.518C33.1642 19.518 33.0319 19.4889 32.9274 19.4006C32.8038 19.2938 32.7617 19.1388 32.7617 18.9609C32.7617 18.7831 32.818 18.6108 32.9589 18.5082C33.0823 18.4309 33.2265 18.3936 33.3719 18.4014C33.5204 18.3923 33.6682 18.4281 33.796 18.5039C33.9488 18.6064 33.9815 18.7868 33.9815 18.9918H32.8885C32.8928 19.2098 32.9639 19.4031 33.375 19.4031C33.5591 19.3986 33.7424 19.3779 33.9228 19.3413V19.4525C33.7395 19.4901 33.5534 19.5118 33.3664 19.5173L33.3682 19.518Z" fill="#939598"/>
<path d="M34.3311 19.489V18.4305H34.4318L34.4423 18.4922C34.6668 18.4354 34.7719 18.4002 34.9685 18.4002H34.9833V18.5175H34.9543C34.7886 18.5175 34.6878 18.5404 34.4547 18.6009V19.4877L34.3311 19.489Z" fill="#939598"/>
<path d="M35.702 18.5119C35.362 18.5119 35.247 18.6632 35.226 18.8825H36.1781C36.1682 18.6416 36.0439 18.5119 35.702 18.5119ZM35.6977 19.518C35.4943 19.518 35.362 19.4889 35.2575 19.4006C35.1338 19.2938 35.0918 19.1388 35.0918 18.9609C35.0918 18.7831 35.1481 18.6108 35.289 18.5082C35.4124 18.4309 35.5566 18.3936 35.702 18.4014C35.8505 18.3923 35.9982 18.4281 36.1261 18.5039C36.2788 18.6064 36.3116 18.7868 36.3116 18.9918H35.2216C35.226 19.2098 35.2971 19.4031 35.7082 19.4031C35.8922 19.3986 36.0755 19.3779 36.256 19.3413V19.4525C36.0727 19.4901 35.8865 19.5118 35.6995 19.5173L35.6977 19.518Z" fill="#939598"/>
<path d="M37.6646 18.5854C37.5271 18.5375 37.3824 18.5134 37.2368 18.5144C36.8695 18.5144 36.6958 18.6379 36.6958 18.9609C36.6958 19.2666 36.838 19.4006 37.115 19.4006C37.3005 19.3923 37.4846 19.365 37.6646 19.3191V18.5854ZM37.6881 19.4889L37.6776 19.4272C37.4901 19.4769 37.2981 19.5077 37.1044 19.5192C36.9703 19.5295 36.837 19.4909 36.7292 19.4105C36.6055 19.3074 36.5635 19.1419 36.5635 18.9622C36.5635 18.7732 36.6253 18.5953 36.7984 18.4984C36.9308 18.4314 37.0779 18.3985 37.2262 18.4027C37.3748 18.4044 37.5223 18.4268 37.6646 18.4693V17.9839H37.7882V19.4889H37.6881Z" fill="#939598"/>
<path d="M39.6036 18.5188C39.4177 18.5268 39.2332 18.5548 39.0533 18.6021V19.3315C39.1907 19.3812 39.3357 19.4061 39.4818 19.4049C39.849 19.4049 40.0228 19.2814 40.0228 18.9585C40.0228 18.6546 39.8806 18.5188 39.6036 18.5188ZM39.9201 19.4241C39.7878 19.4893 39.6417 19.5215 39.4942 19.518C39.3328 19.517 39.1727 19.4901 39.0199 19.4383L39.0138 19.4889H38.9297V17.9839H39.0533V18.4891C39.2368 18.4422 39.4244 18.4129 39.6135 18.4014C39.7477 18.392 39.8809 18.4306 39.9894 18.5101C40.113 18.6126 40.1551 18.7781 40.1551 18.9585C40.1551 19.1388 40.0932 19.3253 39.9201 19.4241Z" fill="#939598"/>
<path d="M40.3198 19.8983V19.7834C40.3816 19.7896 40.4373 19.7939 40.4768 19.7939C40.6302 19.7939 40.7241 19.7495 40.8088 19.5753L40.8484 19.492L40.292 18.4335H40.4348L40.9146 19.3425H40.9232L41.3739 18.4291H41.5143L40.9146 19.6186C40.8051 19.8347 40.6877 19.9057 40.4713 19.9057C40.4202 19.9051 40.3692 19.9016 40.3186 19.8952L40.3198 19.8983Z" fill="#939598"/>
<path d="M43.2174 18.885H42.8062V19.2555H43.2192C43.503 19.2555 43.6099 19.224 43.6099 19.0702C43.6099 18.9047 43.4628 18.885 43.2174 18.885ZM43.1401 18.2834H42.8062V18.6632H43.1438C43.4232 18.6632 43.5345 18.6299 43.5345 18.4724C43.5345 18.3051 43.3936 18.2872 43.1419 18.2872L43.1401 18.2834ZM43.7781 19.3883C43.6266 19.4846 43.4443 19.4889 43.1104 19.4889H42.4854V18.0531H43.098C43.3855 18.0531 43.5617 18.0574 43.7083 18.1457C43.757 18.1747 43.7966 18.2167 43.8226 18.267C43.8487 18.3174 43.86 18.374 43.8554 18.4304C43.8554 18.5811 43.7936 18.6818 43.6285 18.7491V18.7571C43.814 18.7991 43.9327 18.8936 43.9327 19.0968C43.9373 19.1548 43.9254 19.2129 43.8984 19.2645C43.8714 19.3161 43.8303 19.359 43.78 19.3883H43.7781Z" fill="#939598"/>
<path d="M45.1885 19.0443C45.0649 19.0338 44.9412 19.0276 44.8064 19.0276C44.59 19.0276 44.5146 19.0715 44.5146 19.1703C44.5146 19.2691 44.5764 19.3129 44.7434 19.3129C44.8935 19.3077 45.0426 19.287 45.1885 19.2512V19.0455V19.0443ZM45.2503 19.4889L45.2423 19.4272C45.0547 19.4795 44.8618 19.5103 44.6673 19.5192C44.5549 19.527 44.4428 19.4999 44.3464 19.4414C44.305 19.4066 44.2728 19.3622 44.2528 19.312C44.2328 19.2618 44.2255 19.2074 44.2316 19.1537C44.2377 19.1 44.2571 19.0486 44.2879 19.0042C44.3187 18.9598 44.3601 18.9237 44.4083 18.8992C44.5196 18.8467 44.6686 18.8423 44.8052 18.8423C44.9159 18.8423 45.0649 18.8485 45.1891 18.8572V18.838C45.1891 18.6725 45.0797 18.6182 44.7817 18.6182C44.6667 18.6182 44.5257 18.6244 44.3916 18.6367V18.423C44.5406 18.4107 44.7081 18.4026 44.8466 18.4026C45.0321 18.4026 45.2225 18.4169 45.3412 18.5008C45.4599 18.5848 45.4859 18.7065 45.4859 18.8633V19.4902L45.2503 19.4889Z" fill="#939598"/>
<path d="M46.8683 19.489V18.9041C46.8683 18.7115 46.7694 18.6423 46.5932 18.6423C46.4469 18.6488 46.3018 18.6711 46.1604 18.709V19.489H45.8643V18.4305H46.1085L46.1184 18.4972C46.303 18.4435 46.4933 18.4114 46.6853 18.4014C46.8156 18.391 46.9451 18.4298 47.0482 18.5101C47.1323 18.5855 47.1638 18.6905 47.1638 18.8411V19.489H46.8683Z" fill="#939598"/>
<path d="M47.9972 19.518C47.8605 19.518 47.7115 19.4995 47.6027 19.4068C47.4723 19.3025 47.4346 19.1369 47.4346 18.9585C47.4346 18.7911 47.489 18.6083 47.651 18.5058C47.7826 18.42 47.9465 18.4008 48.1165 18.4008C48.2401 18.4008 48.3576 18.4095 48.4874 18.4218V18.6485C48.3805 18.638 48.2525 18.6293 48.1499 18.6293C47.8686 18.6293 47.7363 18.7176 47.7363 18.9609C47.7363 19.1894 47.8352 19.2876 48.0658 19.2876C48.2155 19.2827 48.3645 19.2645 48.5109 19.2333V19.4513C48.3414 19.4901 48.1685 19.5124 47.9947 19.518H47.9972Z" fill="#939598"/>
<path d="M49.3854 18.6231C49.1041 18.6231 48.9804 18.7114 48.9804 18.9523C48.9804 19.1931 49.1041 19.2962 49.3854 19.2962C49.6667 19.2962 49.786 19.2098 49.786 18.9689C49.786 18.7281 49.6667 18.6231 49.3854 18.6231ZM49.8954 19.4043C49.7656 19.4926 49.5956 19.5155 49.3878 19.5155C49.1801 19.5155 49.0058 19.4902 48.8778 19.4043C48.7313 19.308 48.6787 19.1486 48.6787 18.9584C48.6787 18.7682 48.7313 18.6058 48.8778 18.5095C49.0058 18.4236 49.1758 18.3983 49.3878 18.3983C49.5999 18.3983 49.7656 18.4236 49.8954 18.5095C50.0426 18.6058 50.0926 18.7676 50.0926 18.956C50.0926 19.1443 50.0401 19.308 49.8954 19.4043Z" fill="#939598"/>
<path d="M51.8002 19.5179C51.6216 19.5179 51.4293 19.4889 51.284 19.3691C51.1121 19.2264 51.0596 19.0066 51.0596 18.7701C51.0596 18.5582 51.1263 18.3069 51.3508 18.1599C51.5251 18.0469 51.7415 18.024 51.9597 18.024C52.1193 18.024 52.2825 18.0345 52.4611 18.0487V18.3069C52.3078 18.2939 52.1192 18.2834 51.9721 18.2834C51.5628 18.2834 51.3891 18.439 51.3891 18.7701C51.3891 19.1011 51.5505 19.2585 51.8528 19.2585C52.0684 19.2509 52.2828 19.2219 52.4927 19.1721V19.4278C52.2654 19.4805 52.0335 19.5107 51.8002 19.5179Z" fill="#939598"/>
<path d="M53.3616 18.5898C53.1143 18.5898 53.0216 18.6781 53.0024 18.8368H53.7159C53.7078 18.6652 53.6071 18.5898 53.3616 18.5898ZM53.3171 19.5161C53.1434 19.5161 52.9857 19.4952 52.8683 19.3988C52.7508 19.3025 52.6982 19.137 52.6982 18.9566C52.6982 18.7955 52.7508 18.6151 52.8979 18.5102C53.0278 18.4181 53.1935 18.399 53.3616 18.399C53.5125 18.399 53.6912 18.4157 53.821 18.5058C53.991 18.6256 54.0065 18.8103 54.0065 19.0283H53.0006C53.0067 19.1895 53.0927 19.2944 53.3907 19.2944C53.58 19.2904 53.7687 19.2721 53.9551 19.2395V19.447C53.7447 19.4873 53.5313 19.5104 53.3171 19.5161Z" fill="#939598"/>
<path d="M55.3247 19.489V18.9042C55.3247 18.7115 55.2258 18.6423 55.0496 18.6423C54.9033 18.6488 54.7582 18.6711 54.6168 18.709V19.489H54.3213V18.4305H54.5624L54.5729 18.4972C54.7573 18.4435 54.9474 18.4113 55.1392 18.4015C55.2696 18.391 55.3991 18.4298 55.5021 18.5101C55.5862 18.5855 55.6178 18.6905 55.6178 18.8412V19.489H55.3247Z" fill="#939598"/>
<path d="M56.4598 19.518C56.317 19.518 56.1871 19.4784 56.116 19.3673C56.0577 19.271 56.0305 19.1591 56.0381 19.0468V18.6503H55.8242V18.4304H56.0381L56.0697 18.1099H56.3318V18.4304H56.7491V18.6503H56.3318V18.9899C56.3277 19.0584 56.3378 19.1269 56.3615 19.1913C56.393 19.2623 56.4616 19.2895 56.5544 19.2895C56.6253 19.2881 56.696 19.2813 56.7658 19.2691V19.4803C56.6652 19.5024 56.5627 19.515 56.4598 19.518Z" fill="#939598"/>
<path d="M57.0381 19.4889V18.4305H57.2792L57.2903 18.4971C57.4595 18.44 57.6361 18.4077 57.8146 18.4014C57.8272 18.4007 57.8398 18.4007 57.8523 18.4014V18.6528C57.8189 18.6528 57.7788 18.6528 57.7497 18.6528C57.6095 18.6533 57.4699 18.6716 57.3342 18.7071V19.4889H57.0381Z" fill="#939598"/>
<path d="M58.9278 19.0443C58.8041 19.0338 58.6805 19.0276 58.5457 19.0276C58.3293 19.0276 58.2539 19.0715 58.2539 19.1703C58.2539 19.2691 58.3157 19.3129 58.4826 19.3129C58.6327 19.3077 58.7819 19.287 58.9278 19.2512V19.0455V19.0443ZM58.9896 19.4889L58.9815 19.4272C58.794 19.4795 58.6011 19.5103 58.4066 19.5192C58.2941 19.527 58.182 19.4999 58.0857 19.4414C58.0443 19.4066 58.0121 19.3622 57.9921 19.312C57.972 19.2618 57.9647 19.2074 57.9709 19.1537C57.977 19.1 57.9963 19.0486 58.0271 19.0042C58.058 18.9598 58.0993 18.9237 58.1475 18.8992C58.2588 18.8467 58.4078 18.8423 58.5444 18.8423C58.6551 18.8423 58.8041 18.8485 58.9284 18.8572V18.838C58.9284 18.6725 58.819 18.6182 58.521 18.6182C58.406 18.6182 58.265 18.6244 58.1308 18.6367V18.423C58.2798 18.4107 58.4474 18.4026 58.5859 18.4026C58.7713 18.4026 58.9618 18.4169 59.0805 18.5008C59.1992 18.5848 59.2251 18.7065 59.2251 18.8633V19.4902L58.9896 19.4889Z" fill="#939598"/>
<path d="M59.6035 17.9839H59.8997V19.4889H59.6035V17.9839Z" fill="#939598"/>
</svg>
