<svg width="20" height="20" viewBox="0 0 20 20" fill="none" xmlns="http://www.w3.org/2000/svg">
<g clip-path="url(#clip0_26_3071)">
<path d="M15.7501 13.98C17.0805 12.202 17.688 9.98605 17.4503 7.77815C17.2126 5.57025 16.1474 3.53436 14.469 2.0803C12.7906 0.626244 10.6236 -0.138023 8.4044 -0.0586537C6.18516 0.0207153 4.07837 0.937827 2.50813 2.50807C0.937888 4.07831 0.0207763 6.1851 -0.0585926 8.40434C-0.137962 10.6236 0.626305 12.7905 2.08036 14.4689C3.53442 16.1473 5.57031 17.2126 7.77821 17.4503C9.98611 17.688 12.2021 17.0805 13.9801 15.75L18.2301 20L20.0001 18.2333L15.7501 13.98ZM8.75008 15C7.51394 15 6.30557 14.6335 5.27776 13.9467C4.24996 13.2599 3.44888 12.2838 2.97583 11.1418C2.50278 9.99975 2.37901 8.74308 2.62017 7.5307C2.86133 6.31832 3.45658 5.20468 4.33066 4.3306C5.20474 3.45652 6.31838 2.86127 7.53076 2.62011C8.74314 2.37895 9.99981 2.50272 11.1418 2.97577C12.2839 3.44882 13.26 4.2499 13.9468 5.2777C14.6335 6.30551 15.0001 7.51388 15.0001 8.75002C14.9985 10.4071 14.3396 11.996 13.1678 13.1677C11.996 14.3395 10.4072 14.9985 8.75008 15Z" fill="white"/>
</g>
<defs>
<clipPath id="clip0_26_3071">
<rect width="20" height="20" fill="white"/>
</clipPath>
</defs>
</svg>
