<svg width="25" height="25" viewBox="0 0 25 25" fill="none" xmlns="http://www.w3.org/2000/svg">
<path d="M17.7087 4.16667V2.08333C17.7087 0.934375 16.7743 0 15.6253 0H9.37533C8.22637 0 7.29199 0.934375 7.29199 2.08333V4.16667H1.04199V6.25H2.75449L4.52845 22.2198C4.70449 23.8042 6.03991 25 7.6347 25H17.3264C18.9212 25 20.2566 23.8052 20.4316 22.2198L22.2055 6.25H23.9576V4.16667H17.7087ZM9.37533 2.08333H15.6253V4.16667H9.37533V2.08333ZM16.6222 17.2323L15.1493 18.7052L12.5003 16.0562L9.85137 18.7052L8.37845 17.2323L11.0274 14.5833L8.37845 11.9344L9.85137 10.4615L12.5003 13.1104L15.1493 10.4615L16.6222 11.9344L13.9732 14.5833L16.6222 17.2323Z" fill="black"/>
</svg>
