<svg width="63" height="21" viewBox="0 0 63 21" fill="none" xmlns="http://www.w3.org/2000/svg">
<path d="M40.8971 0C36.4387 0 32.4547 2.30812 32.4547 6.57272C32.4547 11.4634 39.5206 11.8012 39.5206 14.258C39.5206 15.2926 38.3338 16.2186 36.3067 16.2186C33.4297 16.2186 31.2794 14.9246 31.2794 14.9246L30.3594 19.228C30.3594 19.228 32.8364 20.321 36.125 20.321C40.9993 20.321 44.8349 17.8995 44.8349 13.5621C44.8349 8.3942 37.7395 8.06642 37.7395 5.78612C37.7395 4.97565 38.7137 4.08779 40.7351 4.08779C43.0159 4.08779 44.8766 5.02875 44.8766 5.02875L45.7771 0.872466C45.7771 0.872466 43.7523 0 40.8971 0ZM0.108018 0.313652L0 0.941099C0 0.941099 1.87572 1.28398 3.56497 1.96792C5.74 2.75226 5.89495 3.20883 6.26128 4.62684L10.2531 19.9975H15.6041L23.8479 0.313652H18.5091L13.2121 13.6968L11.0505 2.35261C10.8523 1.05436 9.84816 0.313652 8.61912 0.313652H0.108018ZM25.9946 0.313652L21.8066 19.9975H26.8975L31.0709 0.313652H25.9946ZM54.3887 0.313652C53.1611 0.313652 52.5107 0.970191 52.0334 2.11733L44.5747 19.9975H49.9136L50.9464 17.0175H57.4506L58.0788 19.9975H62.7894L58.6798 0.313652H54.3887ZM55.083 5.63163L56.6655 13.0179H52.426L55.083 5.63163Z" fill="#1434CB"/>
</svg>
